<svg id="Layer_1" data-name="Layer 1" xmlns="http://www.w3.org/2000/svg" xmlns:xlink="http://www.w3.org/1999/xlink" viewBox="0 0 230.4 360"><defs><style>.cls-1{fill:none;}.cls-2{clip-path:url(#clip-path);}.cls-3{fill:#abe3ed;}.cls-4{fill:#c9f6ff;}.cls-5{fill:#155e60;}.cls-6{fill:#3694f2;}.cls-7{fill:#e6f0ff;}.cls-8{fill:#abd7ed;}.cls-9{fill:#86c4f7;}.cls-10{fill:#4897f7;}.cls-11{fill:#0078db;}.cls-12{opacity:0.5;}.cls-13{fill:#a6c3e2;}.cls-14{fill:#76aed3;}.cls-15{fill:#c1d3ea;}.cls-16{fill:#94bcdd;}.cls-17{fill:#afcdfb;}.cls-18{fill:#fff;}.cls-19{fill:#ffb27d;}.cls-20{fill:#dcf1f9;}.cls-21{fill:#a5cdef;}</style><clipPath id="clip-path"><rect class="cls-1" x="-0.8" width="231" height="361"/></clipPath></defs><title>MOBILE WEB 222</title><g class="cls-2"><rect class="cls-3" x="0.2" width="237" height="361"/><path class="cls-4" d="M15.93,53.25c17.31-2.07,34.7,5.81,51.89,1.41,8.25-2.11,14.9-7.11,20.35-13.5C93,35.48,97,29.12,102,23.58a44.31,44.31,0,0,1,8.2-7.21,36.09,36.09,0,0,1,11.92-4.8c8-1.85,16.46-1.94,23.87-5.83A26.74,26.74,0,0,0,154.2-1H-.8V61.81A28.65,28.65,0,0,1,15.93,53.25Z"/><path class="cls-5" d="M57.29,129.92v1.31H51v-9.42h6.15v1.31H52.46v2.68h4.08V127H52.46v2.88Z"/><path class="cls-5" d="M58.78,131.23v-9.42H62a4.7,4.7,0,0,1,1.94.37,3.92,3.92,0,0,1,1.38,1,4.14,4.14,0,0,1,.85,1.49,5.75,5.75,0,0,1,.28,1.83,5.68,5.68,0,0,1-.32,1.94,4.29,4.29,0,0,1-.89,1.49,3.91,3.91,0,0,1-1.4.95,4.71,4.71,0,0,1-1.84.34ZM65,126.51a4.24,4.24,0,0,0-.2-1.37,2.91,2.91,0,0,0-.58-1.07,2.73,2.73,0,0,0-.94-.7,3.15,3.15,0,0,0-1.26-.25h-1.8v6.8H62a3,3,0,0,0,1.28-.26,2.78,2.78,0,0,0,.94-.72,3.18,3.18,0,0,0,.57-1.08A4.54,4.54,0,0,0,65,126.51Z"/><path class="cls-5" d="M71.79,130a2.17,2.17,0,0,0,2-1.06,3.28,3.28,0,0,0,.42-1.07,6.46,6.46,0,0,0,.12-1.25v-4.77h1.45v4.77a7.17,7.17,0,0,1-.22,1.83,4.3,4.3,0,0,1-.69,1.5,3.28,3.28,0,0,1-1.23,1,4,4,0,0,1-1.81.38,3.82,3.82,0,0,1-1.84-.4,3.44,3.44,0,0,1-1.22-1,4.41,4.41,0,0,1-.67-1.51,7.87,7.87,0,0,1-.2-1.77v-4.77H69.3v4.77a6.41,6.41,0,0,0,.12,1.26,3.27,3.27,0,0,0,.41,1.07,2.16,2.16,0,0,0,.77.76A2.3,2.3,0,0,0,71.79,130Z"/><path class="cls-5" d="M77.66,131.23v-9.42H80.9a4.65,4.65,0,0,1,1.93.37,3.87,3.87,0,0,1,1.39,1,4.12,4.12,0,0,1,.84,1.49,5.75,5.75,0,0,1,.29,1.83,5.68,5.68,0,0,1-.32,1.94,4.44,4.44,0,0,1-.89,1.49,3.91,3.91,0,0,1-1.4.95,4.75,4.75,0,0,1-1.84.34Zm6.22-4.72a4.53,4.53,0,0,0-.2-1.37,3.06,3.06,0,0,0-.58-1.07,2.73,2.73,0,0,0-.94-.7,3.15,3.15,0,0,0-1.26-.25H79.1v6.8h1.8a3.08,3.08,0,0,0,1.28-.26,2.78,2.78,0,0,0,.94-.72,3.18,3.18,0,0,0,.57-1.08A4.54,4.54,0,0,0,83.88,126.51Z"/><path class="cls-5" d="M86.86,131.23v-9.42H88.3v9.42Z"/><path class="cls-5" d="M96.75,130.06a3.57,3.57,0,0,1-2.66,1.24,3.67,3.67,0,0,1-1.7-.4A4.48,4.48,0,0,1,91,129.85a4.94,4.94,0,0,1-.91-1.54,5.34,5.34,0,0,1-.32-1.83,5.28,5.28,0,0,1,.32-1.82,4.8,4.8,0,0,1,.91-1.51,4.23,4.23,0,0,1,1.38-1,4,4,0,0,1,1.73-.38,4,4,0,0,1,2.2.57,3.57,3.57,0,0,1,1.34,1.49l-1.11.82a2.58,2.58,0,0,0-1-1.15,2.73,2.73,0,0,0-1.44-.39,2.44,2.44,0,0,0-1.17.29,3,3,0,0,0-.9.75,3.59,3.59,0,0,0-.57,1.1,4.31,4.31,0,0,0-.2,1.3,3.93,3.93,0,0,0,.23,1.34A3.62,3.62,0,0,0,92.1,129a3,3,0,0,0,.94.73,2.59,2.59,0,0,0,1.17.28,2.77,2.77,0,0,0,1.33-.34,4,4,0,0,0,1.21-1v-1H94.84v-1.1H98v4.76H96.75Z"/><path class="cls-5" d="M107.29,131.23v-6.78l-2.72,5.13h-.8l-2.72-5.13v6.78H99.61v-9.42h1.54l3,5.76,3-5.76h1.54v9.42Z"/><path class="cls-5" d="M114,131.23v-9.42h1.44v9.42Z"/><path class="cls-5" d="M118.91,124.59v6.64h-1.44v-9.42h1.13l5.22,6.79v-6.78h1.46v9.41h-1.2Z"/><path class="cls-5" d="M127.91,121.81l2.75,7.55,2.74-7.55h1.53l-3.65,9.42h-1.23l-3.67-9.42Z"/><path class="cls-5" d="M136.05,131.23v-9.42h1.44v9.42Z"/><path class="cls-5" d="M146.25,123.12h-3v8.11h-1.46v-8.11h-3v-1.31h7.54Z"/><path class="cls-5" d="M153.74,129.92v1.31h-6.27v-9.42h6.15v1.31h-4.71v2.68H153V127h-4.08v2.88Z"/><path class="cls-5" d="M160.43,124a2.13,2.13,0,0,0-.37-.31,3.74,3.74,0,0,0-.57-.31,3.8,3.8,0,0,0-.72-.24,3.57,3.57,0,0,0-.8-.09,2.16,2.16,0,0,0-1.35.34,1.15,1.15,0,0,0-.43,1,1,1,0,0,0,.14.56,1.19,1.19,0,0,0,.41.39,3.17,3.17,0,0,0,.71.29l1,.27q.69.18,1.26.39a3.64,3.64,0,0,1,.94.51,2.17,2.17,0,0,1,.6.75,2.55,2.55,0,0,1,.21,1.09,2.79,2.79,0,0,1-.26,1.23,2.35,2.35,0,0,1-.72.84,3.11,3.11,0,0,1-1.06.48,5.45,5.45,0,0,1-1.3.15,6.52,6.52,0,0,1-2-.32,5.94,5.94,0,0,1-1.75-.95l.66-1.28a2.66,2.66,0,0,0,.48.39,4.51,4.51,0,0,0,.73.39,6.92,6.92,0,0,0,.91.31,4.17,4.17,0,0,0,1,.12,2.37,2.37,0,0,0,1.31-.3,1,1,0,0,0,.47-.91,1,1,0,0,0-.18-.59,1.47,1.47,0,0,0-.49-.42,4.59,4.59,0,0,0-.79-.33l-1-.3a9.79,9.79,0,0,1-1.19-.39,3.06,3.06,0,0,1-.84-.5,1.88,1.88,0,0,1-.51-.68,2.27,2.27,0,0,1-.17-1,2.85,2.85,0,0,1,.25-1.23,2.73,2.73,0,0,1,.7-.9,2.93,2.93,0,0,1,1.05-.55,4.28,4.28,0,0,1,1.31-.19,4.52,4.52,0,0,1,1.71.31,5.34,5.34,0,0,1,1.38.75Z"/><path class="cls-5" d="M168.36,121.81h1.26l3.6,9.42H171.7l-1-2.56h-3.53l-1,2.56h-1.53Zm2.09,5.76-1.46-4-1.52,4Z"/><path class="cls-5" d="M174.35,131.23v-9.42h1.44v8.11h4.9v1.31Z"/><path class="cls-5" d="M181.86,131.23v-9.42h1.44v8.11h4.9v1.31Z"/><path class="cls-5" d="M42.83,139.05h-3v8.1H38.34v-8.1H35.29v-1.32h7.54Z"/><path class="cls-5" d="M47.42,147.22a3.93,3.93,0,0,1-1.79-.41,4.35,4.35,0,0,1-1.38-1.07,5.08,5.08,0,0,1-.89-1.53,5.17,5.17,0,0,1-.32-1.77,5.13,5.13,0,0,1,1.26-3.33,4.37,4.37,0,0,1,1.39-1.05,3.94,3.94,0,0,1,1.75-.39,3.76,3.76,0,0,1,1.78.41,4.51,4.51,0,0,1,1.38,1.1,5.08,5.08,0,0,1,.89,1.53,5.08,5.08,0,0,1,0,3.55,4.69,4.69,0,0,1-.92,1.52,4.48,4.48,0,0,1-1.39,1.05A4,4,0,0,1,47.42,147.22Zm-2.91-4.78a4.05,4.05,0,0,0,.21,1.29,3.4,3.4,0,0,0,.58,1.1,2.82,2.82,0,0,0,.92.76,2.55,2.55,0,0,0,1.21.29,2.49,2.49,0,0,0,1.23-.3,2.84,2.84,0,0,0,.9-.79,3.6,3.6,0,0,0,.57-1.1,4.08,4.08,0,0,0,.19-1.25,4.25,4.25,0,0,0-.2-1.29,3.57,3.57,0,0,0-.59-1.09,3,3,0,0,0-.91-.76,2.49,2.49,0,0,0-1.19-.28,2.53,2.53,0,0,0-1.24.3,3.08,3.08,0,0,0-.91.77,3.49,3.49,0,0,0-.57,1.1A4.13,4.13,0,0,0,44.51,142.44Z"/><path class="cls-5" d="M61.87,140a1.77,1.77,0,0,0-.37-.31,4.29,4.29,0,0,0-.57-.32,6.07,6.07,0,0,0-.72-.24,3.66,3.66,0,0,0-.81-.09,2.13,2.13,0,0,0-1.34.35,1.15,1.15,0,0,0-.43.95,1.09,1.09,0,0,0,.13.57,1.21,1.21,0,0,0,.42.38,3,3,0,0,0,.71.29c.28.09.61.18,1,.28a10.36,10.36,0,0,1,1.25.38,3.44,3.44,0,0,1,.95.52,2.07,2.07,0,0,1,.59.75,2.34,2.34,0,0,1,.22,1.08,2.6,2.6,0,0,1-.27,1.23,2.2,2.2,0,0,1-.72.85,3.11,3.11,0,0,1-1.06.47,4.87,4.87,0,0,1-1.3.16,6.23,6.23,0,0,1-2-.33,5.6,5.6,0,0,1-1.75-.95l.65-1.27a3.2,3.2,0,0,0,.48.38,4,4,0,0,0,.74.39,6,6,0,0,0,.9.31,4.32,4.32,0,0,0,1,.13,2.39,2.39,0,0,0,1.31-.31,1,1,0,0,0,.46-.9,1,1,0,0,0-.17-.6,1.57,1.57,0,0,0-.49-.42,4.62,4.62,0,0,0-.79-.32l-1-.31a9.24,9.24,0,0,1-1.19-.39,3,3,0,0,1-.85-.5,1.85,1.85,0,0,1-.5-.68,2.27,2.27,0,0,1-.18-.95,2.85,2.85,0,0,1,.26-1.23,2.8,2.8,0,0,1,.7-.9,3.28,3.28,0,0,1,1.05-.55,4.56,4.56,0,0,1,1.31-.18,4.73,4.73,0,0,1,1.71.3,5.71,5.71,0,0,1,1.38.76Z"/><path class="cls-5" d="M70.59,145.84v1.31H64.33v-9.42h6.14v1.32h-4.7v2.68h4.07V143H65.77v2.88Z"/><path class="cls-5" d="M73.52,140.52v6.63H72.08v-9.42h1.13l5.22,6.8v-6.79h1.46v9.41h-1.2Z"/><path class="cls-5" d="M81.94,147.15v-9.42h3.25a4.81,4.81,0,0,1,1.93.37,4.09,4.09,0,0,1,1.39,1,4.37,4.37,0,0,1,.84,1.49,5.79,5.79,0,0,1,.28,1.83,5.64,5.64,0,0,1-.31,1.94,4.35,4.35,0,0,1-.89,1.49,4,4,0,0,1-1.41.95,4.66,4.66,0,0,1-1.83.34Zm6.23-4.72a4.58,4.58,0,0,0-.2-1.37,3,3,0,0,0-.59-1.07,2.79,2.79,0,0,0-.93-.69,3,3,0,0,0-1.26-.25H83.38v6.79h1.81a3,3,0,0,0,1.27-.26,2.49,2.49,0,0,0,.94-.72,3,3,0,0,0,.58-1.08A4.79,4.79,0,0,0,88.17,142.43Z"/><path class="cls-5" d="M100.59,145.84v1.31H94.33v-9.42h6.15v1.32H95.77v2.68h4.08V143H95.77v2.88Z"/><path class="cls-5" d="M103.52,140.52v6.63h-1.44v-9.42h1.13l5.23,6.8v-6.79h1.45v9.41h-1.2Z"/><path class="cls-5" d="M118.65,139.05h-3v8.1h-1.45v-8.1h-3v-1.32h7.54Z"/><path class="cls-5" d="M119.87,147.15v-9.42h4A2.46,2.46,0,0,1,125,138a2.77,2.77,0,0,1,.89.69,3.29,3.29,0,0,1,.59,1,3.09,3.09,0,0,1,.21,1.12,3,3,0,0,1-.13.91,3,3,0,0,1-.36.81,2.68,2.68,0,0,1-.56.65,2.42,2.42,0,0,1-.74.4l2.15,3.58H125.4l-2-3.27h-2.11v3.27Zm1.44-4.59h2.52a1.06,1.06,0,0,0,.56-.14,1.3,1.3,0,0,0,.43-.38,2,2,0,0,0,.28-.57,2.09,2.09,0,0,0,.11-.67,1.72,1.72,0,0,0-.13-.68,2,2,0,0,0-.32-.56,1.67,1.67,0,0,0-.46-.38,1.2,1.2,0,0,0-.55-.13h-2.44Z"/><path class="cls-5" d="M128.37,147.15v-9.42h1.44v9.42Z"/><path class="cls-5" d="M138.13,145.84v1.31h-6.26v-9.42H138v1.32h-4.7v2.68h4.07V143h-4.07v2.88Z"/><path class="cls-5" d="M144.83,140a2.07,2.07,0,0,0-.37-.31,4.44,4.44,0,0,0-.58-.32,5.05,5.05,0,0,0-.72-.24,3.57,3.57,0,0,0-.8-.09,2.11,2.11,0,0,0-1.34.35,1.15,1.15,0,0,0-.43.95,1.09,1.09,0,0,0,.13.57,1.21,1.21,0,0,0,.42.38,3,3,0,0,0,.71.29c.28.09.61.18,1,.28a10.36,10.36,0,0,1,1.25.38,3.44,3.44,0,0,1,.95.52,2.07,2.07,0,0,1,.59.75,2.47,2.47,0,0,1,.22,1.08,2.6,2.6,0,0,1-.27,1.23,2.2,2.2,0,0,1-.72.85,3.2,3.2,0,0,1-1.06.47,4.93,4.93,0,0,1-1.3.16,6.23,6.23,0,0,1-2-.33,5.77,5.77,0,0,1-1.76-.95l.66-1.27a3.2,3.2,0,0,0,.48.38,4.18,4.18,0,0,0,.73.39,6.08,6.08,0,0,0,.91.31,4.32,4.32,0,0,0,1,.13,2.41,2.41,0,0,0,1.31-.31,1,1,0,0,0,.46-.9,1,1,0,0,0-.17-.6,1.51,1.51,0,0,0-.5-.42,4.18,4.18,0,0,0-.78-.32l-1.06-.31a9.79,9.79,0,0,1-1.19-.39,3.12,3.12,0,0,1-.84-.5,2,2,0,0,1-.51-.68,2.44,2.44,0,0,1-.17-.95,2.85,2.85,0,0,1,.26-1.23,2.67,2.67,0,0,1,.7-.9,3.08,3.08,0,0,1,1.05-.55,4.56,4.56,0,0,1,1.31-.18,4.73,4.73,0,0,1,1.71.3,5.71,5.71,0,0,1,1.38.76Z"/><path class="cls-5" d="M150.46,147.15v-9.42h6.08v1.32H151.9v2.81h3.89v1.23H151.9v4.06Z"/><path class="cls-5" d="M161.5,147.22a3.93,3.93,0,0,1-1.79-.41,4.35,4.35,0,0,1-1.38-1.07,5.08,5.08,0,0,1-.89-1.53,5.17,5.17,0,0,1-.32-1.77,4.76,4.76,0,0,1,.34-1.8,4.92,4.92,0,0,1,.92-1.53,4.37,4.37,0,0,1,1.39-1.05,3.94,3.94,0,0,1,1.75-.39,3.76,3.76,0,0,1,1.78.41,4.51,4.51,0,0,1,1.38,1.1,5.08,5.08,0,0,1,.89,1.53,5.08,5.08,0,0,1,0,3.55,4.69,4.69,0,0,1-.92,1.52,4.48,4.48,0,0,1-1.39,1.05A4,4,0,0,1,161.5,147.22Zm-2.91-4.78a4.34,4.34,0,0,0,.2,1.29,3.63,3.63,0,0,0,.59,1.1,2.82,2.82,0,0,0,.92.76,2.55,2.55,0,0,0,1.21.29,2.49,2.49,0,0,0,1.23-.3,3,3,0,0,0,.9-.79,3.6,3.6,0,0,0,.57-1.1,4.08,4.08,0,0,0,.19-1.25,4.25,4.25,0,0,0-.2-1.29,3.57,3.57,0,0,0-.59-1.09,3,3,0,0,0-.91-.76,2.69,2.69,0,0,0-2.43,0,3.08,3.08,0,0,0-.91.77,3.49,3.49,0,0,0-.57,1.1A4.13,4.13,0,0,0,158.59,142.44Z"/><path class="cls-5" d="M167.37,147.15v-9.42h4a2.39,2.39,0,0,1,1.13.27,2.92,2.92,0,0,1,.9.69,3.27,3.27,0,0,1,.58,1,3.1,3.1,0,0,1,.22,1.12,3.39,3.39,0,0,1-.13.91,3.7,3.7,0,0,1-.36.81,3,3,0,0,1-.57.65,2.37,2.37,0,0,1-.73.4l2.15,3.58H172.9l-2-3.27h-2.11v3.27Zm1.44-4.59h2.52a1,1,0,0,0,.56-.14,1.3,1.3,0,0,0,.43-.38,2,2,0,0,0,.29-.57,2.41,2.41,0,0,0,.1-.67,1.91,1.91,0,0,0-.12-.68,2,2,0,0,0-.32-.56,1.71,1.71,0,0,0-.47-.38,1.16,1.16,0,0,0-.54-.13h-2.45Z"/><path class="cls-5" d="M185.39,139.05h-3v8.1H180.9v-8.1h-3.05v-1.32h7.54Z"/><path class="cls-5" d="M194.11,137.73v9.42h-1.45V143h-4.61v4.15h-1.44v-9.42h1.44v3.94h4.61v-3.94Z"/><path class="cls-5" d="M202.43,145.84v1.31h-6.26v-9.42h6.14v1.32h-4.7v2.68h4.07V143h-4.07v2.88Z"/><path class="cls-6" d="M71,256.19l57.89-34.66a10.12,10.12,0,0,1,10.38,0l57.89,34.66v56.49L71,306.36Z"/><rect class="cls-7" x="81.9" y="231.16" width="104.44" height="90.26"/><circle class="cls-8" cx="86.16" cy="235.1" r="1.07"/><path class="cls-8" d="M180.94,235.1a1.08,1.08,0,1,1,1.07,1.07A1.07,1.07,0,0,1,180.94,235.1Z"/><rect class="cls-8" x="86.16" y="234.98" width="95.85" height="0.23"/><rect class="cls-8" x="86.04" y="234.67" width="0.23" height="95.85"/><rect class="cls-8" x="181.94" y="234.67" width="0.23" height="95.85"/><polygon class="cls-9" points="197.2 256.04 197.2 331.56 71.04 331.56 71.04 256.04 134.12 293.8 197.2 256.04"/><path class="cls-6" d="M71,331.56l57.78-41.42a9.1,9.1,0,0,1,10.6,0l57.78,41.42Z"/><path class="cls-9" d="M155.7,260.21H114a.73.73,0,0,1-.73-.73h0a.73.73,0,0,1,.73-.72H155.7a.73.73,0,0,1,.73.72h0A.73.73,0,0,1,155.7,260.21Z"/><path class="cls-9" d="M118.15,264H106.38a.73.73,0,0,1-.73-.73h0a.73.73,0,0,1,.73-.72h11.77a.73.73,0,0,1,.73.72h0A.73.73,0,0,1,118.15,264Z"/><path class="cls-9" d="M135.9,264H121.68a.73.73,0,0,1-.73-.73h0a.73.73,0,0,1,.73-.72H135.9a.73.73,0,0,1,.73.72h0A.73.73,0,0,1,135.9,264Z"/><path class="cls-9" d="M163.28,264H138.7a.73.73,0,0,1-.73-.73h0a.73.73,0,0,1,.73-.72h24.58a.73.73,0,0,1,.73.72h0A.73.73,0,0,1,163.28,264Z"/><path class="cls-9" d="M136,268.43H113.13a.73.73,0,0,1-.73-.73h0a.73.73,0,0,1,.73-.73H136a.73.73,0,0,1,.72.73h0A.73.73,0,0,1,136,268.43Z"/><path class="cls-9" d="M156.53,268.43h-18a.73.73,0,0,1-.72-.73h0a.73.73,0,0,1,.72-.73h18a.73.73,0,0,1,.73.73h0A.73.73,0,0,1,156.53,268.43Z"/><path class="cls-10" d="M142.42,277.41a29.45,29.45,0,0,1-4.4,3,3.62,3.62,0,0,0,.22-1.22c0-.52-.44-.75-.86-1l-.3-.17a.52.52,0,0,0,.14-.62.45.45,0,0,0-.84,0,.49.49,0,0,0,0,.2.76.76,0,0,1-.17-.13c.26-.48.5-1,.72-1.46a.27.27,0,0,0-.1-.31.87.87,0,0,0-1.17.16,1.56,1.56,0,0,0-.09,1.51.3.3,0,0,0,0,.1c-.33.59-.68,1.16-1.06,1.71l-.11-.1a2.17,2.17,0,0,1-.29-.36,5.23,5.23,0,0,0,.32-1.42.27.27,0,0,0-.38-.26,1.15,1.15,0,0,0-.72,1.24,1.38,1.38,0,0,0,.17.52,5.66,5.66,0,0,1-.41.71.26.26,0,0,0,.09.38,3.73,3.73,0,0,1-.78,1.52c-.31.33-.89.58-1.28.19a1.62,1.62,0,0,1-.3-1,18.12,18.12,0,0,1-.11-2.44,3.61,3.61,0,0,1,.18-1.13c.08-.22.2-.56.31-.18a2.62,2.62,0,0,1,0,.68c0,.34.5.38.53,0s.22-1.25-.24-1.5-.72.09-.9.4c-.63,1.13-.38,2.69-.28,3.92.07,1,.44,2.18,1.69,1.87s1.62-1.78,1.89-2.8a.31.31,0,0,0,0-.17v0l.15.15.2.19-.38.51a.29.29,0,0,0,0,.33.63.63,0,0,0,1.1-.46.88.88,0,0,0-.09-.37c.37-.54.72-1.09,1-1.66a.84.84,0,0,0,.65.26h.05a2.21,2.21,0,0,0,.47.35,4.09,4.09,0,0,1,.46.25c.25.21.18.45.12.74a9.45,9.45,0,0,1-.31,1.16,2.41,2.41,0,0,0-1.25,1.32,1.33,1.33,0,0,0,.47,1.51.26.26,0,0,0,.4-.13c.3-.75.58-1.51.81-2.28l0-.07c.47-.27,1-.51,1.44-.79a26.75,26.75,0,0,0,3.55-2.51C143,277.59,142.68,277.19,142.42,277.41Zm-6.51-.72c0-.21.11-.6.36-.6-.11.24-.23.48-.35.72C135.92,276.77,135.91,276.73,135.91,276.69Zm.68,6.19c-.22-.42.1-.94.47-1.28C136.91,282,136.76,282.46,136.59,282.88Z"/><path class="cls-11" d="M114,243.86h.61L115,245l.38-1.1H116l-.58,1.52.43,1.06,1-2.59h.73l-1.39,3.33h-.56l-.59-1.39-.6,1.39h-.55l-1.38-3.33h.71l1,2.59.42-1.06Z"/><path class="cls-11" d="M119.3,247.21a1.54,1.54,0,0,1-.68-.15,1.62,1.62,0,0,1-.52-.38,1.5,1.5,0,0,1-.34-.54,1.67,1.67,0,0,1-.12-.62,1.53,1.53,0,0,1,.13-.64,1.73,1.73,0,0,1,.35-.54,1.64,1.64,0,0,1,.53-.37,1.52,1.52,0,0,1,.67-.14,1.54,1.54,0,0,1,.68.15,1.62,1.62,0,0,1,.52.38,1.79,1.79,0,0,1,.33.55,1.69,1.69,0,0,1,0,1.25,1.62,1.62,0,0,1-.35.54,1.58,1.58,0,0,1-.53.37A1.6,1.6,0,0,1,119.3,247.21Zm-1-1.69a1.54,1.54,0,0,0,.07.42,1.1,1.1,0,0,0,.2.35,1,1,0,0,0,.31.25.93.93,0,0,0,.42.09,1,1,0,0,0,.43-.09,1.1,1.1,0,0,0,.31-.26,1,1,0,0,0,.19-.36,1.4,1.4,0,0,0,.07-.4,1.42,1.42,0,0,0-.07-.42,1.39,1.39,0,0,0-.2-.36,1,1,0,0,0-.31-.24,1,1,0,0,0-.85,0,1.1,1.1,0,0,0-.31.25,1.24,1.24,0,0,0-.19.36A1.41,1.41,0,0,0,118.31,245.52Z"/><path class="cls-11" d="M121.49,247.18v-3.33H123a.91.91,0,0,1,.43.1,1.07,1.07,0,0,1,.34.25,1.05,1.05,0,0,1,.23.36.92.92,0,0,1,.08.4,1.11,1.11,0,0,1-.16.59,1,1,0,0,1-.45.38l.78,1.25h-.75l-.7-1.11h-.65v1.11Zm.66-1.68H123a.47.47,0,0,0,.17,0,.41.41,0,0,0,.14-.12.46.46,0,0,0,.09-.17.76.76,0,0,0,0-.21.78.78,0,0,0,0-.22.62.62,0,0,0-.11-.17.42.42,0,0,0-.15-.11.33.33,0,0,0-.17,0h-.8Z"/><path class="cls-11" d="M124.68,247.18v-3.33h.67v2.77h1.74v.56Z"/><path class="cls-11" d="M127.49,247.18v-3.33h1.25a1.86,1.86,0,0,1,.73.13,1.66,1.66,0,0,1,.53.36,1.48,1.48,0,0,1,.31.53,1.91,1.91,0,0,1,.11.64,1.85,1.85,0,0,1-.12.69,1.46,1.46,0,0,1-.34.53,1.59,1.59,0,0,1-.53.33,1.92,1.92,0,0,1-.69.12Zm2.26-1.67a1.27,1.27,0,0,0-.07-.44,1.08,1.08,0,0,0-.19-.35,1,1,0,0,0-.32-.22,1.18,1.18,0,0,0-.43-.08h-.58v2.2h.58a1,1,0,0,0,.43-.09.94.94,0,0,0,.32-.23,1.08,1.08,0,0,0,.19-.35A1.27,1.27,0,0,0,129.75,245.51Z"/><path class="cls-11" d="M133.27,243.86h.61l.39,1.1.38-1.1h.62l-.58,1.52.43,1.06,1-2.59h.73l-1.39,3.33h-.56l-.59-1.39-.6,1.39h-.55l-1.38-3.33h.71l1,2.59.42-1.06Z"/><path class="cls-11" d="M138.13,243.85h.59l1.3,3.33h-.69l-.31-.83h-1.2l-.31.83h-.68Zm.77,2.05-.48-1.31-.49,1.31Z"/><path class="cls-11" d="M143,244.42h-1.1v2.76h-.66v-2.76H140.1v-.57H143Z"/><path class="cls-11" d="M145.74,246.62v.56h-2.37v-3.33h2.33v.57H144v.8h1.44v.53H144v.87Z"/><path class="cls-11" d="M146.26,247.18v-3.33h1.51a1,1,0,0,1,.44.1,1.2,1.2,0,0,1,.34.25,1.23,1.23,0,0,1,.23.36,1.1,1.1,0,0,1,.08.4,1.12,1.12,0,0,1-.17.59,1,1,0,0,1-.45.38l.78,1.25h-.74l-.7-1.11h-.66v1.11Zm.66-1.68h.84a.53.53,0,0,0,.17,0,.37.37,0,0,0,.13-.12.69.69,0,0,0,.1-.17.76.76,0,0,0,0-.21.54.54,0,0,0,0-.22.59.59,0,0,0-.1-.17.72.72,0,0,0-.15-.11.35.35,0,0,0-.17,0h-.81Z"/><path class="cls-11" d="M150.61,247.18v-3.33h1.25a1.86,1.86,0,0,1,.73.13,1.66,1.66,0,0,1,.53.36,1.48,1.48,0,0,1,.31.53,1.91,1.91,0,0,1,.11.64,1.85,1.85,0,0,1-.12.69,1.46,1.46,0,0,1-.34.53,1.59,1.59,0,0,1-.53.33,1.92,1.92,0,0,1-.69.12Zm2.26-1.67a1.27,1.27,0,0,0-.07-.44,1.08,1.08,0,0,0-.19-.35,1,1,0,0,0-.32-.22,1.18,1.18,0,0,0-.43-.08h-.58v2.2h.58a1,1,0,0,0,.43-.09.94.94,0,0,0,.32-.23,1.08,1.08,0,0,0,.19-.35A1.27,1.27,0,0,0,152.87,245.51Z"/><path class="cls-11" d="M155,243.85h.59l1.3,3.33h-.69l-.31-.83h-1.2l-.31.83h-.68Zm.77,2.05-.48-1.31-.49,1.31Z"/><path class="cls-11" d="M157.68,243.85l.84,1.61.86-1.61h.71L158.85,246v1.16h-.66V246L157,243.85Z"/><path class="cls-11" d="M115.81,249.48h.59l1.3,3.34H117l-.32-.83h-1.2l-.31.83h-.68Zm.77,2.05-.47-1.31-.49,1.31Z"/><path class="cls-11" d="M118.07,252.82v-3.34h1.51a1.05,1.05,0,0,1,.44.1,1.07,1.07,0,0,1,.34.25,1.16,1.16,0,0,1,.23.36,1.14,1.14,0,0,1,.08.4,1.09,1.09,0,0,1-.16.59.93.93,0,0,1-.45.38l.77,1.26h-.74l-.7-1.12h-.65v1.12Zm.67-1.69h.83a.33.33,0,0,0,.17,0,.53.53,0,0,0,.14-.12.39.39,0,0,0,.09-.17.66.66,0,0,0,0-.21.46.46,0,0,0,0-.21.52.52,0,0,0-.1-.18.58.58,0,0,0-.15-.11.33.33,0,0,0-.17,0h-.8Z"/><path class="cls-11" d="M123.83,250.05h-1.09v2.77h-.66v-2.77H121v-.57h2.85Z"/><path class="cls-11" d="M125.2,251.13a1.65,1.65,0,0,1,.44-1.14,1.71,1.71,0,0,1,.53-.38,1.64,1.64,0,0,1,.71-.15,1.54,1.54,0,0,1,.82.21,1.27,1.27,0,0,1,.51.52l-.51.35a.72.72,0,0,0-.16-.24.69.69,0,0,0-.21-.15.92.92,0,0,0-.23-.09l-.24,0a.94.94,0,0,0-.74.35,1.55,1.55,0,0,0-.19.36,1.34,1.34,0,0,0-.06.4,1.54,1.54,0,0,0,.07.42,1.07,1.07,0,0,0,.21.36,1,1,0,0,0,.32.25.9.9,0,0,0,.4.09l.24,0a.63.63,0,0,0,.24-.09.8.8,0,0,0,.21-.15.57.57,0,0,0,.15-.23l.55.3a1,1,0,0,1-.23.33,1.76,1.76,0,0,1-.75.39,1.63,1.63,0,0,1-.43.05,1.45,1.45,0,0,1-.66-.15,1.74,1.74,0,0,1-.53-.39,1.82,1.82,0,0,1-.34-.55A1.67,1.67,0,0,1,125.2,251.13Z"/><path class="cls-11" d="M130.16,252.84a1.69,1.69,0,0,1-.68-.14,2,2,0,0,1-.52-.38,1.64,1.64,0,0,1-.34-.55,1.67,1.67,0,0,1-.12-.62,1.56,1.56,0,0,1,.13-.64A1.73,1.73,0,0,1,129,250a1.68,1.68,0,0,1,.53-.37,1.64,1.64,0,0,1,.67-.14,1.47,1.47,0,0,1,.67.15,1.67,1.67,0,0,1,.86.93,1.69,1.69,0,0,1,0,1.25,1.68,1.68,0,0,1-.88.91A1.6,1.6,0,0,1,130.16,252.84Zm-1-1.69a1.54,1.54,0,0,0,.07.42,1.1,1.1,0,0,0,.2.35.84.84,0,0,0,.31.25.93.93,0,0,0,.84,0,1,1,0,0,0,.32-.25,1.24,1.24,0,0,0,.19-.36,1.47,1.47,0,0,0,.07-.41,1.25,1.25,0,0,0-.08-.42,1.08,1.08,0,0,0-.19-.35.87.87,0,0,0-.32-.25.91.91,0,0,0-.41-.09,1,1,0,0,0-.43.09,1,1,0,0,0-.31.26.92.92,0,0,0-.19.35A1.47,1.47,0,0,0,129.17,251.15Z"/><path class="cls-11" d="M135.13,252.82v-2.21l-.88,1.64h-.36l-.88-1.64v2.21h-.67v-3.34h.72l1,1.9,1-1.9h.7v3.34Z"/><path class="cls-11" d="M136.5,252.82v-3.34H138a1.09,1.09,0,0,1,.44.1,1.07,1.07,0,0,1,.34.25,1.38,1.38,0,0,1,.23.36,1.07,1.07,0,0,1,0,.81,1.31,1.31,0,0,1-.21.36,1.42,1.42,0,0,1-.34.25,1,1,0,0,1-.43.09h-.81v1.12Zm.67-1.69h.77a.39.39,0,0,0,.3-.14.57.57,0,0,0,.13-.4.85.85,0,0,0,0-.23,1,1,0,0,0-.1-.17.49.49,0,0,0-.15-.1.35.35,0,0,0-.17,0h-.74Z"/><path class="cls-11" d="M141.87,252.25v.57H139.5v-3.34h2.33v.57h-1.66v.8h1.43v.53h-1.43v.87Z"/><path class="cls-11" d="M145,250.05h-1.09v2.77h-.66v-2.77h-1.1v-.57H145Z"/><path class="cls-11" d="M145.37,252.82v-3.34H146v3.34Z"/><path class="cls-11" d="M149.3,250.05h-1.09v2.77h-.66v-2.77h-1.09v-.57h2.84Z"/><path class="cls-11" d="M149.72,252.82v-3.34h.67v3.34Z"/><path class="cls-11" d="M152.56,252.84a1.65,1.65,0,0,1-.68-.14,1.89,1.89,0,0,1-.53-.38,1.82,1.82,0,0,1-.34-.55,1.67,1.67,0,0,1-.12-.62,1.74,1.74,0,0,1,.13-.64,1.93,1.93,0,0,1,.35-.54,1.8,1.8,0,0,1,.53-.37,1.67,1.67,0,0,1,.67-.14,1.54,1.54,0,0,1,.68.15,1.69,1.69,0,0,1,.52.39,1.77,1.77,0,0,1,.34.54,1.67,1.67,0,0,1,.12.62,1.51,1.51,0,0,1-.13.63,1.66,1.66,0,0,1-.34.54,1.64,1.64,0,0,1-.53.37A1.67,1.67,0,0,1,152.56,252.84Zm-1-1.69a1.52,1.52,0,0,0,.06.42,1.1,1.1,0,0,0,.2.35.94.94,0,0,0,.73.35.85.85,0,0,0,.43-.1,1,1,0,0,0,.31-.25,1,1,0,0,0,.19-.36,1.18,1.18,0,0,0,.07-.41,1.23,1.23,0,0,0-.07-.42,1.1,1.1,0,0,0-.2-.35.84.84,0,0,0-.31-.25.93.93,0,0,0-.42-.09,1,1,0,0,0-.43.09,1.1,1.1,0,0,0-.31.26,1.08,1.08,0,0,0-.19.35A1.45,1.45,0,0,0,151.57,251.15Z"/><path class="cls-11" d="M155.4,250.68v2.14h-.66v-3.34h.51l1.78,2.19v-2.18h.67v3.33h-.54Z"/><g class="cls-12"><polygon class="cls-13" points="99.87 192.21 110.2 215 80.04 228.67 69.71 205.88 89.95 210.44 99.87 192.21"/><path class="cls-14" d="M69.71,205.88l30.16-13.67L92,209.82a2.8,2.8,0,0,1-3.46,1.6Z"/></g><g class="cls-12"><polygon class="cls-15" points="53.01 235.66 61.93 259.59 31.7 270.86 22.78 246.93 42.35 253.26 53.01 235.66"/><path class="cls-16" d="M22.78,246.93,53,235.66l-8.67,17.15a2.64,2.64,0,0,1-3.47,1.32Z"/></g><g class="cls-12"><polygon class="cls-15" points="216.11 216.34 210.84 236.07 177.89 227.27 183.16 207.55 197 221.81 216.11 216.34"/><path class="cls-16" d="M183.16,207.55l33,8.79L199,222.56a3.45,3.45,0,0,1-3.8-1Z"/></g><path class="cls-17" d="M30.49,312h0l-1.36,0a.09.09,0,1,1,0-.18l1.36,0a.09.09,0,0,1,0,.18Zm1.36,0a.09.09,0,1,1,0-.18l1.36,0a.08.08,0,0,1,.09.08.09.09,0,0,1-.08.1l-1.37,0Zm-4.08-.07h0c-.48,0-.94-.06-1.36-.11a.08.08,0,0,1-.08-.1.09.09,0,0,1,.1-.08c.42.05.87.08,1.35.11a.1.1,0,0,1,.08.1A.08.08,0,0,1,27.77,311.92Zm6.8,0a.09.09,0,0,1-.09-.08.1.1,0,0,1,.09-.1l1.36-.07a.09.09,0,0,1,.09.09.08.08,0,0,1-.08.09l-1.36.07Zm2.72-.15a.09.09,0,0,1,0-.18l1.35-.1a.08.08,0,0,1,.1.08.1.1,0,0,1-.08.1l-1.36.1Zm-12.22-.13h0a9.3,9.3,0,0,1-1.33-.32.09.09,0,0,1-.06-.11.1.1,0,0,1,.12-.06,8.75,8.75,0,0,0,1.31.31.1.1,0,0,1,.07.11A.1.1,0,0,1,25.07,311.62ZM40,311.54a.09.09,0,0,1-.09-.08.08.08,0,0,1,.08-.1l1.35-.12c.06,0,.1,0,.1.08a.08.08,0,0,1-.08.1l-1.36.12Zm2.71-.25a.08.08,0,0,1-.09-.08.09.09,0,0,1,.08-.1l1.35-.13a.08.08,0,0,1,.1.08.09.09,0,0,1-.08.1l-1.35.13Zm2.71-.27a.09.09,0,0,1-.09-.09.08.08,0,0,1,.08-.09l1.35-.15a.09.09,0,1,1,0,.18l-1.35.15Zm-22.91-.29a.06.06,0,0,1-.05,0,1.68,1.68,0,0,1-.56-.64,3.66,3.66,0,0,1-.21-.51.09.09,0,0,1,.06-.11.1.1,0,0,1,.12.05,3.3,3.3,0,0,0,.19.49,1.61,1.61,0,0,0,.51.58.08.08,0,0,1,0,.12A.09.09,0,0,1,22.52,310.73Zm25.61,0a.09.09,0,0,1-.09-.08.1.1,0,0,1,.08-.1l1.35-.16a.08.08,0,0,1,.1.08.09.09,0,0,1-.08.1l-1.35.16Zm2.7-.33a.09.09,0,0,1-.09-.08.1.1,0,0,1,.08-.1l1.35-.17a.1.1,0,0,1,.1.08.08.08,0,0,1-.08.1l-1.34.17Zm2.7-.34a.09.09,0,0,1-.09-.08.08.08,0,0,1,.08-.1l1.35-.18a.08.08,0,0,1,.1.07.11.11,0,0,1-.08.11l-1.35.18Zm2.7-.37a.09.09,0,0,1-.09-.08.09.09,0,0,1,.08-.1l1.35-.19a.1.1,0,0,1,.1.08.1.1,0,0,1-.08.1l-1.35.19Zm2.7-.38a.09.09,0,0,1,0-.18l1.35-.2a.1.1,0,0,1,.1.08.08.08,0,0,1-.07.1l-1.35.2Zm2.69-.39a.1.1,0,0,1-.09-.08.08.08,0,0,1,.08-.1l1.34-.21a.09.09,0,0,1,.1.08.08.08,0,0,1-.07.1l-1.35.2Zm2.69-.41a.09.09,0,0,1-.09-.08.09.09,0,0,1,.08-.1l1.34-.21a.1.1,0,0,1,.11.08.11.11,0,0,1-.08.1l-1.35.21Zm-42.61-.21h0a.09.09,0,0,1-.07-.11,2.79,2.79,0,0,1,.61-1.23.09.09,0,0,1,.13,0,.09.09,0,0,1,0,.13,2.68,2.68,0,0,0-.57,1.16A.1.1,0,0,1,21.7,308.28Zm45.3-.21a.09.09,0,0,1-.09-.08.09.09,0,0,1,.08-.1l1.34-.22a.09.09,0,0,1,.1.08.08.08,0,0,1-.07.1l-1.34.22Zm2.69-.43a.09.09,0,0,1-.09-.08.09.09,0,0,1,.07-.1l1.35-.22a.08.08,0,0,1,.1.07.09.09,0,0,1-.07.11l-1.35.22Zm2.69-.44a.09.09,0,0,1,0-.18l1.34-.23a.1.1,0,0,1,.11.08.09.09,0,0,1-.08.1l-1.34.23Zm2.68-.45a.09.09,0,0,1-.09-.08.08.08,0,0,1,.08-.1l1.34-.23a.08.08,0,0,1,.1.07.09.09,0,0,1-.07.11l-1.34.23Zm2.69-.46a.09.09,0,0,1-.09-.08.08.08,0,0,1,.07-.1l1.34-.24a.1.1,0,0,1,.11.08.1.1,0,0,1-.08.1l-1.34.23Zm-54.46-.11a.13.13,0,0,1-.07,0,.09.09,0,0,1,0-.13,10.1,10.1,0,0,1,1.19-.69.09.09,0,0,1,.12,0,.1.1,0,0,1,0,.13,8.26,8.26,0,0,0-1.16.67Zm57.14-.36a.11.11,0,0,1-.09-.08.08.08,0,0,1,.07-.1l1.35-.24a.09.09,0,0,1,.1.07.09.09,0,0,1-.07.11l-1.34.23Zm2.68-.48a.09.09,0,0,1-.09-.08.09.09,0,0,1,.08-.1l1.34-.25a.08.08,0,0,1,.1.08.09.09,0,0,1-.07.1l-1.34.24ZM25.72,305a.08.08,0,0,1-.08-.06.09.09,0,0,1,.05-.11c.4-.15.84-.3,1.3-.44a.09.09,0,0,1,.11.07.09.09,0,0,1-.06.11c-.45.13-.89.28-1.28.43Zm60.08-.11a.1.1,0,0,1-.09-.08.08.08,0,0,1,.07-.1l1.34-.25a.09.09,0,0,1,.11.07.08.08,0,0,1-.07.1l-1.35.25Zm2.68-.51a.08.08,0,0,1-.08-.07.09.09,0,0,1,.07-.11l.15,0a.09.09,0,0,1,.11.09c0,.08,0,.08-.23.12Zm-60.15-.16a.1.1,0,0,1-.09-.07.09.09,0,0,1,.07-.11c.42-.11.87-.21,1.33-.3a.09.09,0,0,1,0,.18c-.46.09-.9.19-1.33.29Zm2.67-.55a.11.11,0,0,1-.09-.08.08.08,0,0,1,.08-.1l1.35-.22a.1.1,0,0,1,.1.08.09.09,0,0,1-.08.1l-1.34.21Zm2.7-.4a.09.09,0,0,1-.09-.08.09.09,0,0,1,.08-.1l1.36-.15a.11.11,0,0,1,.1.09.09.09,0,0,1-.08.09l-1.36.15Zm2.72-.26a.1.1,0,0,1,0-.19c.84-.06,1.36-.08,1.37-.08a.08.08,0,0,1,.09.08.08.08,0,0,1-.08.1s-.53,0-1.37.09Z"/><polygon class="cls-17" points="91.52 309.12 102.68 302.79 92.5 303.39 93.28 305.11 91.18 307.44 91.52 309.12"/><polygon class="cls-18" points="102.68 302.79 90.98 304.93 82.46 310.85 102.68 302.79"/><polygon class="cls-18" points="92.5 303.39 102.68 302.79 92.03 299.67 92.5 303.39"/><polygon class="cls-17" points="143.16 203.76 170.14 208.03 152.39 195.53 151.42 199.44 144.82 200.53 143.16 203.76"/><polygon class="cls-18" points="170.14 208.03 147.82 196.09 125.79 194.64 170.14 208.03"/><polygon class="cls-18" points="152.39 195.53 170.14 208.03 156.55 188.71 152.39 195.53"/><path class="cls-19" d="M85.52,261.85s1.33-.5,1.48-.85.59-.5,1.12-.74.84-.68.92-.62a.52.52,0,0,1-.12.59,15,15,0,0,1-1.45,2C87.13,262.4,85.52,261.85,85.52,261.85Z"/><rect class="cls-20" x="83.78" y="320.09" width="20.29" height="8.02" rx="3.39"/><path class="cls-21" d="M98.94,322.08H86.22a.26.26,0,0,1-.26-.26h0a.26.26,0,0,1,.26-.26H98.94a.26.26,0,0,1,.25.26h0A.26.26,0,0,1,98.94,322.08Z"/><path class="cls-21" d="M88.48,323.19H86.22a.26.26,0,0,1-.26-.26h0a.26.26,0,0,1,.26-.25h2.26a.25.25,0,0,1,.25.25h0A.25.25,0,0,1,88.48,323.19Z"/><path class="cls-21" d="M95.58,323.19H89.37a.26.26,0,0,1-.26-.26h0a.26.26,0,0,1,.26-.25h6.21a.26.26,0,0,1,.26.25h0A.26.26,0,0,1,95.58,323.19Z"/><path class="cls-21" d="M98.94,325.25H86.22A.26.26,0,0,1,86,325h0a.26.26,0,0,1,.26-.26H98.94a.25.25,0,0,1,.25.26h0A.25.25,0,0,1,98.94,325.25Z"/><path class="cls-21" d="M90.84,326.37H86.22a.26.26,0,0,1-.26-.26h0a.26.26,0,0,1,.26-.26h4.62a.26.26,0,0,1,.25.26h0A.26.26,0,0,1,90.84,326.37Z"/><path class="cls-21" d="M96.45,326.37H91.84a.26.26,0,0,1-.26-.26h0a.26.26,0,0,1,.26-.26h4.61a.26.26,0,0,1,.26.26h0A.26.26,0,0,1,96.45,326.37Z"/><path class="cls-5" d="M58.08,65.41h1l.83,2.29.84-2.29h1l-1.15,3,1,2.48,2.1-5.52h1.17L62.1,72.14h-.91l-1.26-3-1.27,3h-.91L55,65.38h1.16l2.12,5.52,1-2.48Z"/><path class="cls-5" d="M65.56,66.34V65.19h1v1.15Zm0,5.8v-5h1v5Z"/><path class="cls-5" d="M72.33,72.14h-1V69.35a1.8,1.8,0,0,0-.22-1A.76.76,0,0,0,70.4,68a1.25,1.25,0,0,0-.46.09,1.31,1.31,0,0,0-.43.24,2.11,2.11,0,0,0-.36.37,1.89,1.89,0,0,0-.24.47v3h-1v-5h1v1a2,2,0,0,1,.82-.79,2.48,2.48,0,0,1,1.2-.29,1.48,1.48,0,0,1,.74.16,1.19,1.19,0,0,1,.45.44,1.86,1.86,0,0,1,.23.65,3.8,3.8,0,0,1,.07.77Z"/><path class="cls-5" d="M78.16,72.24A2.61,2.61,0,0,1,77.1,72a2.33,2.33,0,0,1-.81-.55,2.63,2.63,0,0,1-.53-.82,2.72,2.72,0,0,1-.18-1,2.81,2.81,0,0,1,.18-1,2.67,2.67,0,0,1,.53-.83,2.35,2.35,0,0,1,.81-.56,2.62,2.62,0,0,1,1.07-.2,2.54,2.54,0,0,1,1.85.76,2.15,2.15,0,0,1,.51.81,2.65,2.65,0,0,1,.18,1,1.34,1.34,0,0,1,0,.21c0,.07,0,.13,0,.17h-4a1.66,1.66,0,0,0,.16.6,1.39,1.39,0,0,0,.33.46,1.46,1.46,0,0,0,1.43.35,1.26,1.26,0,0,0,.38-.15,1.76,1.76,0,0,0,.3-.24,1.11,1.11,0,0,0,.21-.32l.9.26a2.11,2.11,0,0,1-.86.92A2.6,2.6,0,0,1,78.16,72.24Zm1.51-3a1.56,1.56,0,0,0-.16-.58,1.52,1.52,0,0,0-.32-.46,1.61,1.61,0,0,0-.47-.29,1.54,1.54,0,0,0-.56-.1,1.5,1.5,0,0,0-.56.1,1.56,1.56,0,0,0-.46.29,1.52,1.52,0,0,0-.32.46,1.56,1.56,0,0,0-.16.58Z"/><path class="cls-5" d="M81.94,67.16l1.22,1.71.08.16.09-.16,1.21-1.71h1.09l-1.82,2.5,1.84,2.48H84.56l-1.23-1.69-.09-.16-.08.16-1.23,1.69h-1.1l1.84-2.48-1.82-2.5Z"/><path class="cls-5" d="M85.82,69.65a2.72,2.72,0,0,1,.18-1,2.67,2.67,0,0,1,.52-.82,2.49,2.49,0,0,1,.82-.56,2.62,2.62,0,0,1,1.07-.2,2.54,2.54,0,0,1,1.32.33,2.2,2.2,0,0,1,.84.9l-1,.33A1.34,1.34,0,0,0,88.39,68a1.46,1.46,0,0,0-1.06.47A1.87,1.87,0,0,0,87,69a2.06,2.06,0,0,0-.11.68,1.85,1.85,0,0,0,.12.67,1.93,1.93,0,0,0,.32.54,1.48,1.48,0,0,0,.48.35,1.27,1.27,0,0,0,.58.13,1.28,1.28,0,0,0,.38,0,1,1,0,0,0,.34-.15,1,1,0,0,0,.28-.22.87.87,0,0,0,.18-.26l1,.3a2,2,0,0,1-.82.92,2.57,2.57,0,0,1-1.37.36A2.61,2.61,0,0,1,87.35,72a2.52,2.52,0,0,1-.82-.57,2.6,2.6,0,0,1-.52-.82A2.72,2.72,0,0,1,85.82,69.65Z"/><path class="cls-5" d="M91.47,66.34V65.19h1v1.15Zm0,5.8v-5h1v5Z"/><path class="cls-5" d="M96.55,71.89,96,72.1a2.37,2.37,0,0,1-.76.12,1.39,1.39,0,0,1-.46-.07,1,1,0,0,1-.39-.2.85.85,0,0,1-.26-.35,1.13,1.13,0,0,1-.1-.51V68h-.65v-.81H94V65.52h1v1.64h1.09V68H95.08v2.78a.51.51,0,0,0,.17.39.56.56,0,0,0,.36.12,1.16,1.16,0,0,0,.42-.08l.3-.12Z"/><path class="cls-5" d="M97.27,66.34V65.19h1v1.15Zm0,5.8v-5h1v5Z"/><path class="cls-5" d="M104,72.14h-1V69.35a1.79,1.79,0,0,0-.23-1,.76.76,0,0,0-.66-.32,1.25,1.25,0,0,0-.46.09,1.42,1.42,0,0,0-.43.24,1.76,1.76,0,0,0-.35.37,1.63,1.63,0,0,0-.25.47v3h-1v-5h1v1a2,2,0,0,1,.83-.79,2.42,2.42,0,0,1,1.2-.29,1.46,1.46,0,0,1,.73.16,1.19,1.19,0,0,1,.45.44,2.09,2.09,0,0,1,.24.65,4.72,4.72,0,0,1,.06.77Z"/><path class="cls-5" d="M107.23,72.19a2.17,2.17,0,0,1-.92-.2,2.33,2.33,0,0,1-.72-.56,2.73,2.73,0,0,1-.47-.81,3,3,0,0,1,0-2,2.55,2.55,0,0,1,.47-.82,2.46,2.46,0,0,1,.73-.55,2.09,2.09,0,0,1,.94-.2,1.92,1.92,0,0,1,1,.28,2.52,2.52,0,0,1,.75.74v-.94H110V72a2.12,2.12,0,0,1-.2,1,2,2,0,0,1-.55.71,2.54,2.54,0,0,1-.85.44,3.19,3.19,0,0,1-1,.16A3.08,3.08,0,0,1,106,74a2.59,2.59,0,0,1-.92-.79l.59-.55a1.92,1.92,0,0,0,.74.61,2.25,2.25,0,0,0,1,.21,2,2,0,0,0,.61-.09,1.56,1.56,0,0,0,.51-.27,1.3,1.3,0,0,0,.35-.45A1.69,1.69,0,0,0,109,72v-.76a1.85,1.85,0,0,1-.74.7A2,2,0,0,1,107.23,72.19Zm.34-.85a1.17,1.17,0,0,0,.46-.08,1.62,1.62,0,0,0,.41-.22,1.57,1.57,0,0,0,.32-.31,1.35,1.35,0,0,0,.19-.38v-1.3a2.09,2.09,0,0,0-.25-.44,1.56,1.56,0,0,0-.35-.33,1.86,1.86,0,0,0-.41-.23,1.41,1.41,0,0,0-.44-.08,1.29,1.29,0,0,0-.62.15,1.57,1.57,0,0,0-.46.39,1.7,1.7,0,0,0-.29.55,1.9,1.9,0,0,0-.11.63,1.73,1.73,0,0,0,.12.64,1.65,1.65,0,0,0,.33.52,1.6,1.6,0,0,0,.49.36A1.39,1.39,0,0,0,107.57,71.34Z"/><path class="cls-5" d="M118.47,71.3a2.64,2.64,0,0,1-2,.89,2.83,2.83,0,0,1-1.26-.28,3.28,3.28,0,0,1-1-.76,3.61,3.61,0,0,1-.67-1.1,3.68,3.68,0,0,1-.24-1.32,3.55,3.55,0,0,1,.91-2.39,3.43,3.43,0,0,1,1-.74,3,3,0,0,1,1.29-.27,3.08,3.08,0,0,1,1.63.41,2.75,2.75,0,0,1,1,1.07l-.82.59a1.94,1.94,0,0,0-.77-.83,2.14,2.14,0,0,0-1.06-.27,1.8,1.8,0,0,0-.87.2A2.34,2.34,0,0,0,115,67a2.6,2.6,0,0,0-.42.79,2.92,2.92,0,0,0-.15.93,2.73,2.73,0,0,0,.17,1,2.33,2.33,0,0,0,.46.78,2,2,0,0,0,.69.53,1.91,1.91,0,0,0,.86.2,2.16,2.16,0,0,0,1-.24,3,3,0,0,0,.9-.75v-.73h-1.42v-.79h2.31v3.42h-.89Z"/><path class="cls-5" d="M120.45,66.34V65.19h1v1.15Zm0,5.8v-5h1v5Z"/><path class="cls-5" d="M123,72.14v-4h-.67v-.81H123v-.2a2.23,2.23,0,0,1,.43-1.46,1.38,1.38,0,0,1,1.16-.53,2.06,2.06,0,0,1,.6.08,2.25,2.25,0,0,1,.56.22l-.23.78a1.26,1.26,0,0,0-.33-.14,1.31,1.31,0,0,0-.38-.06.64.64,0,0,0-.57.28,1.37,1.37,0,0,0-.19.8v.23h1.27v.81h-1.27v4Z"/><path class="cls-5" d="M128.92,71.89l-.56.21a2.27,2.27,0,0,1-.75.12,1.39,1.39,0,0,1-.46-.07,1,1,0,0,1-.39-.2.85.85,0,0,1-.26-.35,1.13,1.13,0,0,1-.1-.51V68h-.65v-.81h.65V65.52h1v1.64h1.09V68h-1.09v2.78a.51.51,0,0,0,.17.39.54.54,0,0,0,.36.12,1.16,1.16,0,0,0,.42-.08l.3-.12Z"/><path class="cls-5" d="M137.68,65.38v6.76H136.6v-3h-3.41v3h-1.06V65.38h1.06v2.83h3.41V65.38Z"/><path class="cls-5" d="M140.34,72.24a1.85,1.85,0,0,1-.67-.12,1.69,1.69,0,0,1-.53-.33,1.37,1.37,0,0,1-.35-.5,1.39,1.39,0,0,1-.13-.61,1.34,1.34,0,0,1,.15-.64,1.57,1.57,0,0,1,.43-.5,2,2,0,0,1,.67-.32,2.86,2.86,0,0,1,.85-.12,4.05,4.05,0,0,1,.7.07,3.5,3.5,0,0,1,.62.16V69a1.14,1.14,0,0,0-.32-.86,1.22,1.22,0,0,0-.9-.31,2.17,2.17,0,0,0-.79.15,3.81,3.81,0,0,0-.79.42l-.33-.67a3.54,3.54,0,0,1,2-.64,2.27,2.27,0,0,1,1.6.52,1.94,1.94,0,0,1,.58,1.5v1.8c0,.23.09.34.27.35v.89l-.26,0h-.22a.68.68,0,0,1-.47-.15.62.62,0,0,1-.2-.39l0-.32a2.12,2.12,0,0,1-.82.67A2.39,2.39,0,0,1,140.34,72.24Zm.29-.77a2,2,0,0,0,.72-.14,1.25,1.25,0,0,0,.53-.39.48.48,0,0,0,.2-.36v-.66a3.41,3.41,0,0,0-.57-.16,3,3,0,0,0-.59-.06A1.58,1.58,0,0,0,140,70a.73.73,0,0,0-.36.64.8.8,0,0,0,.27.62A1,1,0,0,0,140.63,71.47Z"/><path class="cls-5" d="M152,72.14h-1V69.35a1.75,1.75,0,0,0-.23-1,.76.76,0,0,0-.66-.32,1.21,1.21,0,0,0-.82.33,1.9,1.9,0,0,0-.53.85v3h-1V69.35a1.79,1.79,0,0,0-.23-1,.76.76,0,0,0-.66-.32,1.25,1.25,0,0,0-.82.32,1.82,1.82,0,0,0-.53.85v3h-1.05v-5h1v1a2.07,2.07,0,0,1,.78-.8,2.12,2.12,0,0,1,1.1-.28,1.4,1.4,0,0,1,1,.32,1.47,1.47,0,0,1,.44.81,2.21,2.21,0,0,1,.79-.84,2,2,0,0,1,1.08-.29,1.44,1.44,0,0,1,.73.16,1.27,1.27,0,0,1,.47.45,1.73,1.73,0,0,1,.23.64,3.8,3.8,0,0,1,.07.77Z"/><path class="cls-5" d="M156.05,72.24A2,2,0,0,1,155,72a2.12,2.12,0,0,1-.72-.74v3h-1.05v-7h.92v.9a2.21,2.21,0,0,1,.74-.72,2,2,0,0,1,1-.26,2.12,2.12,0,0,1,.94.21,2.38,2.38,0,0,1,.74.56,2.59,2.59,0,0,1,.49.82,2.67,2.67,0,0,1,.18,1,3.29,3.29,0,0,1-.16,1,2.61,2.61,0,0,1-.46.82,2.19,2.19,0,0,1-.7.55A1.91,1.91,0,0,1,156.05,72.24Zm-.34-.9a1.33,1.33,0,0,0,.6-.14,1.57,1.57,0,0,0,.47-.38,1.78,1.78,0,0,0,.3-.54,2,2,0,0,0,.1-.63,1.75,1.75,0,0,0-.12-.65,1.67,1.67,0,0,0-.32-.53,1.48,1.48,0,0,0-.49-.37,1.6,1.6,0,0,0-.62-.13,1.35,1.35,0,0,0-.42.08,1.59,1.59,0,0,0-.41.21,1.4,1.4,0,0,0-.33.31.82.82,0,0,0-.2.38v1.31a2,2,0,0,0,.24.43,2.73,2.73,0,0,0,.34.34,2.06,2.06,0,0,0,.41.23A1.33,1.33,0,0,0,155.71,71.34Z"/><path class="cls-5" d="M161.46,72.24A2.61,2.61,0,0,1,160.4,72a2.33,2.33,0,0,1-.81-.55,2.63,2.63,0,0,1-.53-.82,2.72,2.72,0,0,1-.18-1,2.81,2.81,0,0,1,.18-1,2.67,2.67,0,0,1,.53-.83,2.35,2.35,0,0,1,.81-.56,2.62,2.62,0,0,1,1.07-.2,2.59,2.59,0,0,1,1.05.21,2.53,2.53,0,0,1,.8.55,2.15,2.15,0,0,1,.51.81,2.65,2.65,0,0,1,.18,1,1.34,1.34,0,0,1,0,.21c0,.07,0,.13,0,.17h-4a1.66,1.66,0,0,0,.16.6,1.39,1.39,0,0,0,.33.46,1.45,1.45,0,0,0,.47.3,1.42,1.42,0,0,0,.55.11,1.51,1.51,0,0,0,.41-.06,1.26,1.26,0,0,0,.38-.15,1.76,1.76,0,0,0,.3-.24,1.11,1.11,0,0,0,.21-.32l.89.26a2,2,0,0,1-.85.92A2.6,2.6,0,0,1,161.46,72.24Zm1.51-3a1.56,1.56,0,0,0-.16-.58,1.52,1.52,0,0,0-.32-.46A1.61,1.61,0,0,0,162,68a1.54,1.54,0,0,0-.56-.1,1.47,1.47,0,0,0-.56.1,1.44,1.44,0,0,0-.46.29,1.54,1.54,0,0,0-.33.46,1.77,1.77,0,0,0-.15.58Z"/><path class="cls-5" d="M167.67,68.07a2.29,2.29,0,0,0-1.09.28,1.49,1.49,0,0,0-.67.75v3h-1v-5h1v1.12a2.22,2.22,0,0,1,.67-.83,1.69,1.69,0,0,1,.89-.34h.27Z"/><path class="cls-5" d="M170.24,72.24A3.87,3.87,0,0,1,169,72a2.94,2.94,0,0,1-1-.55l.42-.67a4.11,4.11,0,0,0,.88.49,2.52,2.52,0,0,0,.9.17,1.27,1.27,0,0,0,.74-.19.58.58,0,0,0,.27-.51.48.48,0,0,0-.31-.46A6.19,6.19,0,0,0,170,70c-.31-.08-.58-.16-.8-.24a1.7,1.7,0,0,1-.54-.27.94.94,0,0,1-.31-.35,1.14,1.14,0,0,1-.09-.48,1.48,1.48,0,0,1,.15-.68,1.39,1.39,0,0,1,.4-.5,1.81,1.81,0,0,1,.62-.31,2.64,2.64,0,0,1,.76-.1,3,3,0,0,1,1.05.17,2.87,2.87,0,0,1,.87.49l-.45.63a2.35,2.35,0,0,0-1.48-.55,1.17,1.17,0,0,0-.67.17.56.56,0,0,0-.27.52.5.5,0,0,0,.06.26.44.44,0,0,0,.18.18,1.72,1.72,0,0,0,.33.14l.51.14a8.12,8.12,0,0,1,.88.25,2.4,2.4,0,0,1,.6.29,1,1,0,0,1,.35.39,1.12,1.12,0,0,1,.12.53,1.34,1.34,0,0,1-.54,1.13A2.32,2.32,0,0,1,170.24,72.24Z"/><path class="cls-5" d="M173.35,69.73V65.31h1.05v4.42Zm0,2.41v-1.3h1.05v1.3Z"/><path class="cls-5" d="M117,83.57l-.62-.65a3.25,3.25,0,0,1-.92.56,3,3,0,0,1-1,.19,2.67,2.67,0,0,1-.91-.16,2.31,2.31,0,0,1-.7-.41,1.86,1.86,0,0,1-.46-.62,1.79,1.79,0,0,1-.16-.76,1.72,1.72,0,0,1,.1-.6,2.49,2.49,0,0,1,.27-.51,2.79,2.79,0,0,1,.4-.44,4.37,4.37,0,0,1,.48-.37c-.15-.16-.27-.31-.37-.44a2.36,2.36,0,0,1-.24-.38,1.58,1.58,0,0,1-.13-.34,1.29,1.29,0,0,1,0-.35,1.48,1.48,0,0,1,.13-.63,1.7,1.7,0,0,1,.38-.5,1.59,1.59,0,0,1,.57-.32,2,2,0,0,1,.71-.12,2,2,0,0,1,.65.1,1.71,1.71,0,0,1,.56.27,1.5,1.5,0,0,1,.37.46,1.34,1.34,0,0,1,.14.61,1.32,1.32,0,0,1-.1.53,2.68,2.68,0,0,1-.27.45,3.17,3.17,0,0,1-.41.41,5,5,0,0,1-.5.37l1.53,1.6a3.22,3.22,0,0,0,.25-.72,3.55,3.55,0,0,0,.09-.82h.86a5,5,0,0,1-.16,1.2,4.15,4.15,0,0,1-.43,1l1.35,1.41Zm-2.47-.73a1.76,1.76,0,0,0,.68-.14,2.07,2.07,0,0,0,.61-.38L114,80.47a2.89,2.89,0,0,0-.62.58,1.07,1.07,0,0,0-.24.68.93.93,0,0,0,.1.45,1,1,0,0,0,.29.35,1.61,1.61,0,0,0,.43.23A1.7,1.7,0,0,0,114.51,82.84Zm-.91-4.57a.57.57,0,0,0,0,.18,1,1,0,0,0,.1.21,1.28,1.28,0,0,0,.2.25c.08.1.19.22.32.36a4.38,4.38,0,0,0,.69-.53.82.82,0,0,0,.25-.56.6.6,0,0,0-.22-.49.81.81,0,0,0-.54-.19.83.83,0,0,0-.6.23A.74.74,0,0,0,113.6,78.27Z"/><path class="cls-5" d="M18.44,94.16a2.68,2.68,0,0,1-2,.89,3,3,0,0,1-1.26-.28,3.24,3.24,0,0,1-1-.76,3.68,3.68,0,0,1-.68-1.11,3.7,3.7,0,0,1,0-2.62,3.54,3.54,0,0,1,.68-1.08,3,3,0,0,1,2.3-1,3.05,3.05,0,0,1,1.63.4,2.57,2.57,0,0,1,1,1.08l-.82.59a1.86,1.86,0,0,0-.76-.83,2.09,2.09,0,0,0-1.07-.28,1.77,1.77,0,0,0-.86.21,1.86,1.86,0,0,0-.67.54,2.37,2.37,0,0,0-.43.78,3.24,3.24,0,0,0-.14.94,2.76,2.76,0,0,0,.16,1,2.51,2.51,0,0,0,.46.78,2.12,2.12,0,0,0,.69.53,2,2,0,0,0,.87.19,2.24,2.24,0,0,0,1-.23,2.73,2.73,0,0,0,.9-.76v-.72H17v-.79h2.32V95h-.9Z"/><path class="cls-5" d="M22.68,95.09a2.6,2.6,0,0,1-1.06-.2,2.45,2.45,0,0,1-.81-.56,2.34,2.34,0,0,1-.52-.82,2.67,2.67,0,0,1,0-2,2.38,2.38,0,0,1,.52-.83,2.31,2.31,0,0,1,.81-.56,2.65,2.65,0,0,1,1.07-.21,2.52,2.52,0,0,1,1,.21,2.49,2.49,0,0,1,.81.56,2.42,2.42,0,0,1,.51.81,2.87,2.87,0,0,1,.17,1,1.48,1.48,0,0,1,0,.21.79.79,0,0,1,0,.17h-4a1.89,1.89,0,0,0,.16.6,1.92,1.92,0,0,0,.33.46,1.57,1.57,0,0,0,.47.3,1.49,1.49,0,0,0,.55.1,1.4,1.4,0,0,0,.41,0,1.58,1.58,0,0,0,.38-.15,1.76,1.76,0,0,0,.3-.24,1.26,1.26,0,0,0,.21-.32l.9.26a2.14,2.14,0,0,1-.85.92A2.73,2.73,0,0,1,22.68,95.09Zm1.51-3a1.6,1.6,0,0,0-.15-.58,1.54,1.54,0,0,0-.33-.45,1.49,1.49,0,0,0-.47-.29,1.48,1.48,0,0,0-1.12,0,1.56,1.56,0,0,0-.46.29,1.36,1.36,0,0,0-.32.45,1.42,1.42,0,0,0-.15.58Z"/><path class="cls-5" d="M28.82,94.74a3.64,3.64,0,0,1-.55.22,2.27,2.27,0,0,1-.75.11,1.78,1.78,0,0,1-.47-.06,1.25,1.25,0,0,1-.38-.2,1.06,1.06,0,0,1-.27-.35,1.35,1.35,0,0,1-.09-.52V90.83h-.66V90h.66V88.38h1.05V90h1.08v.81H27.36v2.78a.48.48,0,0,0,.16.38.57.57,0,0,0,.37.12,1.16,1.16,0,0,0,.42-.07l.29-.13Z"/><path class="cls-5" d="M32.18,95V91h-.66v-.81h.66v-.2a2.33,2.33,0,0,1,.43-1.46A1.44,1.44,0,0,1,33.78,88a2.47,2.47,0,0,1,.6.08,3,3,0,0,1,.56.23l-.23.78a1.52,1.52,0,0,0-.34-.15,1.73,1.73,0,0,0-.38,0,.65.65,0,0,0-.56.27,1.39,1.39,0,0,0-.2.8v.23h1.28V91H33.23v4Z"/><path class="cls-5" d="M37.3,95.09a2.6,2.6,0,0,1-1.06-.2,2.35,2.35,0,0,1-.81-.56,2.52,2.52,0,0,1-.53-.82,2.81,2.81,0,0,1,0-2,2.56,2.56,0,0,1,.53-.83,2.22,2.22,0,0,1,.81-.56,2.62,2.62,0,0,1,1.07-.21,2.52,2.52,0,0,1,1,.21,2.73,2.73,0,0,1,.81.56,2.25,2.25,0,0,1,.5.81,2.65,2.65,0,0,1,.18,1,1.48,1.48,0,0,1,0,.21c0,.07,0,.12,0,.17h-4a1.66,1.66,0,0,0,.16.6,1.92,1.92,0,0,0,.33.46,1.55,1.55,0,0,0,1.43.35,1.58,1.58,0,0,0,.38-.15,1.76,1.76,0,0,0,.3-.24,1.26,1.26,0,0,0,.21-.32l.9.26a2.1,2.1,0,0,1-.86.92A2.67,2.67,0,0,1,37.3,95.09Zm1.51-3a1.84,1.84,0,0,0-.15-.58,1.54,1.54,0,0,0-.33-.45,1.61,1.61,0,0,0-.47-.29,1.48,1.48,0,0,0-1.12,0,1.56,1.56,0,0,0-.46.29,1.36,1.36,0,0,0-.32.45,1.61,1.61,0,0,0-.16.58Z"/><path class="cls-5" d="M42,95.09a1.85,1.85,0,0,1-.67-.12,1.42,1.42,0,0,1-.53-.32,1.64,1.64,0,0,1-.36-.5,1.59,1.59,0,0,1-.12-.62,1.37,1.37,0,0,1,.15-.64,1.43,1.43,0,0,1,.43-.49,2.21,2.21,0,0,1,.67-.33,3.24,3.24,0,0,1,.85-.11,4,4,0,0,1,.7.06,3.38,3.38,0,0,1,.61.17v-.34a1.17,1.17,0,0,0-.31-.87,1.26,1.26,0,0,0-.9-.31,2.17,2.17,0,0,0-.79.15,3.94,3.94,0,0,0-.8.43l-.32-.67a3.55,3.55,0,0,1,2-.65,2.27,2.27,0,0,1,1.6.53,1.94,1.94,0,0,1,.57,1.5v1.8c0,.22.09.34.28.34V95l-.26,0h-.22a.64.64,0,0,1-.47-.16.62.62,0,0,1-.2-.39l0-.31a2.16,2.16,0,0,1-.83.67A2.31,2.31,0,0,1,42,95.09Zm.29-.77a1.78,1.78,0,0,0,.72-.14,1.22,1.22,0,0,0,.52-.38.48.48,0,0,0,.2-.36v-.66a3.33,3.33,0,0,0-1.15-.22,1.63,1.63,0,0,0-.92.24.77.77,0,0,0-.35.65.83.83,0,0,0,.27.62A1,1,0,0,0,42.32,94.32Z"/><path class="cls-5" d="M48.81,94.74a4.14,4.14,0,0,1-.55.22,2.35,2.35,0,0,1-.75.11A1.78,1.78,0,0,1,47,95a1.15,1.15,0,0,1-.38-.2.94.94,0,0,1-.27-.35,1.35,1.35,0,0,1-.09-.52V90.83h-.66V90h.66V88.38h1.05V90h1.08v.81H47.35v2.78a.48.48,0,0,0,.16.38.57.57,0,0,0,.37.12A1.23,1.23,0,0,0,48.3,94l.29-.13Z"/><path class="cls-5" d="M51.07,95.09a1.4,1.4,0,0,1-1.18-.51,2.39,2.39,0,0,1-.4-1.51V90h1v2.84c0,.89.31,1.34,1,1.34a1.44,1.44,0,0,0,.85-.28,1.82,1.82,0,0,0,.62-.8V90h1v3.74a.43.43,0,0,0,.06.26.3.3,0,0,0,.23.08V95L54,95h-.2a.77.77,0,0,1-.48-.16.49.49,0,0,1-.21-.41l0-.49a2.2,2.2,0,0,1-.87.82A2.46,2.46,0,0,1,51.07,95.09Z"/><path class="cls-5" d="M58.14,90.92a2.55,2.55,0,0,0-1.09.28,1.57,1.57,0,0,0-.67.75v3h-1V90h1v1.11a2.18,2.18,0,0,1,.67-.82,1.59,1.59,0,0,1,.89-.34h.27Z"/><path class="cls-5" d="M60.91,95.09a2.6,2.6,0,0,1-1.06-.2,2.35,2.35,0,0,1-.81-.56,2.52,2.52,0,0,1-.53-.82,2.81,2.81,0,0,1,0-2A2.56,2.56,0,0,1,59,90.7a2.22,2.22,0,0,1,.81-.56,2.62,2.62,0,0,1,1.07-.21,2.59,2.59,0,0,1,1,.21,2.56,2.56,0,0,1,.8.56,2.15,2.15,0,0,1,.51.81,2.65,2.65,0,0,1,.18,1,1.48,1.48,0,0,1,0,.21c0,.07,0,.12,0,.17h-4a1.66,1.66,0,0,0,.16.6,1.5,1.5,0,0,0,.33.46,1.45,1.45,0,0,0,.47.3,1.42,1.42,0,0,0,.55.1,1.48,1.48,0,0,0,.41,0,1.58,1.58,0,0,0,.38-.15,1.76,1.76,0,0,0,.3-.24,1.26,1.26,0,0,0,.21-.32l.89.26a2.08,2.08,0,0,1-.85.92A2.69,2.69,0,0,1,60.91,95.09Zm1.51-3a1.61,1.61,0,0,0-.16-.58,1.36,1.36,0,0,0-.32-.45,1.61,1.61,0,0,0-.47-.29,1.55,1.55,0,0,0-.56-.11,1.47,1.47,0,0,0-.56.11,1.44,1.44,0,0,0-.46.29,1.38,1.38,0,0,0-.33.45,1.84,1.84,0,0,0-.15.58Z"/><path class="cls-5" d="M66.34,95.09a2.1,2.1,0,0,1-.93-.2,2.38,2.38,0,0,1-.74-.56,2.42,2.42,0,0,1-.49-.82,2.84,2.84,0,0,1-.18-1,2.93,2.93,0,0,1,.17-1,2.85,2.85,0,0,1,.46-.82,2.23,2.23,0,0,1,.71-.55,1.91,1.91,0,0,1,.89-.21,2,2,0,0,1,1.06.29A2.18,2.18,0,0,1,68,91V88.05h1v5.71a.43.43,0,0,0,.06.26.28.28,0,0,0,.22.08V95l-.26,0h-.16a.81.81,0,0,1-.52-.17.58.58,0,0,1-.22-.41l0-.38a2,2,0,0,1-.75.74A2.22,2.22,0,0,1,66.34,95.09Zm.26-.89a1.48,1.48,0,0,0,.46-.08,1.65,1.65,0,0,0,.42-.21,1.93,1.93,0,0,0,.33-.31,1.18,1.18,0,0,0,.19-.39V91.9a1.64,1.64,0,0,0-.24-.43,1.7,1.7,0,0,0-.36-.35A1.68,1.68,0,0,0,67,90.9a1.41,1.41,0,0,0-.45-.07A1.24,1.24,0,0,0,66,91a1.38,1.38,0,0,0-.45.38,1.78,1.78,0,0,0-.3.54,1.84,1.84,0,0,0,0,1.28,1.69,1.69,0,0,0,.33.53,1.35,1.35,0,0,0,.48.37A1.41,1.41,0,0,0,66.6,94.2Z"/><path class="cls-5" d="M75,95.09a2.57,2.57,0,0,1-1.06-.21,2.41,2.41,0,0,1-.8-.56,2.34,2.34,0,0,1-.52-.82,2.76,2.76,0,0,1-.18-1,2.7,2.7,0,0,1,.18-1,2.38,2.38,0,0,1,.52-.83,2.73,2.73,0,0,1,.81-.56,2.73,2.73,0,0,1,2.1,0,2.49,2.49,0,0,1,.81.56,2.38,2.38,0,0,1,.52.83,2.7,2.7,0,0,1,.18,1,2.76,2.76,0,0,1-.18,1A2.46,2.46,0,0,1,76,94.88,2.52,2.52,0,0,1,75,95.09Zm-1.48-2.57a1.81,1.81,0,0,0,.11.67,1.67,1.67,0,0,0,.32.53,1.48,1.48,0,0,0,.47.35,1.27,1.27,0,0,0,.58.13,1.31,1.31,0,0,0,.59-.13,1.38,1.38,0,0,0,.47-.36,1.65,1.65,0,0,0,.31-.53,1.81,1.81,0,0,0,.12-.67,1.84,1.84,0,0,0-.12-.66,1.81,1.81,0,0,0-.31-.54,1.35,1.35,0,0,0-.47-.35,1.31,1.31,0,0,0-.59-.13,1.25,1.25,0,0,0-.57.13,1.55,1.55,0,0,0-.48.36,1.69,1.69,0,0,0-.31.54A1.84,1.84,0,0,0,73.49,92.52Z"/><path class="cls-5" d="M82.93,95h-1V92.21a1.85,1.85,0,0,0-.23-1,.76.76,0,0,0-.66-.31,1.28,1.28,0,0,0-.46.08,1.76,1.76,0,0,0-.42.24,2,2,0,0,0-.61.85v3h-1V90h1v1a2.07,2.07,0,0,1,.83-.8,2.53,2.53,0,0,1,1.2-.29,1.55,1.55,0,0,1,.73.16,1.21,1.21,0,0,1,.45.45,1.81,1.81,0,0,1,.24.64,4.93,4.93,0,0,1,.06.78Z"/><path class="cls-5" d="M88.74,95.09a2.61,2.61,0,0,1-1.06-.21,2.41,2.41,0,0,1-.8-.56,2.34,2.34,0,0,1-.52-.82,2.76,2.76,0,0,1-.18-1,2.7,2.7,0,0,1,.18-1,2.54,2.54,0,0,1,.52-.83,2.73,2.73,0,0,1,.81-.56,2.56,2.56,0,0,1,1-.21,2.52,2.52,0,0,1,1.05.21,2.49,2.49,0,0,1,.81.56,2.38,2.38,0,0,1,.52.83,2.7,2.7,0,0,1,.18,1,2.76,2.76,0,0,1-.18,1,2.46,2.46,0,0,1-1.33,1.38A2.52,2.52,0,0,1,88.74,95.09Zm-1.48-2.57a1.81,1.81,0,0,0,.11.67,1.67,1.67,0,0,0,.32.53,1.48,1.48,0,0,0,.47.35,1.27,1.27,0,0,0,.58.13,1.31,1.31,0,0,0,.59-.13,1.38,1.38,0,0,0,.47-.36,1.65,1.65,0,0,0,.31-.53,1.81,1.81,0,0,0,.12-.67,1.84,1.84,0,0,0-.12-.66,1.81,1.81,0,0,0-.31-.54,1.35,1.35,0,0,0-.47-.35,1.31,1.31,0,0,0-.59-.13,1.25,1.25,0,0,0-.57.13,1.51,1.51,0,0,0-.47.36,1.72,1.72,0,0,0-.32.54A1.84,1.84,0,0,0,87.26,92.52Z"/><path class="cls-5" d="M93.77,95.09a1.41,1.41,0,0,1-1.18-.51,2.39,2.39,0,0,1-.4-1.51V90h1v2.84c0,.89.32,1.34,1,1.34a1.44,1.44,0,0,0,.85-.28,1.82,1.82,0,0,0,.62-.8V90h1v3.74a.37.37,0,0,0,.07.26.27.27,0,0,0,.22.08V95l-.27,0h-.2a.77.77,0,0,1-.48-.16.49.49,0,0,1-.21-.41l0-.49a2.14,2.14,0,0,1-.87.82A2.41,2.41,0,0,1,93.77,95.09Z"/><path class="cls-5" d="M100.84,90.92a2.46,2.46,0,0,0-1.08.28,1.54,1.54,0,0,0-.68.75v3H98V90h1v1.11a2.18,2.18,0,0,1,.67-.82,1.61,1.61,0,0,1,.89-.34h.27Z"/><path class="cls-5" d="M109.67,90h1l-2.09,5h-.87l-.92-2.32L105.87,95H105l-2.11-5h1l1.61,4,.73-1.85L105.36,90h.86l.57,1.56.56-1.56h.86l-.86,2.11.73,1.85Z"/><path class="cls-5" d="M113.45,95.09a2.6,2.6,0,0,1-1.06-.2,2.52,2.52,0,0,1-1.34-1.38,2.81,2.81,0,0,1,0-2,2.41,2.41,0,0,1,.53-.83,2.22,2.22,0,0,1,.81-.56,2.62,2.62,0,0,1,1.07-.21,2.59,2.59,0,0,1,1.05.21,2.56,2.56,0,0,1,.8.56,2.15,2.15,0,0,1,.51.81,2.65,2.65,0,0,1,.18,1,1.48,1.48,0,0,1,0,.21c0,.07,0,.12,0,.17h-4a1.66,1.66,0,0,0,.16.6,1.5,1.5,0,0,0,.33.46,1.45,1.45,0,0,0,.47.3,1.4,1.4,0,0,0,.54.1,1.51,1.51,0,0,0,.42,0,1.37,1.37,0,0,0,.37-.15,1.5,1.5,0,0,0,.31-.24,1.26,1.26,0,0,0,.21-.32l.89.26a2.08,2.08,0,0,1-.85.92A2.72,2.72,0,0,1,113.45,95.09Zm1.51-3a1.61,1.61,0,0,0-.16-.58,1.25,1.25,0,0,0-.33-.45,1.44,1.44,0,0,0-.46-.29,1.55,1.55,0,0,0-.56-.11,1.47,1.47,0,0,0-.56.11,1.44,1.44,0,0,0-.46.29,1.38,1.38,0,0,0-.33.45,1.84,1.84,0,0,0-.15.58Z"/><path class="cls-5" d="M119.54,95.09a2,2,0,0,1-1-.27,2,2,0,0,1-.73-.73V95h-.92v-7h1V91a2.31,2.31,0,0,1,.74-.75,1.88,1.88,0,0,1,1-.28,1.86,1.86,0,0,1,.91.22,2.25,2.25,0,0,1,.7.57,2.76,2.76,0,0,1,.45.83,3.19,3.19,0,0,1,.15,1,2.75,2.75,0,0,1-.67,1.82,2.25,2.25,0,0,1-.75.54A2.1,2.1,0,0,1,119.54,95.09Zm-.28-.89a1.46,1.46,0,0,0,.63-.14,1.38,1.38,0,0,0,.49-.37,1.46,1.46,0,0,0,.32-.52,1.73,1.73,0,0,0,.12-.64,2,2,0,0,0-.11-.64,1.78,1.78,0,0,0-.31-.54,1.53,1.53,0,0,0-.46-.38,1.36,1.36,0,0,0-.6-.14,1.3,1.3,0,0,0-.86.31,2.17,2.17,0,0,0-.58.76v1.32a1.11,1.11,0,0,0,.2.39,1.67,1.67,0,0,0,.34.31,1.44,1.44,0,0,0,.41.21A1.53,1.53,0,0,0,119.26,94.2Z"/><path class="cls-5" d="M124.64,95.09a3.84,3.84,0,0,1-1.19-.19,3,3,0,0,1-1-.56l.41-.67a4.23,4.23,0,0,0,.89.5,2.51,2.51,0,0,0,.9.16,1.29,1.29,0,0,0,.73-.18.59.59,0,0,0,.28-.51.48.48,0,0,0-.31-.46,5.25,5.25,0,0,0-1-.31l-.8-.24a2.08,2.08,0,0,1-.54-.27.93.93,0,0,1-.31-.35,1.19,1.19,0,0,1-.09-.49,1.4,1.4,0,0,1,.55-1.17,1.81,1.81,0,0,1,.62-.31,2.63,2.63,0,0,1,.76-.11,3.3,3.3,0,0,1,1.05.17,2.73,2.73,0,0,1,.86.5l-.44.63a2.36,2.36,0,0,0-1.48-.56,1.26,1.26,0,0,0-.67.17.58.58,0,0,0-.27.53.67.67,0,0,0,0,.26.47.47,0,0,0,.19.18,1.72,1.72,0,0,0,.33.14l.51.13c.34.09.63.17.87.25a2.31,2.31,0,0,1,.61.29,1.08,1.08,0,0,1,.35.39,1.13,1.13,0,0,1,.11.54,1.34,1.34,0,0,1-.53,1.13A2.33,2.33,0,0,1,124.64,95.09Z"/><path class="cls-5" d="M127.56,89.2V88.05h1.05V89.2Zm0,5.8V90h1.05v5Z"/><path class="cls-5" d="M132.63,94.74a3.64,3.64,0,0,1-.55.22,2.27,2.27,0,0,1-.75.11,1.78,1.78,0,0,1-.47-.06,1.25,1.25,0,0,1-.38-.2,1.06,1.06,0,0,1-.27-.35,1.35,1.35,0,0,1-.09-.52V90.83h-.66V90h.66V88.38h1V90h1.08v.81h-1.08v2.78a.52.52,0,0,0,.16.38.57.57,0,0,0,.37.12,1.16,1.16,0,0,0,.42-.07l.3-.13Z"/><path class="cls-5" d="M135.49,95.09a2.6,2.6,0,0,1-1.06-.2,2.55,2.55,0,0,1-.81-.56,2.49,2.49,0,0,1-.52-.82,2.69,2.69,0,0,1,.52-2.81,2.4,2.4,0,0,1,.81-.56,2.65,2.65,0,0,1,1.07-.21,2.52,2.52,0,0,1,1.05.21,2.49,2.49,0,0,1,.81.56,2.42,2.42,0,0,1,.51.81,2.64,2.64,0,0,1,.17,1v.21a1.28,1.28,0,0,0,0,.17h-4a1.66,1.66,0,0,0,.15.6,1.72,1.72,0,0,0,.34.46,1.41,1.41,0,0,0,.46.3,1.49,1.49,0,0,0,.55.1,1.4,1.4,0,0,0,.41,0,1.44,1.44,0,0,0,.38-.15,1.83,1.83,0,0,0,.31-.24,1.55,1.55,0,0,0,.2-.32l.9.26a2.14,2.14,0,0,1-.85.92A2.73,2.73,0,0,1,135.49,95.09Zm1.52-3a1.85,1.85,0,0,0-.16-.58,1.54,1.54,0,0,0-.33-.45,1.49,1.49,0,0,0-.47-.29,1.47,1.47,0,0,0-.56-.11,1.51,1.51,0,0,0-.56.11,1.7,1.7,0,0,0-.46.29,1.36,1.36,0,0,0-.32.45,1.84,1.84,0,0,0-.15.58Z"/><path class="cls-5" d="M142.58,95.09a1.78,1.78,0,0,1-.67-.12,1.47,1.47,0,0,1-.89-.82,1.44,1.44,0,0,1-.13-.62,1.37,1.37,0,0,1,.15-.64,1.46,1.46,0,0,1,.44-.49,2.15,2.15,0,0,1,.66-.33A3.26,3.26,0,0,1,143,92a4,4,0,0,1,.69.06,3.27,3.27,0,0,1,.62.17v-.34A1.17,1.17,0,0,0,144,91a1.28,1.28,0,0,0-.91-.31,2.17,2.17,0,0,0-.79.15,3.88,3.88,0,0,0-.79.43l-.32-.67a3.53,3.53,0,0,1,2-.65,2.3,2.3,0,0,1,1.6.53,1.94,1.94,0,0,1,.57,1.5v1.8c0,.22.09.34.27.34V95l-.26,0h-.21a.64.64,0,0,1-.68-.55l0-.31a2.13,2.13,0,0,1-.82.67A2.37,2.37,0,0,1,142.58,95.09Zm.28-.77a1.71,1.71,0,0,0,.72-.14,1.25,1.25,0,0,0,.53-.38.51.51,0,0,0,.2-.36v-.66a3.41,3.41,0,0,0-.57-.16,2.93,2.93,0,0,0-.58-.06,1.61,1.61,0,0,0-.92.24.76.76,0,0,0-.36.65.8.8,0,0,0,.28.62A1,1,0,0,0,142.86,94.32Z"/><path class="cls-5" d="M151.09,95H150V92.21a1.86,1.86,0,0,0-.22-1,.76.76,0,0,0-.66-.31,1.21,1.21,0,0,0-.46.08,1.82,1.82,0,0,0-.43.24,2.18,2.18,0,0,0-.36.38,1.89,1.89,0,0,0-.24.47v3h-1V90h1v1a2,2,0,0,1,.82-.8,2.59,2.59,0,0,1,1.2-.29,1.59,1.59,0,0,1,.74.16,1.21,1.21,0,0,1,.45.45,1.8,1.8,0,0,1,.23.64,4,4,0,0,1,.07.78Z"/><path class="cls-5" d="M154.34,95.09a2.12,2.12,0,0,1-.94-.2,2.38,2.38,0,0,1-.74-.56,2.59,2.59,0,0,1-.49-.82,2.84,2.84,0,0,1-.17-1,2.92,2.92,0,0,1,.16-1,2.66,2.66,0,0,1,.47-.82,2.19,2.19,0,0,1,.7-.55,1.91,1.91,0,0,1,.89-.21,2,2,0,0,1,1.06.29A2.31,2.31,0,0,1,156,91V88.05h1v5.71a.43.43,0,0,0,.06.26.3.3,0,0,0,.23.08V95l-.26,0h-.17a.81.81,0,0,1-.52-.17.54.54,0,0,1-.21-.41l0-.38a2.07,2.07,0,0,1-.76.74A2.18,2.18,0,0,1,154.34,95.09Zm.25-.89a1.44,1.44,0,0,0,.46-.08,1.65,1.65,0,0,0,.42-.21,1.4,1.4,0,0,0,.33-.31,1.2,1.2,0,0,0,.2-.39V91.9a1.43,1.43,0,0,0-.25-.43,1.5,1.5,0,0,0-.36-.35,1.68,1.68,0,0,0-.42-.22,1.41,1.41,0,0,0-.45-.07,1.27,1.27,0,0,0-.58.14,1.63,1.63,0,0,0-.45.38,1.78,1.78,0,0,0-.3.54,2,2,0,0,0-.11.63,1.75,1.75,0,0,0,.12.65,1.69,1.69,0,0,0,.33.53,1.55,1.55,0,0,0,.48.37A1.44,1.44,0,0,0,154.59,94.2Z"/><path class="cls-5" d="M164.86,89.83a1.18,1.18,0,0,0-.28-.23,3,3,0,0,0-1-.39,2.4,2.4,0,0,0-.6-.07,1.57,1.57,0,0,0-1,.25.79.79,0,0,0-.32.69.7.7,0,0,0,.1.4.86.86,0,0,0,.31.28,2.34,2.34,0,0,0,.52.21l.73.19a7.43,7.43,0,0,1,.93.28,2.43,2.43,0,0,1,.7.37,1.48,1.48,0,0,1,.45.54,1.79,1.79,0,0,1,.15.77,1.89,1.89,0,0,1-.19.89,1.56,1.56,0,0,1-.54.6,2.32,2.32,0,0,1-.78.35,4.21,4.21,0,0,1-1,.11,4.65,4.65,0,0,1-1.49-.24,4,4,0,0,1-1.3-.68l.48-.91a2.08,2.08,0,0,0,.36.27,3,3,0,0,0,.54.28,4.38,4.38,0,0,0,.67.22,3.16,3.16,0,0,0,.76.09,1.79,1.79,0,0,0,1-.22.7.7,0,0,0,.34-.64.67.67,0,0,0-.13-.43.94.94,0,0,0-.37-.3,2.67,2.67,0,0,0-.58-.24l-.78-.21a8.26,8.26,0,0,1-.88-.29,1.94,1.94,0,0,1-.62-.35,1.48,1.48,0,0,1-.38-.49,1.75,1.75,0,0,1-.13-.68,2,2,0,0,1,.19-.88,1.85,1.85,0,0,1,.52-.65,2.22,2.22,0,0,1,.78-.4,3.35,3.35,0,0,1,1-.13,3.49,3.49,0,0,1,1.27.22,4.49,4.49,0,0,1,1,.54Z"/><path class="cls-5" d="M168.78,95.09a2.61,2.61,0,0,1-1.06-.21,2.41,2.41,0,0,1-.8-.56,2.49,2.49,0,0,1-.52-.82,2.76,2.76,0,0,1-.18-1,2.7,2.7,0,0,1,.18-1,2.54,2.54,0,0,1,.52-.83,2.73,2.73,0,0,1,.81-.56,2.76,2.76,0,0,1,2.11,0,2.56,2.56,0,0,1,1.51,2.37,2.76,2.76,0,0,1-.18,1,2.67,2.67,0,0,1-.52.82,2.55,2.55,0,0,1-.81.56A2.61,2.61,0,0,1,168.78,95.09Zm-1.48-2.57a2,2,0,0,0,.11.67,1.67,1.67,0,0,0,.32.53,1.48,1.48,0,0,0,.47.35,1.38,1.38,0,0,0,1.17,0,1.38,1.38,0,0,0,.47-.36,1.87,1.87,0,0,0,.32-.53,2,2,0,0,0,.11-.67,1.76,1.76,0,0,0-.43-1.2,1.35,1.35,0,0,0-.47-.35,1.31,1.31,0,0,0-.59-.13,1.25,1.25,0,0,0-.57.13,1.51,1.51,0,0,0-.47.36,1.72,1.72,0,0,0-.32.54A1.84,1.84,0,0,0,167.3,92.52Z"/><path class="cls-5" d="M172,92.5a2.72,2.72,0,0,1,.18-1,2.43,2.43,0,0,1,.52-.82,2.33,2.33,0,0,1,.81-.55,2.62,2.62,0,0,1,1.07-.21,2.45,2.45,0,0,1,1.32.34,2.2,2.2,0,0,1,.84.9l-1,.32a1.28,1.28,0,0,0-.49-.49,1.39,1.39,0,0,0-.67-.17,1.45,1.45,0,0,0-.59.12,1.35,1.35,0,0,0-.47.35,1.55,1.55,0,0,0-.31.53,1.93,1.93,0,0,0,0,1.34,1.8,1.8,0,0,0,.32.54,1.51,1.51,0,0,0,.48.36,1.27,1.27,0,0,0,.58.13,1.73,1.73,0,0,0,.38,0,1.75,1.75,0,0,0,.34-.15,1.24,1.24,0,0,0,.28-.22.8.8,0,0,0,.18-.27l1,.31a2.15,2.15,0,0,1-.83.92,2.66,2.66,0,0,1-1.37.35,2.61,2.61,0,0,1-1.06-.21,2.35,2.35,0,0,1-.81-.56,2.41,2.41,0,0,1-.53-.83A2.72,2.72,0,0,1,172,92.5Z"/><path class="cls-5" d="M177.6,89.2V88.05h1.05V89.2Zm0,5.8V90h1.05v5Z"/><path class="cls-5" d="M181.23,95.09a1.85,1.85,0,0,1-.67-.12,1.35,1.35,0,0,1-.53-.32,1.64,1.64,0,0,1-.36-.5,1.6,1.6,0,0,1-.13-.62,1.38,1.38,0,0,1,.16-.64,1.43,1.43,0,0,1,.43-.49,2.21,2.21,0,0,1,.67-.33,3.18,3.18,0,0,1,.85-.11,3.93,3.93,0,0,1,.69.06,3.27,3.27,0,0,1,.62.17v-.34a1.17,1.17,0,0,0-.31-.87,1.26,1.26,0,0,0-.9-.31,2.17,2.17,0,0,0-.79.15,3.94,3.94,0,0,0-.8.43l-.32-.67a3.55,3.55,0,0,1,2-.65,2.27,2.27,0,0,1,1.6.53A1.94,1.94,0,0,1,184,92v1.8c0,.22.09.34.28.34V95L184,95h-.22a.64.64,0,0,1-.47-.16.68.68,0,0,1-.21-.39l0-.31a2.24,2.24,0,0,1-.83.67A2.31,2.31,0,0,1,181.23,95.09Zm.29-.77a1.78,1.78,0,0,0,.72-.14,1.22,1.22,0,0,0,.52-.38.48.48,0,0,0,.2-.36v-.66a3.33,3.33,0,0,0-1.15-.22,1.63,1.63,0,0,0-.92.24.75.75,0,0,0-.35.65.83.83,0,0,0,.27.62A1,1,0,0,0,181.52,94.32Z"/><path class="cls-5" d="M185.29,88.05h1v5.51a.59.59,0,0,0,.15.43.49.49,0,0,0,.4.16.75.75,0,0,0,.24,0l.26-.08.16.82A2.56,2.56,0,0,1,187,95a3,3,0,0,1-.56.06,1,1,0,0,1-1.14-1.13Z"/><path class="cls-5" d="M196,95V90.13l-2,3.69h-.59l-2-3.69V95h-1.07V88.24h1.15l2.24,4.13L196,88.24h1.15V95Z"/><path class="cls-5" d="M200.68,95.09a2.6,2.6,0,0,1-1.06-.2,2.35,2.35,0,0,1-.81-.56,2.52,2.52,0,0,1-.53-.82,2.81,2.81,0,0,1,0-2,2.56,2.56,0,0,1,.53-.83,2.22,2.22,0,0,1,.81-.56,2.62,2.62,0,0,1,1.07-.21,2.59,2.59,0,0,1,1.05.21,2.56,2.56,0,0,1,.8.56,2.15,2.15,0,0,1,.51.81,2.65,2.65,0,0,1,.18,1,1.48,1.48,0,0,1,0,.21c0,.07,0,.12,0,.17h-4a1.66,1.66,0,0,0,.16.6,1.5,1.5,0,0,0,.33.46,1.55,1.55,0,0,0,1.43.35,1.58,1.58,0,0,0,.38-.15,1.76,1.76,0,0,0,.3-.24,1.26,1.26,0,0,0,.21-.32l.9.26a2.16,2.16,0,0,1-.86.92A2.69,2.69,0,0,1,200.68,95.09Zm1.51-3a1.61,1.61,0,0,0-.16-.58,1.36,1.36,0,0,0-.32-.45,1.61,1.61,0,0,0-.47-.29,1.55,1.55,0,0,0-.56-.11,1.47,1.47,0,0,0-.56.11,1.56,1.56,0,0,0-.46.29,1.54,1.54,0,0,0-.33.45,1.84,1.84,0,0,0-.15.58Z"/><path class="cls-5" d="M206.12,95.09a2.12,2.12,0,0,1-.94-.2,2.38,2.38,0,0,1-.74-.56,2.59,2.59,0,0,1-.49-.82,2.84,2.84,0,0,1-.18-1,2.93,2.93,0,0,1,.17-1,2.66,2.66,0,0,1,.47-.82,2.19,2.19,0,0,1,.7-.55,1.91,1.91,0,0,1,.89-.21,2,2,0,0,1,1.06.29,2.18,2.18,0,0,1,.71.74V88.05h1v5.71a.43.43,0,0,0,.06.26.29.29,0,0,0,.23.08V95l-.27,0h-.16a.81.81,0,0,1-.52-.17.58.58,0,0,1-.22-.41l0-.38a2,2,0,0,1-.75.74A2.21,2.21,0,0,1,206.12,95.09Zm.25-.89a1.48,1.48,0,0,0,.46-.08,1.65,1.65,0,0,0,.42-.21,1.62,1.62,0,0,0,.33-.31,1.18,1.18,0,0,0,.19-.39V91.9a1.64,1.64,0,0,0-.24-.43,1.7,1.7,0,0,0-.36-.35,1.68,1.68,0,0,0-.42-.22,1.41,1.41,0,0,0-.45-.07,1.24,1.24,0,0,0-.58.14,1.38,1.38,0,0,0-.45.38,1.78,1.78,0,0,0-.3.54,1.84,1.84,0,0,0,0,1.28,1.69,1.69,0,0,0,.33.53,1.55,1.55,0,0,0,.48.37A1.41,1.41,0,0,0,206.37,94.2Z"/><path class="cls-5" d="M210.15,89.2V88.05h1V89.2Zm0,5.8V90h1v5Z"/><path class="cls-5" d="M213.78,95.09a1.85,1.85,0,0,1-.67-.12,1.42,1.42,0,0,1-.53-.32,1.64,1.64,0,0,1-.36-.5,1.59,1.59,0,0,1-.12-.62,1.37,1.37,0,0,1,.15-.64,1.43,1.43,0,0,1,.43-.49,2.21,2.21,0,0,1,.67-.33,3.24,3.24,0,0,1,.85-.11,4,4,0,0,1,.7.06,3.38,3.38,0,0,1,.61.17v-.34a1.17,1.17,0,0,0-.31-.87,1.26,1.26,0,0,0-.9-.31,2.17,2.17,0,0,0-.79.15,3.94,3.94,0,0,0-.8.43l-.32-.67a3.55,3.55,0,0,1,2-.65,2.27,2.27,0,0,1,1.6.53,1.94,1.94,0,0,1,.57,1.5v1.8c0,.22.09.34.28.34V95l-.26,0h-.22a.64.64,0,0,1-.47-.16.62.62,0,0,1-.2-.39l0-.31a2.16,2.16,0,0,1-.83.67A2.31,2.31,0,0,1,213.78,95.09Zm.29-.77a1.78,1.78,0,0,0,.72-.14,1.22,1.22,0,0,0,.52-.38.48.48,0,0,0,.2-.36v-.66a3.33,3.33,0,0,0-1.15-.22,1.63,1.63,0,0,0-.92.24.77.77,0,0,0-.35.65.83.83,0,0,0,.27.62A1,1,0,0,0,214.07,94.32Z"/></g></svg>