<svg id="Layer_1" data-name="Layer 1" xmlns="http://www.w3.org/2000/svg" xmlns:xlink="http://www.w3.org/1999/xlink" viewBox="0 0 230.4 360"><defs><style>.cls-1{fill:none;}.cls-2{clip-path:url(#clip-path);}.cls-3{fill:#abe3ed;}.cls-4{fill:#c9f6ff;}.cls-5{fill:#155e60;}.cls-6{fill:#0f68b2;}.cls-7{fill:#ebffff;}.cls-8{fill:#a9c2ff;}.cls-9{fill:#7ca7ff;}.cls-10{fill:#74a15c;}.cls-11{fill:#e0edff;}.cls-12{fill:#ffceaf;}.cls-13{fill:#262626;}.cls-14{fill:#3260c7;}.cls-15{fill:#f0b28b;}.cls-16{fill:#5e89d8;}.cls-17{fill:#545556;}.cls-18{fill:#ffae73;}.cls-19{fill:#c8dbff;}.cls-20{fill:#25468f;}.cls-21{fill:#1e3865;}.cls-22{fill:#d5dd64;}.cls-23{fill:#0b3563;}.cls-24{fill:#080435;}.cls-25{fill:#c8daff;}.cls-26{fill:#9ec5ff;}.cls-27{fill:silver;}.cls-28{fill:#fff;}.cls-29{fill:#9a9a9a;}.cls-30{fill:#2d3554;}</style><clipPath id="clip-path"><rect class="cls-1" y="-1" width="231" height="362"/></clipPath></defs><title>MOBILE WEB 222</title><g class="cls-2"><rect class="cls-3" x="-3" y="1" width="237" height="363"/><path class="cls-4" d="M16.73,55.25c17.31-2.07,34.7,5.81,51.89,1.41,8.25-2.11,14.9-7.11,20.35-13.5,4.84-5.68,8.8-12,13.81-17.58a44.31,44.31,0,0,1,8.2-7.21,36.09,36.09,0,0,1,11.92-4.8c8-1.85,16.46-1.94,23.87-5.83A26.74,26.74,0,0,0,155,1H0V63.81A28.65,28.65,0,0,1,16.73,55.25Z"/><path class="cls-5" d="M25.1,83.6H22.58v6.52H21.37V83.6H18.85v-1H25.1Z"/><path class="cls-5" d="M32.32,82.55v7.57h-1.2V86.78H27.3v3.34H26.11V82.55H27.3v3.16h3.82V82.55Z"/><path class="cls-5" d="M39.22,89.06v1.06H34V82.55h5.1v1H35.22v2.15H38.6v1H35.22v2.31Z"/><path class="cls-5" d="M46.82,90.12V84.67l-2.25,4.12h-.66l-2.26-4.12v5.45H40.46V82.55h1.28l2.5,4.62,2.51-4.62H48v7.57Z"/><path class="cls-5" d="M54.93,89.06v1.06h-5.2V82.55h5.1v1h-3.9v2.15h3.38v1H50.93v2.31Z"/><path class="cls-5" d="M56,86V84.59h1V86Zm0,4.17V88.75h1v1.37Z"/><path class="cls-6" d="M63.72,82.57h1.35l.86,2.5.85-2.5h1.36L66.85,86l1,2.42L70,82.55h1.59l-3.08,7.57H67.24l-1.31-3.18-1.31,3.18H63.38l-3.06-7.57H61.9l2.15,5.88L65,86Z"/><path class="cls-6" d="M78.69,82.55v7.57H77.23V86.89H73.8v3.23H72.33V82.55H73.8v3.06h3.43V82.55Z"/><path class="cls-6" d="M82.42,82.55h1.31l2.87,7.57H85.09l-.7-1.89H81.74l-.69,1.89H79.54Zm1.7,4.64-1.05-3-1.08,3Z"/><path class="cls-6" d="M92.35,83.84H89.93v6.28H88.47V83.84H86.05V82.55h6.3Z"/><path class="cls-6" d="M97.79,82.57h1.35l.86,2.5.85-2.5h1.36L100.93,86l.95,2.42L104,82.55h1.6l-3.08,7.57h-1.24L100,86.94l-1.31,3.18H97.45l-3.06-7.57H96l2.15,5.88L99.06,86Z"/><path class="cls-6" d="M107.91,82.55h1.3l2.87,7.57h-1.51l-.7-1.89h-2.64l-.7,1.89H105Zm1.69,4.64-1-3-1.09,3Z"/><path class="cls-6" d="M117.83,83.84h-2.42v6.28H114V83.84h-2.42V82.55h6.3Z"/><path class="cls-6" d="M124,88.83v1.29h-5.25V82.55h5.16v1.29h-3.69v1.82h3.18v1.19h-3.18v2Z"/><path class="cls-6" d="M125.17,90.12V82.55h3.35a2.05,2.05,0,0,1,1,.22,2.27,2.27,0,0,1,.76.57,2.84,2.84,0,0,1,.51.81,2.46,2.46,0,0,1,.18.91,2.57,2.57,0,0,1-.37,1.34,2.16,2.16,0,0,1-1,.87l1.73,2.85h-1.65l-1.55-2.54h-1.45v2.54Zm1.47-3.83h1.85a.69.69,0,0,0,.37-.1,1,1,0,0,0,.31-.26,1.43,1.43,0,0,0,.2-.39,1.51,1.51,0,0,0,.08-.48,1.33,1.33,0,0,0-.09-.49,1.26,1.26,0,0,0-.23-.39.9.9,0,0,0-.33-.25.85.85,0,0,0-.38-.09h-1.78Z"/><path class="cls-6" d="M141,90.12v-5l-2,3.73h-.8l-2-3.73v5h-1.47V82.55h1.57l2.24,4.3,2.26-4.3h1.57v7.57Z"/><path class="cls-6" d="M149.29,88.83v1.29H144V82.55h5.15v1.29h-3.68v1.82h3.18v1.19h-3.18v2Z"/><path class="cls-6" d="M152.59,82.55h1.3l2.88,7.57h-1.51l-.71-1.89h-2.64l-.69,1.89h-1.51Zm1.7,4.64-1-3-1.08,3Z"/><path class="cls-6" d="M159.07,85.27v4.85H157.6V82.55h1.14l3.95,5v-5h1.47v7.56H163Z"/><path class="cls-6" d="M170.24,84.53a1.55,1.55,0,0,0-.27-.2,2.66,2.66,0,0,0-.48-.25,4.84,4.84,0,0,0-.61-.21,2.57,2.57,0,0,0-.67-.09,1.5,1.5,0,0,0-.91.23.74.74,0,0,0-.3.63.71.71,0,0,0,.11.39,1.14,1.14,0,0,0,.33.27,2.34,2.34,0,0,0,.54.21c.21.07.46.13.75.2s.7.21,1,.32a2.9,2.9,0,0,1,.76.43,1.81,1.81,0,0,1,.49.61,2.09,2.09,0,0,1,.17.88,2.22,2.22,0,0,1-.23,1,1.91,1.91,0,0,1-.62.7,2.65,2.65,0,0,1-.89.39,4.62,4.62,0,0,1-1.07.12,5.45,5.45,0,0,1-1.68-.26,5.28,5.28,0,0,1-1.49-.72l.65-1.27a1.51,1.51,0,0,0,.35.25,3.57,3.57,0,0,0,.59.31,4.7,4.7,0,0,0,.75.26,3.56,3.56,0,0,0,.86.11c.81,0,1.21-.26,1.21-.78a.59.59,0,0,0-.14-.41,1,1,0,0,0-.39-.3,3.35,3.35,0,0,0-.62-.24l-.81-.23a6.34,6.34,0,0,1-.94-.33,2.31,2.31,0,0,1-.67-.41,1.56,1.56,0,0,1-.4-.56,1.9,1.9,0,0,1-.13-.75,2.38,2.38,0,0,1,.21-1,2.07,2.07,0,0,1,.59-.75,2.72,2.72,0,0,1,.88-.45,3.76,3.76,0,0,1,1.08-.15,4.13,4.13,0,0,1,1.47.25,4.92,4.92,0,0,1,1.17.59Z"/><path class="cls-6" d="M180.19,83.84h-2.42v6.28h-1.46V83.84h-2.42V82.55h6.3Z"/><path class="cls-6" d="M184,90.17a3.41,3.41,0,0,1-1.51-.33,3.55,3.55,0,0,1-1.16-.86,4.06,4.06,0,0,1-.75-1.23,3.89,3.89,0,0,1-.27-1.42,4,4,0,0,1,1.06-2.67,3.71,3.71,0,0,1,1.18-.85A3.51,3.51,0,0,1,184,82.5a3.37,3.37,0,0,1,1.5.33,3.8,3.8,0,0,1,1.9,2.12,3.83,3.83,0,0,1,.27,1.4,3.89,3.89,0,0,1-1,2.66,3.58,3.58,0,0,1-1.17.84A3.48,3.48,0,0,1,184,90.17Zm-2.19-3.84a3,3,0,0,0,.14,1,2.44,2.44,0,0,0,.44.81,2.27,2.27,0,0,0,.69.57,2,2,0,0,0,.93.21,1.89,1.89,0,0,0,.94-.22,2.2,2.2,0,0,0,.7-.58,2.36,2.36,0,0,0,.42-.82,2.91,2.91,0,0,0,.15-.92,2.79,2.79,0,0,0-.16-1,2.86,2.86,0,0,0-.43-.81,2.14,2.14,0,0,0-.7-.56,2.24,2.24,0,0,0-1.87,0,2.27,2.27,0,0,0-.69.58,2.6,2.6,0,0,0-.42.81A2.89,2.89,0,0,0,181.81,86.33Z"/><path class="cls-6" d="M197.56,90.12v-5l-1.95,3.73h-.8l-1.95-3.73v5h-1.47V82.55H193l2.24,4.3,2.26-4.3H199v7.57Z"/><path class="cls-6" d="M205.86,88.83v1.29h-5.25V82.55h5.15v1.29h-3.68v1.82h3.18v1.19h-3.18v2Z"/><path class="cls-6" d="M207.52,87.63a2.54,2.54,0,0,1,.17-.94,1.65,1.65,0,0,1,.7-.72l.4-.22a3.21,3.21,0,0,0,.46-.29,2.05,2.05,0,0,0,.38-.4,1,1,0,0,0,.07-.92,1,1,0,0,0-.23-.29.92.92,0,0,0-.32-.18,1.26,1.26,0,0,0-.38-.06,1.18,1.18,0,0,0-.43.08,1.3,1.3,0,0,0-.34.21,1.44,1.44,0,0,0-.28.27c-.08.11-.15.2-.21.3l-.93-.64a2.36,2.36,0,0,1,.37-.59,2.38,2.38,0,0,1,.52-.43,2.42,2.42,0,0,1,.64-.27,2.69,2.69,0,0,1,.7-.09,2.72,2.72,0,0,1,.8.12,2.1,2.1,0,0,1,.71.37,1.89,1.89,0,0,1,.51.66,2.33,2.33,0,0,1,.12,1.55,1.78,1.78,0,0,1-.23.48,2.11,2.11,0,0,1-.35.38,3.17,3.17,0,0,1-.46.33l-.43.25a2.65,2.65,0,0,0-.39.26,1.12,1.12,0,0,0-.28.33.79.79,0,0,0-.12.45Zm0,2.49V88.64h1.19v1.48Z"/><path class="cls-7" d="M208.28,328.73l-110.21,0-55.38,0H28.48s-15.9-12.93-16.17-31.21c-.54-36,23-19.8,19.81-63.21-2.92-39.61,73.38-61,114.82-30.71,15.06,11,16.24,18.72,37.89,16.28,24.43-2.75,27.21,27,18.66,43.44C191.36,286.64,237.14,282.8,208.28,328.73Z"/><path class="cls-8" d="M146,264.83v58.28a5.78,5.78,0,0,1-5.68,5.88H117.28a5.78,5.78,0,0,1-5.68-5.88V263.78A13.06,13.06,0,0,1,119,251.91a3.47,3.47,0,0,0,1.94-3.16V246.4H136.7V249a3.74,3.74,0,0,0,2,3.29A14.14,14.14,0,0,1,146,264.83Z"/><path class="cls-9" d="M143.52,269.85v51.29a5,5,0,0,1-4.85,5.17H118.94a5,5,0,0,1-4.85-5.17V268.93a11.13,11.13,0,0,1,0-1.16,17.19,17.19,0,0,1,8.53-.21c4.55,1.12,8.31-1.07,13.67-1.07,3.73,0,5.39.58,6.85.44A12.81,12.81,0,0,1,143.52,269.85Z"/><path class="cls-10" d="M123.75,242.63H134a3.38,3.38,0,0,1,3.38,3.38v1.14a0,0,0,0,1,0,0H120.19a0,0,0,0,1,0,0v-1A3.55,3.55,0,0,1,123.75,242.63Z"/><path class="cls-11" d="M142.05,257.41s-2.57-4.15-4.82-3.58-.77,2,.59,3.58,2.28,1.89,3.36,1.31S142.42,257.94,142.05,257.41Z"/><path d="M176.88,241.33c0-.21.17-2.51,3.67-2.63,0,0-1.72.2-2,1,0,0,1.17-.94,2.13-.64s1.51,2,1.52,2.53-.53,2.32-1.13,2.47a1.68,1.68,0,0,1-.74,0,9.31,9.31,0,0,1,.48.84c1.39,2.87,0,5.68-1.23,5.37-.76-.2-1,1.09-1,1.09l-7.38-6S173.92,239.75,176.88,241.33Z"/><path class="cls-12" d="M162.49,275.36c2.15-.22,4.71-.59,5.73-1.22,1.55-.95,4.24-4.93,5.9-7.83,0-.07.15-1.54.19-1.62.86-1.54,1.26-.59,1.3-1.81a5.85,5.85,0,0,0-.2-1.94,5,5,0,0,0-.87-1.76,1.06,1.06,0,0,0-.17-.2,4.22,4.22,0,0,0-1.13-1c-.28-.11-.59,0-.91.37h0a6,6,0,0,0-.82,1.21l0,0c-.06.1-.12.22-.19.35l-.05.09c-.13.27-.26.55-.39.85-1.45,3.17-2.55,8.42-3.84,9.86-.56.61-3.56,1.38-5.59,2.28C160,273.72,161.05,275.51,162.49,275.36Z"/><path d="M174.31,325.83l1.57.59s6.8-9.44,7.63-17.73a12.74,12.74,0,0,0-.22-4.25s.07-.38.18-1.05c.06-.31.12-.69.2-1.12.22-1.27.52-3,.87-5,.8-4.54,1.84-10.35,2.64-14.62l-.42-.13-4.56-1.48-.95-3-3.4-.9s-.76,1.49-1.43,8.5c-.13.93-.24,1.94-.33,3a60.89,60.89,0,0,0,.32,12.29c.16,1.22.36,2.48.6,3.77a16.53,16.53,0,0,1,.13,3.73C176.8,315.29,174.31,325.83,174.31,325.83Z"/><path class="cls-13" d="M176.09,288.72l7.38,14.67c.06-.31.12-.69.2-1.12.22-1.27.52-3,.87-5,.8-4.54,1.84-10.35,2.64-14.62l-.42-.13-4.56-1.48-.95-3-4.65-1.23S176.09,285.92,176.09,288.72Z"/><path d="M179.34,279.07l.17-1.47c2.86.76,10.51-2.12,10.51-2.12s2.77,2.43,2.41,8.28c-.18,2.85-.5,15-.84,18.55-.13,1.3-.23,2.23-.28,2.6h0a.54.54,0,0,0,.09.32,18,18,0,0,1,1.25,2.63c3.32,8.87-.52,19.79-.52,19.79l-1-.4s-2.19-12.16-4-17.53a10.21,10.21,0,0,0-.86-2.05,23.3,23.3,0,0,1-2.14-5.7,138.38,138.38,0,0,1-2.87-15.13C181.22,286.84,179.34,279.07,179.34,279.07Z"/><path class="cls-12" d="M173.87,261.29a8.8,8.8,0,0,0,3.3.78c4.92.27,6-4.05,6.24-6.91a4,4,0,0,0-1.69-.21l-.4,0a1.42,1.42,0,0,1-1.27-.55,10.25,10.25,0,0,1-1.65-3.78l-.21.1-3.56,1.67s.38,1.15.66,2.26c.12.48.22,1,.27,1.31a.8.8,0,0,1-.47.81h0A25.49,25.49,0,0,0,173.87,261.29Z"/><path class="cls-14" d="M172.64,264.52l.12.3c1.25,2.68,3.55,13.8,3.55,13.8.71,2.15,15-.39,15.07-2.21.54-1.93-1.92-5-3.31-6.59a3.64,3.64,0,0,1-.46-.63,4.39,4.39,0,0,1-.63-1.83,63.23,63.23,0,0,1-.19-6.47h0l-.78-.56a8.27,8.27,0,0,1-.95-.79,1.47,1.47,0,0,1-.45-.89,4.7,4.7,0,0,1,0-.75c0-.12,0-.24,0-.36a10.4,10.4,0,0,1,.72-2.38,9.28,9.28,0,0,0-3.67-.21v.34a12.92,12.92,0,0,1-.27,3.48c-.35.52-6.64,2.79-7,2.09s.57-3.94.6-4.07h0a10,10,0,0,0-2.86,1.52C173.5,259.13,171.66,261.92,172.64,264.52Z"/><path class="cls-15" d="M174.63,252.41s.38,1.15.66,2.26c2.08-.58,2.71-2.76,2.9-3.93Z"/><path class="cls-12" d="M174.2,253.63s5-1.15,4.2-4.23-.64-5.3-3.84-4.7-3.53,1.93-3.52,3S172.89,253.85,174.2,253.63Z"/><path d="M170.76,246c.53-1.12,1.16-1.06,1.56-.86a3.56,3.56,0,0,1,4.62-.39,6,6,0,0,0,2.79,3s-.77.79-3,.77a3.75,3.75,0,0,1-2-.74,11.82,11.82,0,0,0,2.59,1.93c-2.77-.53-4.62-3.74-4.81-4.08a3.89,3.89,0,0,0-.72,1.71c-.06.84.24,2.49-.25,2.55C171.59,249.85,170,247.65,170.76,246Z"/><path class="cls-14" d="M172.23,258.31a8.29,8.29,0,0,0-1.38,2.62,2.49,2.49,0,0,1,2.18,1.14S173,257.61,172.23,258.31Z"/><path class="cls-16" d="M180.45,274.88c3,0,5.59-3.17,7.16-5.69a4.39,4.39,0,0,1-.63-1.83,63.23,63.23,0,0,1-.19-6.47h0l-.78-.56a8.27,8.27,0,0,1-.95-.79C182.58,263.73,176.34,274.93,180.45,274.88Z"/><path class="cls-17" d="M186.34,328.46h7.89a4.25,4.25,0,0,0-.23-2.11c-.39-.88-1-1.27-.86-2.33a2.87,2.87,0,0,1-2.46.94,8.58,8.58,0,0,1-1.37,1.77C188.8,327.1,186.5,327,186.34,328.46Z"/><path class="cls-17" d="M169.41,328.46h7.89a3.27,3.27,0,0,0-.23-2.11,1.52,1.52,0,0,1,.06-1.82,3,3,0,0,1-1.33.25,2.74,2.74,0,0,1-1.17-.41,26.25,26.25,0,0,1-2.25,2.36C171.87,327.1,169.57,327,169.41,328.46Z"/><path class="cls-12" d="M168.36,277l.32,1.22,4.8-1h0c1.48-.36,3.14-.78,4.54-1.26a12.21,12.21,0,0,0,2.42-1.08.91.91,0,0,0,.16-.11c1.39-1,3-4,4.32-7.15.17-.44.34-.88.51-1.3a33.65,33.65,0,0,0,1.35-4.5,13.35,13.35,0,0,0,.32-2.15c0-.21,0-.41,0-.6,0-3.44-1.73-3.91-1.73-3.91l-.12,0c-.3-.05-.6.15-.92.55a10.37,10.37,0,0,0-1.27,2.24c-.68,1.52-1.39,3.5-2.05,5.47-.37,1.08-.72,2.16-1.08,3.15-.2.61-.4,1.17-.59,1.7a16.4,16.4,0,0,1-1,2.31,5.75,5.75,0,0,1-1.45,1.31C175.65,272.76,168.36,277,168.36,277Z"/><path class="cls-14" d="M182.73,258a5.54,5.54,0,0,1,4.39,1c0-3.43-1.73-3.9-1.73-3.9C184.7,254.88,183.55,256.2,182.73,258Z"/><path class="cls-12" d="M169.12,276.57a20,20,0,0,0-2.39,1.08,5,5,0,0,0-1.27,1.82s0,.22.21.22.65-.77,1-.65a6.69,6.69,0,0,1-.67,1.28,4,4,0,0,0-.33,1.83c0,.28,1.73-1.06,2.44-1.67.38-.32.37-1.11.48-2s2.26-1.23,2.26-1.23Z"/><path class="cls-18" d="M159.66,274.88a2.26,2.26,0,0,0-.74,1.95c.28,1,1.37,1.14,1.54.6S160.19,274.69,159.66,274.88Z"/><path class="cls-9" d="M147.81,256.92c0-2.3,3.82-6.77,3.82-6.77s3.81,4.47,3.81,6.77a3.83,3.83,0,1,1-7.63,0Z"/><path class="cls-19" d="M149.06,258.28a1.56,1.56,0,0,1-.08-.64c.05-1,1-1.55,1.72-.87a3,3,0,0,1,.51.7c.29.7.16,1.33-.48,1.59A1.29,1.29,0,0,1,149.06,258.28Z"/><path class="cls-9" d="M67.39,249.79c0-5.37,8.9-15.79,8.9-15.79s8.91,10.42,8.91,15.79-4,9.73-8.91,9.73S67.39,255.17,67.39,249.79Z"/><path class="cls-19" d="M70.29,253a3.59,3.59,0,0,1-.17-1.5c.1-2.35,2.27-3.62,4-2a6.38,6.38,0,0,1,1.19,1.64c.67,1.63.39,3.1-1.1,3.72A3.07,3.07,0,0,1,70.29,253Z"/><rect class="cls-20" x="107.45" y="301.23" width="17.11" height="2.8"/><path class="cls-21" d="M99.34,327.5H92.16V237.64a31.27,31.27,0,1,1,62.54,0V245h-7.18v-7.4a24.09,24.09,0,0,0-48.18,0Z"/><path class="cls-21" d="M99.88,298.13h4.94a3.55,3.55,0,0,1,3.55,3.55v1.92a3.55,3.55,0,0,1-3.55,3.55H99.88a0,0,0,0,1,0,0v-9A0,0,0,0,1,99.88,298.13Z"/><path class="cls-22" d="M131.64,305.84l-15.42-.64a2,2,0,0,1-1.89-2v-1.37a2,2,0,0,1,1.92-2l15.42-.46a2,2,0,0,1,2,2v2.48A2,2,0,0,1,131.64,305.84Z"/><path class="cls-20" d="M94.63,293h2.67a4.73,4.73,0,0,1,4.73,4.73V327.5a0,0,0,0,1,0,0H89.49a0,0,0,0,1,0,0V298.12A5.14,5.14,0,0,1,94.63,293Z"/><path class="cls-23" d="M83.11,325.84h25.28a2,2,0,0,1,2,2v.55a0,0,0,0,1,0,0H81.08a0,0,0,0,1,0,0v-.55A2,2,0,0,1,83.11,325.84Z"/><rect class="cls-24" x="146.26" y="242.63" width="9.7" height="3.15" rx="1.24"/><polygon class="cls-25" points="137.72 263.59 167.26 263.59 164.78 324.31 139.23 323.96 137.72 263.59"/><path class="cls-26" d="M165.59,282.21l-1.13,36.4a3,3,0,0,1-2.75,3.13H142.65a3.19,3.19,0,0,1-2.91-3.3l-1.48-39.82c2.32-.56,6.9-1,12.37,2.19C155.26,283.51,161.34,283.05,165.59,282.21Z"/><rect class="cls-9" x="136.59" y="263.59" width="30.67" height="0.39"/><path class="cls-20" d="M167.84,263.64l-2,63.1a1.77,1.77,0,0,1-1.77,1.71H138.45L136,263.64h1.68l.42,11.57.12,3.07,1.48,40.18a3.21,3.21,0,0,0,2.91,3.33h19.06a3,3,0,0,0,2.74-3.16l1.14-36.73.27-8.51.3-9.75Z"/><path class="cls-11" d="M163.83,267.05s-.05-1.32-1.79-1.32c-2.82,0-2.7,9.67-1.75,10.78a2.24,2.24,0,0,0,3.18-.11C164.76,274.05,163.83,267.05,163.83,267.05Z"/><path class="cls-11" d="M162.78,313.28c-.08-.52-.23-1.54-1.17-1.76s-2,.9-2.5,2.73-3.27,3.09-2.42,4.7,3.56,1.1,4.29.49C162.33,318.32,163,314.79,162.78,313.28Z"/><path class="cls-26" d="M156.19,281.81s-3.44-.86-4.07-2.49.52-2.56,1.7-2.2.65,1.91,1.51,3.3Z"/><path class="cls-17" d="M62.46,328.46H52.94c-.68-.46.19-5,.19-5s2.59-1,3,1,3.31,2.63,4.82,2.88A1.66,1.66,0,0,1,62.46,328.46Z"/><path d="M60.88,278.29l-4.44,46.12s-.93,1.44-3.88.47a84.36,84.36,0,0,1-3-15.95l0-.42c-.23-3.07-.49-7.35-.75-11.59-.46-7.71-.87-15.29-.87-15.29Z"/><path class="cls-13" d="M55.16,287.12s-1.52,10.27-2,13.39c-1.12,6.65-3.51,8.42-3.51,8.42l0-.42c-.23-3.07-.49-7.35-.75-11.59Z"/><path class="cls-12" d="M76.63,266s.88-1.07,1.35-1.22,1.39-.86,1.51-.57-.61.74-.57,1.08c0,.15.58.15,1.21.15.8,0,1.78-.44,1.81-.25.14.72-.91,2-2,2.13-.88.09-2.1-.09-3.57.07C75.86,267.45,76.63,266,76.63,266Z"/><path class="cls-27" d="M77.23,267.58c0,.09-3.19.62-5.93,1-1.61.23-3.07.4-3.67.41A18.68,18.68,0,0,1,61,267.34a27.8,27.8,0,0,1-5.17-2.85c-1.56-1.09-1.61-1.94-2.91-3.68-4-5.42,1.27-7.72,4.18-6.68a8.35,8.35,0,0,1,4.34,3.61c1.29,2,2.35,4.15,5.57,6,2.42,1.42,9.66,1.81,9.66,1.81a1.53,1.53,0,0,1,.53.83A4.31,4.31,0,0,1,77.23,267.58Z"/><path class="cls-17" d="M48.35,328.46H38.84c-.68-.46.18-5,.18-5s2.6-1,3,1,3.3,2.63,4.81,2.88A1.63,1.63,0,0,1,48.35,328.46Z"/><path d="M57.31,280.52l-14.4,44.09s-3.07.82-4.64-.86c0,0,.37-15.54,2.33-20.85,1.6-4.29.82-27.47,7.88-27.67S57.31,280.52,57.31,280.52Z"/><path class="cls-27" d="M60.61,280.8c-2.22,1.15-5.11,1.95-9.87,1.64-4.57-.3-7.36-1.55-7.22-2.64.07-.55.14-1.11.2-1.69a42.73,42.73,0,0,0-.16-9.82c-.14-1.11-.31-2.3-.46-3.33h0c-.17-1.26-.31-2.29-.3-2.67,0,0,1.45-6.5,2.54-7.55A4.63,4.63,0,0,1,47,253.8h0c3.27-1.18,9.28-.91,11.93,1.39A8.46,8.46,0,0,1,60.6,260C60.65,263.28,62.05,280.06,60.61,280.8Z"/><path class="cls-12" d="M49.3,253.56c-.33-.41.6-1.18.19-4.21a2.26,2.26,0,0,1,.74.12c1.35.32,4.06,1.09,4.18,1.13h0s0,.63.14,1.77l0,.32c0,.13,0,.28,0,.42C55,255.39,50.84,255.5,49.3,253.56Z"/><path class="cls-15" d="M54.56,252.37c-2,.47-5-2.5-5-2.5a3,3,0,0,1,.68-.4c1.35.32,4.06,1.09,4.18,1.13h0S54.45,251.23,54.56,252.37Z"/><path class="cls-12" d="M55.24,250.44a10.31,10.31,0,0,1-1.88.43c-1.54.21-3.57.09-4.21-1.78-1.07-3.14-2.44-5,.72-6.3a4.93,4.93,0,0,1,3.5-.46,2.47,2.47,0,0,1,1.3,1.12C55.29,244.41,56.52,249.89,55.24,250.44Z"/><path d="M54.55,240.83a1.76,1.76,0,0,1-1,3.06,5.17,5.17,0,0,0-1.48.18c-.79.35-.93,1.67-1,2.08s-.06.78-1.13.53a.54.54,0,0,0-.39,0c-.44.26.12,1.53.29,1.81,0,0,.25.91-.29,1.36-.07,0-1.14.52-3.72-3.43a3.67,3.67,0,0,1-.16-3.36c.62-1.34,3.19-2.81,5.45-3.33A3.79,3.79,0,0,1,54.55,240.83Z"/><path class="cls-28" d="M55.27,248.41s.06.4-.88.73c0,0-.8.27-.94-.15A2.68,2.68,0,0,1,55.27,248.41Z"/><path class="cls-29" d="M71.3,268.58c-1.61.23-3.07.4-3.67.41A18.68,18.68,0,0,1,61,267.34c-.12-.41-.24-3,0-3.19.78-.53,2.31,2.47,4.89,3.25A44.51,44.51,0,0,0,71.3,268.58Z"/><path class="cls-29" d="M44.56,278.32a.77.77,0,0,1-.84-.21,42.73,42.73,0,0,0-.16-9.82c-.14-1.11-.31-2.3-.46-3.33h0s2.16-1.86,2.9-.33-1.37,5.61-.21,8S45.86,278,44.56,278.32Z"/><path class="cls-12" d="M41.34,276.89s1.16.85,1.46.8c.88-.15,1.33-.86,2.14-.8s2.54,1,2.34,1.19c-.73.75-1.84.35-2.36.81a1.88,1.88,0,0,1-1.91.85,5.1,5.1,0,0,1-2.49-1.22Z"/><path class="cls-27" d="M47,253.8a17.87,17.87,0,0,0-8.72,6.42c-3.62,5-4.79,8.36-3.37,10.86s4.2,6.91,6.9,8.77c0,0,1.35-.29,1.24-2.35,0,0-3.31-7.05-3.19-8,.22-1.78,4.93-6.28,6-7.21S47,253.8,47,253.8Z"/><path class="cls-12" d="M43.35,277.59a9.93,9.93,0,0,0,.67-1.17c.08-.27.21.13.16.41a1,1,0,0,0,0,.49Z"/><rect class="cls-30" x="19.32" y="328.41" width="197.07" height="0.59" rx="0.24"/><path class="cls-5" d="M22.57,142.52v-7.07h1.12v6.09h3.8v1Z"/><path class="cls-5" d="M29.64,142.62a2,2,0,0,1-.7-.12,1.77,1.77,0,0,1-.56-.35,1.55,1.55,0,0,1-.37-.51,1.57,1.57,0,0,1-.13-.65,1.35,1.35,0,0,1,.16-.67,1.47,1.47,0,0,1,.45-.52,2.4,2.4,0,0,1,.7-.34,3.09,3.09,0,0,1,.89-.12,3.54,3.54,0,0,1,.73.07,3.85,3.85,0,0,1,.65.17v-.36a1.22,1.22,0,0,0-.33-.9,1.29,1.29,0,0,0-.95-.32,2.33,2.33,0,0,0-.82.15,3.85,3.85,0,0,0-.84.45l-.33-.7a3.71,3.71,0,0,1,2.09-.68,2.34,2.34,0,0,1,1.67.55,2,2,0,0,1,.6,1.57v1.89c0,.23.1.35.29.36v.93a1.76,1.76,0,0,1-.27,0h-.23a.69.69,0,0,1-.49-.16.61.61,0,0,1-.21-.41l0-.32a2.26,2.26,0,0,1-.86.7A2.56,2.56,0,0,1,29.64,142.62Zm.3-.81a1.86,1.86,0,0,0,.75-.14,1.39,1.39,0,0,0,.56-.4.51.51,0,0,0,.21-.38v-.69a3.78,3.78,0,0,0-.6-.17,3.23,3.23,0,0,0-.61-.06,1.67,1.67,0,0,0-1,.26.77.77,0,0,0-.38.67.86.86,0,0,0,.29.65A1,1,0,0,0,29.94,141.81Z"/><path class="cls-5" d="M35.77,142.62a4.18,4.18,0,0,1-1.25-.2,3.17,3.17,0,0,1-1.07-.59l.44-.69a4.47,4.47,0,0,0,.92.51,2.56,2.56,0,0,0,.94.17,1.39,1.39,0,0,0,.77-.18.62.62,0,0,0,.29-.54.5.5,0,0,0-.32-.48,6.4,6.4,0,0,0-1-.33c-.32-.09-.6-.17-.83-.25a1.89,1.89,0,0,1-.57-.28.86.86,0,0,1-.32-.37,1.13,1.13,0,0,1-.1-.51,1.57,1.57,0,0,1,.15-.7,1.7,1.7,0,0,1,.43-.53,1.92,1.92,0,0,1,.64-.32,3,3,0,0,1,.8-.11,3.3,3.3,0,0,1,1.1.18,2.84,2.84,0,0,1,.91.52l-.47.66a2.43,2.43,0,0,0-1.55-.58,1.37,1.37,0,0,0-.7.17.6.6,0,0,0-.28.55.54.54,0,0,0,.06.27.44.44,0,0,0,.19.19,1.67,1.67,0,0,0,.35.15l.53.14.91.26a2.54,2.54,0,0,1,.64.31,1.17,1.17,0,0,1,.37.4,1.26,1.26,0,0,1,.11.57,1.39,1.39,0,0,1-.56,1.18A2.42,2.42,0,0,1,35.77,142.62Z"/><path class="cls-5" d="M41.72,142.25a5.81,5.81,0,0,1-.58.23,2.45,2.45,0,0,1-.78.12,1.53,1.53,0,0,1-.49-.07,1.07,1.07,0,0,1-.41-.21,1,1,0,0,1-.27-.36,1.27,1.27,0,0,1-.1-.54v-3.26H38.4v-.85h.69v-1.72h1.1v1.72h1.13v.85H40.19v2.91a.53.53,0,0,0,.17.4.61.61,0,0,0,.39.13,1.26,1.26,0,0,0,.43-.08l.31-.13Z"/><path class="cls-5" d="M47.06,142.62a2.25,2.25,0,0,1-1-.21,2.37,2.37,0,0,1-.78-.59,2.55,2.55,0,0,1-.51-.86,2.85,2.85,0,0,1-.19-1.06,2.94,2.94,0,0,1,.18-1,2.56,2.56,0,0,1,.49-.85,2.32,2.32,0,0,1,.73-.59,2.11,2.11,0,0,1,.93-.21,2.05,2.05,0,0,1,1.11.3,2.24,2.24,0,0,1,.75.78v-3.05h1.1v6a.49.49,0,0,0,.06.27.33.33,0,0,0,.23.09v.93a1.76,1.76,0,0,1-.27,0h-.17a.8.8,0,0,1-.54-.17A.58.58,0,0,1,49,142l0-.38a2.06,2.06,0,0,1-.79.76A2.18,2.18,0,0,1,47.06,142.62Zm.27-.93a1.61,1.61,0,0,0,.48-.08,2,2,0,0,0,.44-.22,2.2,2.2,0,0,0,.35-.33,1.42,1.42,0,0,0,.2-.41v-1.37a1.75,1.75,0,0,0-.26-.46,2,2,0,0,0-.37-.35,1.69,1.69,0,0,0-.44-.23,1.34,1.34,0,0,0-.48-.08,1.21,1.21,0,0,0-.6.15,1.61,1.61,0,0,0-.47.39,2,2,0,0,0-.32.57,2.17,2.17,0,0,0-.11.66,1.77,1.77,0,0,0,.47,1.24,1.7,1.7,0,0,0,.5.38A1.4,1.4,0,0,0,47.33,141.69Z"/><path class="cls-5" d="M52.68,142.62a2,2,0,0,1-.71-.12,1.73,1.73,0,0,1-.55-.35,1.55,1.55,0,0,1-.37-.51,1.58,1.58,0,0,1-.14-.65,1.47,1.47,0,0,1,.16-.67,1.62,1.62,0,0,1,.46-.52,2.22,2.22,0,0,1,.69-.34,3.16,3.16,0,0,1,.9-.12,3.51,3.51,0,0,1,.72.07,3.61,3.61,0,0,1,.65.17v-.36a1.22,1.22,0,0,0-.33-.9,1.26,1.26,0,0,0-.94-.32,2.39,2.39,0,0,0-.83.15,3.8,3.8,0,0,0-.83.45l-.34-.7a3.71,3.71,0,0,1,2.09-.68,2.38,2.38,0,0,1,1.68.55,2,2,0,0,1,.6,1.57v1.89c0,.23.09.35.29.36v.93a1.7,1.7,0,0,1-.28,0h-.22a.72.72,0,0,1-.5-.16.7.7,0,0,1-.21-.41l0-.32a2.34,2.34,0,0,1-.86.7A2.56,2.56,0,0,1,52.68,142.62Zm.3-.81a1.92,1.92,0,0,0,.75-.14,1.35,1.35,0,0,0,.55-.4.51.51,0,0,0,.21-.38v-.69a3.39,3.39,0,0,0-.59-.17,3.34,3.34,0,0,0-.62-.06,1.67,1.67,0,0,0-1,.26.76.76,0,0,0-.37.67.86.86,0,0,0,.29.65A1,1,0,0,0,53,141.81Z"/><path class="cls-5" d="M59.77,142.25c-.14.07-.33.14-.57.23a2.56,2.56,0,0,1-.79.12,1.57,1.57,0,0,1-.49-.07,1,1,0,0,1-.4-.21.92.92,0,0,1-.28-.36,1.44,1.44,0,0,1-.1-.54v-3.26h-.69v-.85h.69v-1.72h1.1v1.72h1.14v.85H58.24v2.91a.53.53,0,0,0,.17.4.63.63,0,0,0,.39.13,1.32,1.32,0,0,0,.44-.08l.3-.13Z"/><path class="cls-5" d="M62.76,142.62a2.8,2.8,0,0,1-1.1-.21,2.36,2.36,0,0,1-.85-.59,2.54,2.54,0,0,1-.55-.85,2.79,2.79,0,0,1-.2-1,2.83,2.83,0,0,1,.2-1,2.63,2.63,0,0,1,.55-.87,2.49,2.49,0,0,1,.85-.59,2.82,2.82,0,0,1,1.11-.21,2.65,2.65,0,0,1,1.11.22,2.74,2.74,0,0,1,.84.58,2.49,2.49,0,0,1,.53.85,2.87,2.87,0,0,1,.18,1v.23a1.28,1.28,0,0,0,0,.17H61.23a1.83,1.83,0,0,0,.16.63,1.85,1.85,0,0,0,.35.48,1.73,1.73,0,0,0,.49.32,1.56,1.56,0,0,0,.57.1,1.65,1.65,0,0,0,.44-.05,1.68,1.68,0,0,0,.39-.16,1.31,1.31,0,0,0,.32-.25,1.19,1.19,0,0,0,.22-.33l.94.27a2.18,2.18,0,0,1-.9,1A2.74,2.74,0,0,1,62.76,142.62Zm1.59-3.1a1.78,1.78,0,0,0-.17-.61,1.62,1.62,0,0,0-.34-.47,1.61,1.61,0,0,0-1.66-.3,1.5,1.5,0,0,0-.48.3,1.45,1.45,0,0,0-.34.47,1.77,1.77,0,0,0-.16.61Z"/><path class="cls-5" d="M71.69,142.25a5.47,5.47,0,0,1-.57.23,2.56,2.56,0,0,1-.79.12,1.57,1.57,0,0,1-.49-.07,1,1,0,0,1-.4-.21.92.92,0,0,1-.28-.36,1.44,1.44,0,0,1-.1-.54v-3.26h-.68v-.85h.68v-1.72h1.1v1.72H71.3v.85H70.16v2.91a.53.53,0,0,0,.17.4.63.63,0,0,0,.39.13,1.32,1.32,0,0,0,.44-.08l.31-.13Z"/><path class="cls-5" d="M74.66,142.62a2.65,2.65,0,0,1-1.11-.22,2.41,2.41,0,0,1-.84-.59,2.62,2.62,0,0,1-.54-.86,2.89,2.89,0,0,1,0-2.06,2.49,2.49,0,0,1,.55-.86,2.41,2.41,0,0,1,.84-.59,2.89,2.89,0,0,1,2.21,0,2.41,2.41,0,0,1,.84.59,2.49,2.49,0,0,1,.55.86,2.89,2.89,0,0,1,0,2.06,2.49,2.49,0,0,1-.55.86,2.41,2.41,0,0,1-.84.59A2.65,2.65,0,0,1,74.66,142.62Zm-1.55-2.69a2,2,0,0,0,.12.7,1.68,1.68,0,0,0,.33.55,1.48,1.48,0,0,0,.49.37,1.42,1.42,0,0,0,1.23,0,1.48,1.48,0,0,0,.49-.37,1.84,1.84,0,0,0,.33-.56,2.07,2.07,0,0,0,0-1.39,1.63,1.63,0,0,0-.33-.56,1.51,1.51,0,0,0-.49-.38,1.44,1.44,0,0,0-.62-.13,1.26,1.26,0,0,0-.6.14,1.63,1.63,0,0,0-.49.37,2,2,0,0,0-.34.57A2,2,0,0,0,73.11,139.93Z"/><path class="cls-5" d="M82.68,142.62a4.13,4.13,0,0,1-1.25-.2,3.08,3.08,0,0,1-1.07-.59l.44-.69a4.47,4.47,0,0,0,.92.51,2.56,2.56,0,0,0,.94.17,1.44,1.44,0,0,0,.77-.18.62.62,0,0,0,.29-.54.5.5,0,0,0-.32-.48,6.8,6.8,0,0,0-1-.33l-.84-.25a2.16,2.16,0,0,1-.57-.28.91.91,0,0,1-.31-.37,1.13,1.13,0,0,1-.1-.51,1.5,1.5,0,0,1,.58-1.23,1.92,1.92,0,0,1,.64-.32,2.92,2.92,0,0,1,.8-.11,3.3,3.3,0,0,1,1.1.18,2.79,2.79,0,0,1,.9.52l-.47.66a2.41,2.41,0,0,0-1.54-.58,1.37,1.37,0,0,0-.7.17.61.61,0,0,0-.29.55.54.54,0,0,0,.06.27.46.46,0,0,0,.2.19,1.46,1.46,0,0,0,.35.15l.53.14.91.26a2.31,2.31,0,0,1,.63.31,1.08,1.08,0,0,1,.37.4,1.26,1.26,0,0,1,.12.57,1.42,1.42,0,0,1-.56,1.18A2.46,2.46,0,0,1,82.68,142.62Z"/><path class="cls-5" d="M88.09,142.62a2.89,2.89,0,0,1-1.11-.21,2.55,2.55,0,0,1-.85-.59,2.71,2.71,0,0,1-.55-.85,2.78,2.78,0,0,1-.19-1,2.74,2.74,0,0,1,.74-1.91,2.7,2.7,0,0,1,.85-.59,2.9,2.9,0,0,1,1.12-.21,2.6,2.6,0,0,1,1.1.22,2.55,2.55,0,0,1,1.38,1.43,2.87,2.87,0,0,1,.18,1,1.69,1.69,0,0,1,0,.23.79.79,0,0,1,0,.17H86.56a1.83,1.83,0,0,0,.16.63,1.85,1.85,0,0,0,.35.48,1.49,1.49,0,0,0,.49.32,1.56,1.56,0,0,0,.57.1,1.54,1.54,0,0,0,.43-.05,1.59,1.59,0,0,0,.4-.16,1.54,1.54,0,0,0,.32-.25,1.46,1.46,0,0,0,.22-.33l.93.27a2.15,2.15,0,0,1-.89,1A2.74,2.74,0,0,1,88.09,142.62Zm1.59-3.1a1.78,1.78,0,0,0-.17-.61,1.62,1.62,0,0,0-.34-.47,1.54,1.54,0,0,0-.49-.3,1.47,1.47,0,0,0-.59-.11,1.62,1.62,0,0,0-1.07.41,1.59,1.59,0,0,0-.33.47,1.77,1.77,0,0,0-.16.61Z"/><path class="cls-5" d="M96.33,142.52H95.24V139.6a1.86,1.86,0,0,0-.24-1.07.78.78,0,0,0-.69-.33,1.36,1.36,0,0,0-.48.09,1.66,1.66,0,0,0-.45.25,2,2,0,0,0-.37.39,1.74,1.74,0,0,0-.25.49v3.1h-1.1v-5.21h1v1.05a2.05,2.05,0,0,1,.86-.84,2.66,2.66,0,0,1,1.26-.3,1.6,1.6,0,0,1,.77.17,1.3,1.3,0,0,1,.47.46,1.83,1.83,0,0,1,.24.68,4.28,4.28,0,0,1,.07.81Z"/><path class="cls-5" d="M99.73,142.62a2.25,2.25,0,0,1-1-.21,2.37,2.37,0,0,1-.78-.59,2.55,2.55,0,0,1-.51-.86,2.85,2.85,0,0,1-.19-1.06,2.94,2.94,0,0,1,.18-1,2.54,2.54,0,0,1,.48-.85,2.47,2.47,0,0,1,.74-.59,2.19,2.19,0,0,1,2,.09,2.24,2.24,0,0,1,.75.78v-3.05h1.09v6a.48.48,0,0,0,.07.27.33.33,0,0,0,.23.09v.93a1.76,1.76,0,0,1-.27,0h-.18a.79.79,0,0,1-.53-.17.58.58,0,0,1-.23-.44l0-.38a2.13,2.13,0,0,1-.79.76A2.18,2.18,0,0,1,99.73,142.62Zm.27-.93a1.61,1.61,0,0,0,.48-.08,2,2,0,0,0,.44-.22,1.78,1.78,0,0,0,.34-.33,1.23,1.23,0,0,0,.21-.41v-1.37a1.75,1.75,0,0,0-.26-.46,2,2,0,0,0-.37-.35,1.69,1.69,0,0,0-.44-.23,1.34,1.34,0,0,0-.48-.08,1.21,1.21,0,0,0-.6.15,1.61,1.61,0,0,0-.47.39,2,2,0,0,0-.32.57,2.17,2.17,0,0,0-.11.66,1.77,1.77,0,0,0,.47,1.24,1.7,1.7,0,0,0,.5.38A1.4,1.4,0,0,0,100,141.69Z"/><path class="cls-5" d="M108.78,142.62a2.8,2.8,0,0,1-1.1-.21,2.45,2.45,0,0,1-.85-.59,2.54,2.54,0,0,1-.55-.85,2.79,2.79,0,0,1-.2-1,2.83,2.83,0,0,1,.2-1,2.63,2.63,0,0,1,.55-.87,2.59,2.59,0,0,1,.85-.59,2.82,2.82,0,0,1,1.11-.21,2.65,2.65,0,0,1,1.11.22,2.52,2.52,0,0,1,.84.58,2.49,2.49,0,0,1,.53.85,2.87,2.87,0,0,1,.19,1c0,.08,0,.16,0,.23a1.28,1.28,0,0,0,0,.17h-4.18a1.83,1.83,0,0,0,.16.63,1.85,1.85,0,0,0,.35.48,1.73,1.73,0,0,0,.49.32,1.56,1.56,0,0,0,.57.1,1.65,1.65,0,0,0,.44-.05,1.68,1.68,0,0,0,.39-.16,1.31,1.31,0,0,0,.32-.25,1.19,1.19,0,0,0,.22-.33l.94.27a2.18,2.18,0,0,1-.9,1A2.72,2.72,0,0,1,108.78,142.62Zm1.59-3.1a1.78,1.78,0,0,0-.17-.61,1.62,1.62,0,0,0-.34-.47,1.61,1.61,0,0,0-1.66-.3,1.5,1.5,0,0,0-.48.3,1.62,1.62,0,0,0-.34.47,1.77,1.77,0,0,0-.16.61Z"/><path class="cls-5" d="M117,142.52h-1.1V139.6a2,2,0,0,0-.23-1.07.81.81,0,0,0-.7-.33,1.36,1.36,0,0,0-.48.09,1.61,1.61,0,0,0-.44.25,2,2,0,0,0-.38.39,1.74,1.74,0,0,0-.25.49v3.1h-1.1v-5.21h1v1.05a2.14,2.14,0,0,1,.87-.84,2.6,2.6,0,0,1,1.25-.3,1.6,1.6,0,0,1,.77.17,1.22,1.22,0,0,1,.47.46,2,2,0,0,1,.25.68,5.31,5.31,0,0,1,.07.81Z"/><path class="cls-5" d="M121.15,142.25c-.14.07-.33.14-.57.23a2.56,2.56,0,0,1-.79.12,1.57,1.57,0,0,1-.49-.07,1,1,0,0,1-.4-.21.92.92,0,0,1-.28-.36,1.44,1.44,0,0,1-.1-.54v-3.26h-.69v-.85h.69v-1.72h1.1v1.72h1.14v.85h-1.14v2.91a.53.53,0,0,0,.17.4.63.63,0,0,0,.39.13,1.32,1.32,0,0,0,.44-.08l.3-.13Z"/><path class="cls-5" d="M124.84,138.26a2.46,2.46,0,0,0-1.13.29,1.52,1.52,0,0,0-.7.78v3.19h-1.1v-5.21h1v1.17a2.43,2.43,0,0,1,.7-.87,1.75,1.75,0,0,1,.93-.35h.28Z"/><path class="cls-5" d="M125.64,136.45v-1.2h1.09v1.2Zm0,6.07v-5.21h1.09v5.21Z"/><path class="cls-5" d="M130.41,142.62a2.8,2.8,0,0,1-1.1-.21,2.49,2.49,0,0,1-.86-.59,2.68,2.68,0,0,1-.54-.85,2.79,2.79,0,0,1-.2-1,2.83,2.83,0,0,1,.2-1,2.77,2.77,0,0,1,.54-.87,2.63,2.63,0,0,1,.86-.59,2.82,2.82,0,0,1,1.11-.21,2.57,2.57,0,0,1,1.1.22,2.67,2.67,0,0,1,.85.58,2.49,2.49,0,0,1,.53.85,2.87,2.87,0,0,1,.18,1,1.69,1.69,0,0,1,0,.23c0,.07,0,.12,0,.17h-4.18a1.83,1.83,0,0,0,.16.63,1.85,1.85,0,0,0,.35.48,1.6,1.6,0,0,0,.49.32,1.56,1.56,0,0,0,.57.1,1.65,1.65,0,0,0,.44-.05,1.68,1.68,0,0,0,.39-.16,1.31,1.31,0,0,0,.32-.25,1.19,1.19,0,0,0,.22-.33l.94.27a2.18,2.18,0,0,1-.9,1A2.74,2.74,0,0,1,130.41,142.62Zm1.59-3.1a1.78,1.78,0,0,0-.17-.61,1.62,1.62,0,0,0-.34-.47,1.44,1.44,0,0,0-.49-.3,1.47,1.47,0,0,0-.59-.11,1.43,1.43,0,0,0-.58.11,1.5,1.5,0,0,0-.48.3,1.45,1.45,0,0,0-.34.47,1.77,1.77,0,0,0-.16.61Z"/><path class="cls-5" d="M135.88,142.62a4.25,4.25,0,0,1-1.26-.2,3.17,3.17,0,0,1-1.07-.59l.44-.69a4.29,4.29,0,0,0,.93.51,2.52,2.52,0,0,0,.94.17,1.44,1.44,0,0,0,.77-.18.61.61,0,0,0,.28-.54.49.49,0,0,0-.32-.48,6.21,6.21,0,0,0-1-.33c-.33-.09-.61-.17-.84-.25a2.16,2.16,0,0,1-.57-.28.94.94,0,0,1-.32-.37,1.29,1.29,0,0,1-.1-.51,1.45,1.45,0,0,1,.16-.7,1.54,1.54,0,0,1,.42-.53,2,2,0,0,1,.65-.32,2.86,2.86,0,0,1,.8-.11,3.24,3.24,0,0,1,1.09.18,2.84,2.84,0,0,1,.91.52l-.47.66a2.41,2.41,0,0,0-1.54-.58,1.41,1.41,0,0,0-.71.17.6.6,0,0,0-.28.55.54.54,0,0,0,.06.27.44.44,0,0,0,.19.19,1.67,1.67,0,0,0,.35.15l.53.14c.36.09.66.18.92.26a2.64,2.64,0,0,1,.63.31,1.08,1.08,0,0,1,.37.4,1.26,1.26,0,0,1,.12.57,1.42,1.42,0,0,1-.56,1.18A2.46,2.46,0,0,1,135.88,142.62Z"/><path class="cls-5" d="M138.93,138.63v-1.27h.9v1.27Zm0,3.89v-1.27h.9v1.27Z"/><path class="cls-5" d="M143.38,142.52v-.74l.77-.71c1.52-1.42,2.24-2.19,2.25-3a1,1,0,0,0-1.16-1.09,2.34,2.34,0,0,0-1.38.54l-.36-.87a3.27,3.27,0,0,1,2-.66,1.92,1.92,0,0,1,2.14,2c0,1.14-.82,2-2,3.1l-.56.49v0h2.66v1Z"/><path class="cls-5" d="M153.3,139.23c0,2.1-.82,3.4-2.37,3.4s-2.29-1.35-2.3-3.33.86-3.36,2.38-3.36S153.3,137.33,153.3,139.23Zm-3.43.06c0,1.59.43,2.41,1.1,2.41s1.09-.88,1.09-2.44-.35-2.39-1.08-2.39S149.87,137.68,149.87,139.29Z"/><path class="cls-5" d="M157.2,142.25c-.14.07-.34.14-.58.23a2.56,2.56,0,0,1-.79.12,1.57,1.57,0,0,1-.49-.07,1,1,0,0,1-.4-.21.92.92,0,0,1-.28-.36,1.44,1.44,0,0,1-.1-.54v-3.26h-.68v-.85h.68v-1.72h1.1v1.72h1.14v.85h-1.14v2.91a.51.51,0,0,0,.18.4.6.6,0,0,0,.38.13,1.32,1.32,0,0,0,.44-.08l.31-.13Z"/><path class="cls-5" d="M162.63,142.52h-1.1V139.6a1.78,1.78,0,0,0-.25-1.06.86.86,0,0,0-.74-.34,1.2,1.2,0,0,0-.45.09,1.61,1.61,0,0,0-.44.25,1.92,1.92,0,0,0-.36.39,1.49,1.49,0,0,0-.24.49v3.1H158v-7.27h1.1v3.11a2.17,2.17,0,0,1,1.93-1.14,1.74,1.74,0,0,1,.81.17,1.5,1.5,0,0,1,.5.47,1.74,1.74,0,0,1,.26.67,4.28,4.28,0,0,1,.08.81Z"/><path class="cls-5" d="M172.46,142.52v-5.09l-2.11,3.86h-.61l-2.12-3.86v5.09h-1.11v-7.07h1.19l2.34,4.32,2.35-4.32h1.19v7.07Z"/><path class="cls-5" d="M176.37,142.62a2,2,0,0,1-.7-.12,1.89,1.89,0,0,1-.56-.35,1.71,1.71,0,0,1-.37-.51,1.57,1.57,0,0,1-.13-.65,1.35,1.35,0,0,1,.16-.67,1.71,1.71,0,0,1,.45-.52,2.4,2.4,0,0,1,.7-.34,3.14,3.14,0,0,1,.89-.12,3.54,3.54,0,0,1,.73.07,3.61,3.61,0,0,1,.65.17v-.36a1.22,1.22,0,0,0-.33-.9,1.29,1.29,0,0,0-1-.32,2.33,2.33,0,0,0-.82.15,3.58,3.58,0,0,0-.83.45l-.34-.7a3.71,3.71,0,0,1,2.09-.68,2.38,2.38,0,0,1,1.68.55,2,2,0,0,1,.59,1.57v1.89c0,.23.1.35.29.36v.93a1.47,1.47,0,0,1-.27,0h-.22a.7.7,0,0,1-.5-.16.65.65,0,0,1-.21-.41l0-.32a2.42,2.42,0,0,1-.86.7A2.61,2.61,0,0,1,176.37,142.62Zm.3-.81a1.94,1.94,0,0,0,.76-.14,1.35,1.35,0,0,0,.55-.4.51.51,0,0,0,.21-.38v-.69a4,4,0,0,0-.59-.17A3.34,3.34,0,0,0,177,140a1.67,1.67,0,0,0-1,.26.76.76,0,0,0-.37.67.85.85,0,0,0,.28.65A1,1,0,0,0,176.67,141.81Z"/><path class="cls-5" d="M183.54,138.26a2.46,2.46,0,0,0-1.13.29,1.52,1.52,0,0,0-.7.78v3.19h-1.1v-5.21h1v1.17a2.43,2.43,0,0,1,.7-.87,1.75,1.75,0,0,1,.93-.35h.28Z"/><path class="cls-5" d="M183.74,139.91a2.82,2.82,0,0,1,.19-1,2.68,2.68,0,0,1,.54-.85,2.63,2.63,0,0,1,.86-.59,2.82,2.82,0,0,1,1.11-.21,2.68,2.68,0,0,1,1.39.35,2.21,2.21,0,0,1,.87,1l-1.06.33a1.46,1.46,0,0,0-.51-.51,1.41,1.41,0,0,0-.71-.18,1.39,1.39,0,0,0-.61.13,1.36,1.36,0,0,0-.5.36,2,2,0,0,0-.32.55,2,2,0,0,0-.12.71,2,2,0,0,0,.12.7,1.8,1.8,0,0,0,.34.57,1.52,1.52,0,0,0,.5.37,1.36,1.36,0,0,0,1,.08,1.94,1.94,0,0,0,.36-.15,1.73,1.73,0,0,0,.29-.23.82.82,0,0,0,.19-.28l1.07.32a2.14,2.14,0,0,1-.86,1,2.71,2.71,0,0,1-1.44.37,2.64,2.64,0,0,1-1.1-.22,2.49,2.49,0,0,1-.86-.59,2.87,2.87,0,0,1-.55-.86A3,3,0,0,1,183.74,139.91Z"/><path class="cls-5" d="M194.33,142.52h-1.1V139.6a1.86,1.86,0,0,0-.25-1.06.86.86,0,0,0-.74-.34,1.29,1.29,0,0,0-.46.09,1.72,1.72,0,0,0-.43.25,1.67,1.67,0,0,0-.36.39,1.49,1.49,0,0,0-.24.49v3.1h-1.1v-7.27h1.1v3.11a2.18,2.18,0,0,1,.81-.84,2.16,2.16,0,0,1,1.12-.3,1.69,1.69,0,0,1,.8.17,1.54,1.54,0,0,1,.51.47,1.91,1.91,0,0,1,.26.67,4.28,4.28,0,0,1,.08.81Z"/><path class="cls-5" d="M197.83,142.52v-.74l.77-.71c1.53-1.42,2.24-2.19,2.25-3a1,1,0,0,0-1.15-1.09,2.34,2.34,0,0,0-1.39.54l-.36-.87a3.28,3.28,0,0,1,2-.66,1.92,1.92,0,0,1,2.13,2c0,1.14-.82,2-2,3.1l-.56.49v0h2.65v1Z"/><path class="cls-5" d="M207.75,139.23c0,2.1-.82,3.4-2.37,3.4s-2.28-1.35-2.29-3.33.85-3.36,2.37-3.36S207.75,137.33,207.75,139.23Zm-3.43.06c0,1.59.43,2.41,1.1,2.41s1.1-.88,1.1-2.44-.35-2.39-1.09-2.39S204.32,137.68,204.32,139.29Z"/><path class="cls-5" d="M208.52,142.52v-.74l.77-.71c1.52-1.42,2.24-2.19,2.25-3a1,1,0,0,0-1.16-1.09,2.31,2.31,0,0,0-1.38.54l-.36-.87a3.24,3.24,0,0,1,2-.66,1.91,1.91,0,0,1,2.13,2c0,1.14-.81,2-1.95,3.1l-.56.49v0h2.65v1Z"/><path class="cls-5" d="M215.78,137.15h0l-1.19.6-.21-.93,1.58-.77h1v6.47h-1.19Z"/><path class="cls-5" d="M140.39,155.27h.88l.72,2,.73-2h.87l-1,2.62.88,2.17,1.84-4.82h1l-2.44,5.9h-.79L142,158.5l-1.11,2.64h-.79l-2.44-5.9h1l1.84,4.82.88-2.17Z"/><path class="cls-5" d="M151.87,155.24v5.9h-.94v-2.6h-3v2.6H147v-5.9H148v2.47h3v-2.47Z"/><path class="cls-5" d="M154.93,155.24h.82l2.32,5.9h-1l-.62-1.6h-2.28l-.61,1.6h-1Zm1.36,3.61-.95-2.54-1,2.54Z"/><path class="cls-5" d="M162.55,156.06h-2v5.08h-.94v-5.08h-2v-.82h4.87Z"/><path class="cls-5" d="M165.16,161.14v-5.89h.93v3l2.77-3h1l-2.32,2.61,2.46,3.29h-1l-2-2.72-.9.94v1.78Z"/><path class="cls-5" d="M170.64,161.14v-5.9h.93v5.9Z"/><path class="cls-5" d="M173.83,157v4.15h-.93v-5.9h.73l3.37,4.25v-4.24h.94v5.89h-.77Z"/><path class="cls-5" d="M179.27,161.14v-5.9h2.09a3.17,3.17,0,0,1,1.25.23,2.7,2.7,0,0,1,.9.63,2.84,2.84,0,0,1,.55.94,3.58,3.58,0,0,1,.18,1.14,3.36,3.36,0,0,1-.21,1.22,2.59,2.59,0,0,1-.57.93,2.49,2.49,0,0,1-.91.6,3.19,3.19,0,0,1-1.19.21Zm4-3a2.57,2.57,0,0,0-.13-.85,1.7,1.7,0,0,0-.38-.67,1.67,1.67,0,0,0-.6-.44,2.1,2.1,0,0,0-.82-.16H180.2v4.26h1.16a2,2,0,0,0,.83-.17,1.68,1.68,0,0,0,.61-.44,2.23,2.23,0,0,0,.37-.68A2.86,2.86,0,0,0,183.29,158.18Z"/><path class="cls-5" d="M189.72,161.18a2.58,2.58,0,0,1-1.15-.25,2.85,2.85,0,0,1-.89-.68,2.94,2.94,0,0,1-.58-1,3,3,0,0,1-.2-1.1,3.1,3.1,0,0,1,.21-1.13,3.17,3.17,0,0,1,.6-1,3.08,3.08,0,0,1,.89-.66,2.71,2.71,0,0,1,1.14-.24,2.59,2.59,0,0,1,1.15.26,3,3,0,0,1,.89.69,3.3,3.3,0,0,1,.57,1,3.14,3.14,0,0,1,.2,1.09,3.07,3.07,0,0,1-.8,2.08,3.27,3.27,0,0,1-.9.66A2.7,2.7,0,0,1,189.72,161.18Zm-1.88-3a2.46,2.46,0,0,0,.14.81,2.09,2.09,0,0,0,.37.69,2,2,0,0,0,.6.47,1.66,1.66,0,0,0,.78.18,1.57,1.57,0,0,0,.79-.19,1.74,1.74,0,0,0,.59-.49,2.06,2.06,0,0,0,.36-.69,2.28,2.28,0,0,0,.13-.78,2.46,2.46,0,0,0-.14-.81,2,2,0,0,0-.37-.68,1.78,1.78,0,0,0-.59-.47,1.65,1.65,0,0,0-.77-.18,1.71,1.71,0,0,0-.8.18,2,2,0,0,0-.59.49,2.36,2.36,0,0,0-.37.68A2.67,2.67,0,0,0,187.84,158.19Z"/><path class="cls-5" d="M193.52,161.14v-5.9h3.92v.82h-3v1.76H197v.78h-2.5v2.54Z"/><path class="cls-5" d="M201.67,155.24h.82l2.32,5.9h-1l-.62-1.6h-2.28l-.61,1.6h-1Zm1.36,3.61-.95-2.54-1,2.54Z"/><path class="cls-5" d="M205.54,161.14v-5.9h2.57a1.68,1.68,0,0,1,.74.17,1.86,1.86,0,0,1,.57.43,2.07,2.07,0,0,1,.38.62,1.9,1.9,0,0,1,.14.7,1.79,1.79,0,0,1-.09.57,1.81,1.81,0,0,1-.23.51,1.54,1.54,0,0,1-.36.4,1.61,1.61,0,0,1-.48.26l1.39,2.24h-1.06l-1.27-2h-1.37v2Zm.93-2.88h1.63a.73.73,0,0,0,.36-.08.92.92,0,0,0,.28-.24,1.11,1.11,0,0,0,.18-.36,1.21,1.21,0,0,0,0-.84,1,1,0,0,0-.21-.35.89.89,0,0,0-.3-.24.73.73,0,0,0-.35-.09h-1.58Z"/><path class="cls-5" d="M215.27,156.06h-2v5.08h-.94v-5.08h-2v-.82h4.87Z"/><path class="cls-5" d="M215.42,157.89v-1h.76v1Zm0,3.25v-1.06h.76v1.06Z"/><path class="cls-5" d="M13.14,169.79v-5.12H15a2.79,2.79,0,0,1,1.09.2,2.34,2.34,0,0,1,.78.55,2.5,2.5,0,0,1,.47.81,3.21,3.21,0,0,1,.16,1,3,3,0,0,1-.18,1.06,2.41,2.41,0,0,1-.5.8,2.14,2.14,0,0,1-.79.52,2.59,2.59,0,0,1-1,.19Zm3.48-2.57a2.21,2.21,0,0,0-.11-.74,1.56,1.56,0,0,0-.85-1,1.76,1.76,0,0,0-.71-.14h-1v3.69h1a1.65,1.65,0,0,0,.72-.14,1.46,1.46,0,0,0,.53-.39,1.81,1.81,0,0,0,.32-.58A2.5,2.5,0,0,0,16.62,167.22Z"/><path class="cls-5" d="M18.2,165.4v-.87H19v.87Zm0,4.39V166H19v3.77Z"/><path class="cls-5" d="M21.43,169.82a1.63,1.63,0,0,1-.7-.15,1.87,1.87,0,0,1-.54-.42,2,2,0,0,1-.35-.62,2,2,0,0,1-.13-.72,2.09,2.09,0,0,1,.13-.76,2,2,0,0,1,.36-.62,1.62,1.62,0,0,1,.55-.42,1.51,1.51,0,0,1,.71-.16,1.44,1.44,0,0,1,.8.22,1.87,1.87,0,0,1,.56.56V166h.7v3.66a1.7,1.7,0,0,1-.15.73,1.46,1.46,0,0,1-.42.53,1.87,1.87,0,0,1-.64.34,2.52,2.52,0,0,1-.79.11,2.26,2.26,0,0,1-1-.21,2,2,0,0,1-.7-.59l.45-.42a1.41,1.41,0,0,0,.56.46,1.66,1.66,0,0,0,.73.16,1.39,1.39,0,0,0,.46-.07,1,1,0,0,0,.39-.2.88.88,0,0,0,.26-.34,1.12,1.12,0,0,0,.1-.5v-.58a1.45,1.45,0,0,1-.56.54A1.59,1.59,0,0,1,21.43,169.82Zm.26-.64a1,1,0,0,0,.35-.06,1.11,1.11,0,0,0,.3-.17.76.76,0,0,0,.24-.23.89.89,0,0,0,.15-.29v-1a1.49,1.49,0,0,0-.45-.58,1.34,1.34,0,0,0-.31-.17,1.06,1.06,0,0,0-.34-.06,1,1,0,0,0-.46.11,1.27,1.27,0,0,0-.35.3,1.25,1.25,0,0,0-.22.41,1.31,1.31,0,0,0-.08.48,1.28,1.28,0,0,0,.09.48,1.22,1.22,0,0,0,.24.4,1.31,1.31,0,0,0,.38.27A1,1,0,0,0,21.69,169.18Z"/><path class="cls-5" d="M24.47,165.4v-.87h.8v.87Zm0,4.39V166h.8v3.77Z"/><path class="cls-5" d="M28.31,169.59a4,4,0,0,1-.41.16,1.79,1.79,0,0,1-.57.09,1,1,0,0,1-.36-.05.8.8,0,0,1-.29-.15.67.67,0,0,1-.2-.26,1.13,1.13,0,0,1-.07-.39v-2.36h-.5V166h.5v-1.24h.79V166H28v.61H27.2v2.1a.42.42,0,0,0,.13.3.43.43,0,0,0,.28.09.81.81,0,0,0,.31-.06l.23-.09Z"/><path class="cls-5" d="M29.86,169.86a1.35,1.35,0,0,1-.5-.09,1.13,1.13,0,0,1-.41-.25,1.26,1.26,0,0,1-.27-.37,1.23,1.23,0,0,1-.09-.47,1.14,1.14,0,0,1,.11-.49,1.28,1.28,0,0,1,.33-.37,1.52,1.52,0,0,1,.51-.25,2.49,2.49,0,0,1,.64-.08,2.38,2.38,0,0,1,.53,0,2.93,2.93,0,0,1,.47.12v-.26a.87.87,0,0,0-.24-.65.93.93,0,0,0-.69-.23,1.51,1.51,0,0,0-.59.11,2.5,2.5,0,0,0-.6.32l-.25-.51a2.73,2.73,0,0,1,1.51-.49,1.77,1.77,0,0,1,1.22.4,1.48,1.48,0,0,1,.43,1.14v1.36c0,.17.07.25.21.26v.68l-.2,0h-.16a.53.53,0,0,1-.36-.11.48.48,0,0,1-.15-.3l0-.24a1.61,1.61,0,0,1-.62.51A1.8,1.8,0,0,1,29.86,169.86Zm.22-.58a1.41,1.41,0,0,0,.54-.11.94.94,0,0,0,.4-.29.39.39,0,0,0,.16-.28v-.49a2.11,2.11,0,0,0-.43-.12,2.3,2.3,0,0,0-.45-.05,1.15,1.15,0,0,0-.69.19.55.55,0,0,0-.27.48.59.59,0,0,0,.21.47A.74.74,0,0,0,30.08,169.28Z"/><path class="cls-5" d="M32.93,164.53h.8v4.17a.48.48,0,0,0,.1.33.41.41,0,0,0,.31.12l.18,0,.2-.07.11.62a1.8,1.8,0,0,1-.41.13,2.27,2.27,0,0,1-.42,0,.78.78,0,0,1-.87-.85Z"/><path class="cls-5" d="M37.65,169.86a1.35,1.35,0,0,1-.5-.09,1.22,1.22,0,0,1-.41-.25,1.17,1.17,0,0,1-.36-.84,1.14,1.14,0,0,1,.11-.49,1.28,1.28,0,0,1,.33-.37,1.52,1.52,0,0,1,.51-.25,2.55,2.55,0,0,1,.64-.08,2.38,2.38,0,0,1,.53,0,2.93,2.93,0,0,1,.47.12v-.26a.87.87,0,0,0-.24-.65.93.93,0,0,0-.69-.23,1.51,1.51,0,0,0-.59.11,2.5,2.5,0,0,0-.6.32l-.25-.51a2.74,2.74,0,0,1,1.52-.49,1.75,1.75,0,0,1,1.21.4,1.48,1.48,0,0,1,.43,1.14v1.36c0,.17.07.25.21.26v.68l-.2,0h-.16a.55.55,0,0,1-.36-.11.48.48,0,0,1-.15-.3l0-.24a1.54,1.54,0,0,1-.62.51A1.8,1.8,0,0,1,37.65,169.86Zm.22-.58a1.41,1.41,0,0,0,.54-.11.89.89,0,0,0,.4-.29.36.36,0,0,0,.16-.28v-.49a2.11,2.11,0,0,0-.43-.12,2.3,2.3,0,0,0-.45-.05,1.15,1.15,0,0,0-.69.19.55.55,0,0,0-.27.48.59.59,0,0,0,.21.47A.74.74,0,0,0,37.87,169.28Z"/><path class="cls-5" d="M42.84,166.7a1.7,1.7,0,0,0-.82.22,1.11,1.11,0,0,0-.51.56v2.31h-.79V166h.73v.84a1.65,1.65,0,0,1,.51-.62,1.24,1.24,0,0,1,.67-.26h.21Z"/><path class="cls-5" d="M45.51,169.59a3.46,3.46,0,0,1-.42.16,1.79,1.79,0,0,1-.57.09,1,1,0,0,1-.35-.05.73.73,0,0,1-.29-.15.59.59,0,0,1-.2-.26.94.94,0,0,1-.07-.39v-2.36h-.5V166h.5v-1.24h.79V166h.82v.61H44.4v2.1a.39.39,0,0,0,.13.3.4.4,0,0,0,.27.09.87.87,0,0,0,.32-.06l.22-.09Z"/><path class="cls-5" d="M46.11,170.49l.17-.75H46v-.88h.71v.88l-.25.75Z"/><path class="cls-5" d="M49.53,169.79v-5.12h1.82a2.77,2.77,0,0,1,1.08.2,2.34,2.34,0,0,1,.78.55,2.19,2.19,0,0,1,.47.81,2.94,2.94,0,0,1,.16,1,3,3,0,0,1-.18,1.06,2.13,2.13,0,0,1-.5.8,2.1,2.1,0,0,1-.78.52,2.63,2.63,0,0,1-1,.19ZM53,167.22a2.5,2.5,0,0,0-.11-.74,1.72,1.72,0,0,0-.33-.58,1.56,1.56,0,0,0-.53-.38,1.71,1.71,0,0,0-.7-.14h-1v3.69h1a1.61,1.61,0,0,0,.71-.14,1.38,1.38,0,0,0,.53-.39,1.64,1.64,0,0,0,.32-.58A2.5,2.5,0,0,0,53,167.22Z"/><path class="cls-5" d="M56.71,166.7a1.7,1.7,0,0,0-.82.22,1.11,1.11,0,0,0-.51.56v2.31h-.79V166h.74v.84a1.63,1.63,0,0,1,.5-.62,1.27,1.27,0,0,1,.68-.26h.2Z"/><path class="cls-5" d="M58.24,169.86a1.36,1.36,0,0,1-.51-.09,1.22,1.22,0,0,1-.41-.25,1.17,1.17,0,0,1-.36-.84,1,1,0,0,1,.12-.49,1.11,1.11,0,0,1,.32-.37,1.62,1.62,0,0,1,.51-.25,2.55,2.55,0,0,1,.64-.08,2.32,2.32,0,0,1,.53,0,2.93,2.93,0,0,1,.47.12v-.26a.87.87,0,0,0-.24-.65.92.92,0,0,0-.68-.23,1.56,1.56,0,0,0-.6.11,2.94,2.94,0,0,0-.6.32l-.25-.51A2.74,2.74,0,0,1,58.7,166a1.75,1.75,0,0,1,1.21.4,1.45,1.45,0,0,1,.43,1.14v1.36c0,.17.07.25.21.26v.68l-.2,0h-.16a.57.57,0,0,1-.36-.11.54.54,0,0,1-.15-.3l0-.24a1.64,1.64,0,0,1-.63.51A1.76,1.76,0,0,1,58.24,169.86Zm.21-.58a1.46,1.46,0,0,0,.55-.11,1,1,0,0,0,.4-.29.38.38,0,0,0,.15-.28v-.49a2.11,2.11,0,0,0-.43-.12,2.28,2.28,0,0,0-.44-.05,1.16,1.16,0,0,0-.7.19.55.55,0,0,0-.27.48.59.59,0,0,0,.21.47A.76.76,0,0,0,58.45,169.28Z"/><path class="cls-5" d="M65.9,166h.75l-1.58,3.77h-.66l-.7-1.75L63,169.79h-.66L60.77,166h.75l1.22,3,.55-1.39L62.63,166h.65l.43,1.19.43-1.19h.65l-.65,1.61.55,1.39Z"/><path class="cls-5" d="M67.18,165.4v-.87H68v.87Zm0,4.39V166H68v3.77Z"/><path class="cls-5" d="M72.3,169.79h-.79v-2.11a1.33,1.33,0,0,0-.17-.78.57.57,0,0,0-.5-.24,1,1,0,0,0-.34.06,1.35,1.35,0,0,0-.33.19,1.44,1.44,0,0,0-.27.28,1.22,1.22,0,0,0-.18.36v2.24h-.8V166h.72v.75a1.65,1.65,0,0,1,.63-.6,2,2,0,0,1,.91-.22,1,1,0,0,1,.55.13.93.93,0,0,1,.35.33,1.5,1.5,0,0,1,.17.49,2.82,2.82,0,0,1,0,.59Z"/><path class="cls-5" d="M74.72,169.82a1.6,1.6,0,0,1-.7-.15,1.87,1.87,0,0,1-.54-.42,2,2,0,0,1-.36-.62,2.18,2.18,0,0,1-.12-.72,2.09,2.09,0,0,1,.13-.76,1.66,1.66,0,0,1,.36-.62,1.66,1.66,0,0,1,1.26-.58,1.38,1.38,0,0,1,.79.22,1.79,1.79,0,0,1,.57.56V166h.7v3.66a1.7,1.7,0,0,1-.15.73,1.46,1.46,0,0,1-.42.53,2,2,0,0,1-.64.34,2.56,2.56,0,0,1-.79.11,2.34,2.34,0,0,1-1-.21,2.05,2.05,0,0,1-.69-.59l.45-.42a1.45,1.45,0,0,0,.55.46,1.7,1.7,0,0,0,.74.16,1.43,1.43,0,0,0,.46-.07,1,1,0,0,0,.39-.2,1,1,0,0,0,.26-.34,1.27,1.27,0,0,0,.1-.5v-.58a1.45,1.45,0,0,1-.56.54A1.59,1.59,0,0,1,74.72,169.82Zm.26-.64a1,1,0,0,0,.34-.06,1.17,1.17,0,0,0,.31-.17.88.88,0,0,0,.24-.23.89.89,0,0,0,.15-.29v-1a1.29,1.29,0,0,0-.19-.32,1.6,1.6,0,0,0-.26-.26,1.41,1.41,0,0,0-.32-.17,1,1,0,0,0-.33-.06,1,1,0,0,0-.46.11,1.14,1.14,0,0,0-.35.3,1.5,1.5,0,0,0-.23.41,1.56,1.56,0,0,0-.08.48,1.28,1.28,0,0,0,.09.48,1.24,1.24,0,0,0,.25.4,1.41,1.41,0,0,0,.37.27A1,1,0,0,0,75,169.18Z"/><path class="cls-5" d="M77.81,170.49l.17-.75h-.26v-.88h.72v.88l-.26.75Z"/><path class="cls-5" d="M81.23,169.79v-5.12h2.15a1.53,1.53,0,0,1,.64.14,1.89,1.89,0,0,1,.5.38,1.87,1.87,0,0,1,.33.54,1.61,1.61,0,0,1,.12.6,1.9,1.9,0,0,1-.11.63,1.67,1.67,0,0,1-.32.53,1.5,1.5,0,0,1-.48.38,1.46,1.46,0,0,1-.63.14H82v1.78Zm.81-2.5h1.33a.68.68,0,0,0,.32-.07.76.76,0,0,0,.24-.2,1.08,1.08,0,0,0,.16-.3,1.23,1.23,0,0,0,.06-.39,1.12,1.12,0,0,0-.07-.38.75.75,0,0,0-.18-.3.75.75,0,0,0-.57-.27H82Z"/><path class="cls-5" d="M86.59,169.86a1.44,1.44,0,0,1-.51-.09,1.09,1.09,0,0,1-.4-.25,1.11,1.11,0,0,1-.27-.37,1.24,1.24,0,0,1-.1-.47,1,1,0,0,1,.12-.49,1,1,0,0,1,.33-.37,1.56,1.56,0,0,1,.5-.25,2.57,2.57,0,0,1,.65-.08,2.29,2.29,0,0,1,.52,0,2.93,2.93,0,0,1,.47.12v-.26a.87.87,0,0,0-.24-.65.92.92,0,0,0-.68-.23,1.59,1.59,0,0,0-.6.11,2.94,2.94,0,0,0-.6.32l-.24-.51a2.71,2.71,0,0,1,1.51-.49,1.75,1.75,0,0,1,1.21.4,1.45,1.45,0,0,1,.43,1.14v1.36c0,.17.07.25.21.26v.68l-.2,0h-.16a.57.57,0,0,1-.36-.11.54.54,0,0,1-.15-.3l0-.24a1.64,1.64,0,0,1-.63.51A1.76,1.76,0,0,1,86.59,169.86Zm.21-.58a1.42,1.42,0,0,0,.55-.11,1,1,0,0,0,.4-.29.38.38,0,0,0,.15-.28v-.49a1.94,1.94,0,0,0-.43-.12,2.28,2.28,0,0,0-.44-.05,1.16,1.16,0,0,0-.7.19.55.55,0,0,0-.27.48.59.59,0,0,0,.21.47A.76.76,0,0,0,86.8,169.28Z"/><path class="cls-5" d="M89.65,165.4v-.87h.79v.87Zm0,4.39V166h.79v3.77Z"/><path class="cls-5" d="M94.78,169.79H94v-2.11a1.33,1.33,0,0,0-.17-.78.57.57,0,0,0-.5-.24,1,1,0,0,0-.34.06,1.35,1.35,0,0,0-.33.19,1.44,1.44,0,0,0-.27.28,1.22,1.22,0,0,0-.18.36v2.24H91.4V166h.72v.75a1.56,1.56,0,0,1,.62-.6,2,2,0,0,1,.91-.22,1.06,1.06,0,0,1,.56.13.9.9,0,0,1,.34.33,1.78,1.78,0,0,1,.18.49,3.7,3.7,0,0,1,0,.59Z"/><path class="cls-5" d="M97.76,169.59a3.46,3.46,0,0,1-.42.16,1.79,1.79,0,0,1-.57.09,1,1,0,0,1-.35-.05.73.73,0,0,1-.29-.15.59.59,0,0,1-.2-.26.94.94,0,0,1-.07-.39v-2.36h-.5V166h.5v-1.24h.79V166h.82v.61h-.82v2.1a.42.42,0,0,0,.12.3.45.45,0,0,0,.28.09.87.87,0,0,0,.32-.06l.22-.09Z"/><path class="cls-5" d="M98.31,165.4v-.87h.79v.87Zm0,4.39V166h.79v3.77Z"/><path class="cls-5" d="M103.43,169.79h-.79v-2.11a1.41,1.41,0,0,0-.17-.78.57.57,0,0,0-.5-.24,1.07,1.07,0,0,0-.35.06,1.5,1.5,0,0,0-.32.19,1.44,1.44,0,0,0-.27.28,1.55,1.55,0,0,0-.19.36v2.24h-.79V166h.72v.75a1.65,1.65,0,0,1,.63-.6,2,2,0,0,1,.91-.22,1,1,0,0,1,.55.13.83.83,0,0,1,.34.33,1.31,1.31,0,0,1,.18.49,3.7,3.7,0,0,1,.05.59Z"/><path class="cls-5" d="M105.85,169.82a1.6,1.6,0,0,1-.7-.15,1.79,1.79,0,0,1-.55-.42,2,2,0,0,1-.35-.62,2,2,0,0,1-.13-.72,2.33,2.33,0,0,1,.13-.76,2,2,0,0,1,.36-.62,1.72,1.72,0,0,1,.55-.42,1.54,1.54,0,0,1,.71-.16,1.41,1.41,0,0,1,.8.22,1.79,1.79,0,0,1,.57.56V166h.69v3.66a1.7,1.7,0,0,1-.15.73,1.46,1.46,0,0,1-.42.53,1.87,1.87,0,0,1-.64.34,2.48,2.48,0,0,1-.79.11,2.29,2.29,0,0,1-1-.21,2,2,0,0,1-.7-.59l.45-.42a1.48,1.48,0,0,0,.56.46,1.66,1.66,0,0,0,.73.16,1.49,1.49,0,0,0,.47-.07,1.07,1.07,0,0,0,.38-.2.88.88,0,0,0,.26-.34,1.12,1.12,0,0,0,.1-.5v-.58a1.43,1.43,0,0,1-.55.54A1.65,1.65,0,0,1,105.85,169.82Zm.25-.64a1,1,0,0,0,.35-.06,1.34,1.34,0,0,0,.31-.17,1,1,0,0,0,.24-.23,1.11,1.11,0,0,0,.14-.29v-1a1.29,1.29,0,0,0-.19-.32,1.07,1.07,0,0,0-.26-.26,1.34,1.34,0,0,0-.31-.17,1,1,0,0,0-.33-.06,1,1,0,0,0-.47.11,1.27,1.27,0,0,0-.35.3,1.47,1.47,0,0,0-.22.41,1.56,1.56,0,0,0-.08.48,1.28,1.28,0,0,0,.09.48,1.09,1.09,0,0,0,.25.4,1.26,1.26,0,0,0,.37.27A1,1,0,0,0,106.1,169.18Z"/><path class="cls-5" d="M108.94,170.49l.17-.75h-.26v-.88h.71v.88l-.25.75Z"/><path class="cls-5" d="M112.36,169.79v-5.12h1.82a2.77,2.77,0,0,1,1.08.2,2.34,2.34,0,0,1,.78.55,2.19,2.19,0,0,1,.47.81,2.94,2.94,0,0,1,.16,1,3,3,0,0,1-.18,1.06,2.13,2.13,0,0,1-.5.8,2.1,2.1,0,0,1-.78.52,2.63,2.63,0,0,1-1,.19Zm3.49-2.57a2.5,2.5,0,0,0-.11-.74,1.72,1.72,0,0,0-.33-.58,1.56,1.56,0,0,0-.53-.38,1.71,1.71,0,0,0-.7-.14h-1v3.69h1a1.61,1.61,0,0,0,.71-.14,1.38,1.38,0,0,0,.53-.39,1.64,1.64,0,0,0,.32-.58A2.5,2.5,0,0,0,115.85,167.22Z"/><path class="cls-5" d="M119.11,169.86a1.87,1.87,0,0,1-.8-.16,1.9,1.9,0,0,1-.61-.42,1.86,1.86,0,0,1-.39-.63,2.07,2.07,0,0,1-.14-.74,2.12,2.12,0,0,1,.14-.75,1.72,1.72,0,0,1,.39-.62,2,2,0,0,1,.62-.43,2,2,0,0,1,.79-.16,2,2,0,0,1,.8.16,1.92,1.92,0,0,1,.61.43,1.72,1.72,0,0,1,.39.62,1.92,1.92,0,0,1,.14.75,2,2,0,0,1-.53,1.37,1.9,1.9,0,0,1-.61.42A1.87,1.87,0,0,1,119.11,169.86Zm-1.12-2a1.4,1.4,0,0,0,.09.51,1.13,1.13,0,0,0,.23.4,1,1,0,0,0,.36.26,1,1,0,0,0,.44.1,1,1,0,0,0,.45-.1,1,1,0,0,0,.35-.27,1.33,1.33,0,0,0,.24-.4,1.43,1.43,0,0,0,0-1,1.27,1.27,0,0,0-.24-.41,1,1,0,0,0-.35-.27,1,1,0,0,0-.45-.1.91.91,0,0,0-.43.1,1.09,1.09,0,0,0-.36.28,1.33,1.33,0,0,0-.24.4A1.43,1.43,0,0,0,118,167.91Z"/><path class="cls-5" d="M123.45,169.86a1.87,1.87,0,0,1-.8-.16,1.9,1.9,0,0,1-.61-.42,1.86,1.86,0,0,1-.39-.63,2.07,2.07,0,0,1-.14-.74,2.12,2.12,0,0,1,.14-.75,1.72,1.72,0,0,1,.39-.62,2,2,0,0,1,.61-.43,2.08,2.08,0,0,1,1.6,0,2,2,0,0,1,.61.43,1.72,1.72,0,0,1,.39.62,2.12,2.12,0,0,1,.14.75,2.07,2.07,0,0,1-.14.74,1.86,1.86,0,0,1-.39.63,2,2,0,0,1-.61.42A1.91,1.91,0,0,1,123.45,169.86Zm-1.12-2a1.65,1.65,0,0,0,.08.51,1.33,1.33,0,0,0,.24.4,1,1,0,0,0,.36.26,1,1,0,0,0,.88,0,1,1,0,0,0,.36-.27,1.33,1.33,0,0,0,.24-.4,1.43,1.43,0,0,0,0-1,1.27,1.27,0,0,0-.24-.41,1,1,0,0,0-.36-.27.92.92,0,0,0-.44-.1.91.91,0,0,0-.43.1,1.09,1.09,0,0,0-.36.28,1.33,1.33,0,0,0-.24.4A1.43,1.43,0,0,0,122.33,167.91Z"/><path class="cls-5" d="M127.63,169.86a1.5,1.5,0,0,1-.7-.16,1.69,1.69,0,0,1-.57-.42,1.93,1.93,0,0,1-.37-.62,2.15,2.15,0,0,1-.13-.77,2.25,2.25,0,0,1,.12-.74,2.1,2.1,0,0,1,.36-.62,1.64,1.64,0,0,1,.53-.42,1.38,1.38,0,0,1,.67-.16,1.56,1.56,0,0,1,.81.22,1.7,1.7,0,0,1,.54.56v-2.2h.79v4.32c0,.09,0,.16,0,.19a.22.22,0,0,0,.16.07v.68l-.19,0h-.13a.61.61,0,0,1-.39-.12.4.4,0,0,1-.16-.32l0-.28a1.53,1.53,0,0,1-.57.56A1.67,1.67,0,0,1,127.63,169.86Zm.2-.68a1,1,0,0,0,.34-.06,1.17,1.17,0,0,0,.32-.15,1.14,1.14,0,0,0,.25-.24.85.85,0,0,0,.15-.3v-1a1.35,1.35,0,0,0-.19-.33,1.66,1.66,0,0,0-.27-.26,1.37,1.37,0,0,0-.32-.16,1,1,0,0,0-.34-.06.93.93,0,0,0-.44.11,1.17,1.17,0,0,0-.34.29,1.36,1.36,0,0,0-.23.41,1.5,1.5,0,0,0-.08.47,1.3,1.3,0,0,0,.09.49,1.22,1.22,0,0,0,.25.41,1.36,1.36,0,0,0,.36.27A1,1,0,0,0,127.83,169.18Z"/><path class="cls-5" d="M130.69,164.53h.8v4.17a.44.44,0,0,0,.11.33.38.38,0,0,0,.3.12l.18,0,.2-.07.11.62a1.8,1.8,0,0,1-.41.13,2.19,2.19,0,0,1-.42,0,.87.87,0,0,1-.64-.22.85.85,0,0,1-.23-.63Z"/><path class="cls-5" d="M134.56,169.86a1.91,1.91,0,0,1-.8-.16,1.75,1.75,0,0,1-.61-.42,2,2,0,0,1-.4-.62,2,2,0,0,1-.14-.75,2.12,2.12,0,0,1,.14-.75,2.05,2.05,0,0,1,.4-.63,1.75,1.75,0,0,1,.61-.42,1.92,1.92,0,0,1,.81-.16,1.93,1.93,0,0,1,1.41.58,2,2,0,0,1,.38.62,2,2,0,0,1,.14.73c0,.06,0,.11,0,.16s0,.09,0,.13h-3a1.57,1.57,0,0,0,.12.45,1.28,1.28,0,0,0,.26.35,1.18,1.18,0,0,0,.35.23,1.15,1.15,0,0,0,.41.08,1.75,1.75,0,0,0,.32,0,1.39,1.39,0,0,0,.28-.12,1,1,0,0,0,.23-.18.91.91,0,0,0,.16-.24l.68.19a1.56,1.56,0,0,1-.65.7A2,2,0,0,1,134.56,169.86Zm1.15-2.24a1.07,1.07,0,0,0-.12-.44,1,1,0,0,0-.25-.34,1,1,0,0,0-.35-.22,1.06,1.06,0,0,0-.43-.08,1,1,0,0,0-.42.08,1,1,0,0,0-.35.22,1,1,0,0,0-.24.34,1.5,1.5,0,0,0-.12.44Z"/><path class="cls-5" d="M137.19,170.49l.18-.75h-.26v-.88h.71v.88l-.25.75Z"/><path class="cls-5" d="M140.62,169.79v-5.12h2.15a1.46,1.46,0,0,1,.63.14,1.61,1.61,0,0,1,.5.38,1.87,1.87,0,0,1,.33.54,1.61,1.61,0,0,1,.12.6,1.9,1.9,0,0,1-.11.63,1.85,1.85,0,0,1-.31.53,1.66,1.66,0,0,1-.49.38,1.46,1.46,0,0,1-.63.14h-1.38v1.78Zm.81-2.5h1.33a.64.64,0,0,0,.31-.07.59.59,0,0,0,.24-.2,1.08,1.08,0,0,0,.16-.3,1.23,1.23,0,0,0,.06-.39.92.92,0,0,0-.07-.38.75.75,0,0,0-.18-.3.73.73,0,0,0-.26-.2.82.82,0,0,0-.3-.07h-1.29Z"/><path class="cls-5" d="M146.64,169.86a1.92,1.92,0,0,1-.81-.16,1.9,1.9,0,0,1-.61-.42,2.23,2.23,0,0,1-.39-.63,2.06,2.06,0,0,1-.13-.74,2.11,2.11,0,0,1,.13-.75,1.89,1.89,0,0,1,.4-.62,1.92,1.92,0,0,1,.61-.43,2.06,2.06,0,0,1,1.59,0,1.92,1.92,0,0,1,.61.43,1.62,1.62,0,0,1,.4.62,2.11,2.11,0,0,1,.13.75,2.06,2.06,0,0,1-.13.74,1.74,1.74,0,0,1-.4.63,1.9,1.9,0,0,1-.61.42A1.86,1.86,0,0,1,146.64,169.86Zm-1.13-2a1.4,1.4,0,0,0,.09.51,1.15,1.15,0,0,0,.24.4,1.1,1.1,0,0,0,.35.26,1,1,0,0,0,.45.1,1,1,0,0,0,.44-.1,1,1,0,0,0,.36-.27,1.13,1.13,0,0,0,.23-.4,1.43,1.43,0,0,0,0-1,1.09,1.09,0,0,0-.23-.41,1,1,0,0,0-.36-.27,1,1,0,0,0-.44-.1,1,1,0,0,0-.44.1,1.09,1.09,0,0,0-.36.28,1.33,1.33,0,0,0-.24.4A1.43,1.43,0,0,0,145.51,167.91Z"/><path class="cls-5" d="M150.65,169.86a2.83,2.83,0,0,1-.9-.15,2.43,2.43,0,0,1-.78-.42l.32-.5a3.19,3.19,0,0,0,.67.37,2,2,0,0,0,.68.12,1,1,0,0,0,.55-.13.46.46,0,0,0,.21-.39.37.37,0,0,0-.23-.35,5.38,5.38,0,0,0-.72-.24c-.24-.06-.44-.12-.61-.18a1.31,1.31,0,0,1-.41-.2.74.74,0,0,1-.23-.27.8.8,0,0,1-.07-.36,1.13,1.13,0,0,1,.11-.51,1.15,1.15,0,0,1,.31-.38A1.39,1.39,0,0,1,150,166a2.07,2.07,0,0,1,.57-.08,2.58,2.58,0,0,1,.8.13,2,2,0,0,1,.65.38l-.34.47a1.74,1.74,0,0,0-1.11-.41,1,1,0,0,0-.51.12.44.44,0,0,0-.21.4.42.42,0,0,0,0,.2.3.3,0,0,0,.14.13.84.84,0,0,0,.25.11l.38.1c.26.06.48.13.66.19a1.52,1.52,0,0,1,.46.22.82.82,0,0,1,.27.29.88.88,0,0,1,.08.41,1,1,0,0,1-.4.86A1.85,1.85,0,0,1,150.65,169.86Z"/><path class="cls-5" d="M155,169.59a3.46,3.46,0,0,1-.42.16,1.69,1.69,0,0,1-.56.09,1,1,0,0,1-.36-.05.73.73,0,0,1-.29-.15.67.67,0,0,1-.2-.26.94.94,0,0,1-.07-.39v-2.36h-.5V166h.5v-1.24h.79V166h.82v.61h-.82v2.1a.39.39,0,0,0,.13.3.43.43,0,0,0,.28.09.81.81,0,0,0,.31-.06l.23-.09Z"/><path class="cls-5" d="M157.11,169.86a1.94,1.94,0,0,1-.8-.16,1.75,1.75,0,0,1-.61-.42,2,2,0,0,1-.4-.62,2,2,0,0,1-.14-.75,2.12,2.12,0,0,1,.14-.75,2.05,2.05,0,0,1,.4-.63,1.75,1.75,0,0,1,.61-.42,2,2,0,0,1,.81-.16,2,2,0,0,1,.8.16,2.07,2.07,0,0,1,.61.42,1.79,1.79,0,0,1,.38.62,2,2,0,0,1,.14.73c0,.06,0,.11,0,.16s0,.09,0,.13h-3a1.29,1.29,0,0,0,.11.45,1.28,1.28,0,0,0,.26.35,1.18,1.18,0,0,0,.35.23,1.15,1.15,0,0,0,.41.08,1.75,1.75,0,0,0,.32,0,1.18,1.18,0,0,0,.28-.12,1,1,0,0,0,.23-.18.91.91,0,0,0,.16-.24l.68.19a1.56,1.56,0,0,1-.65.7A2,2,0,0,1,157.11,169.86Zm1.15-2.24a1.07,1.07,0,0,0-.12-.44,1,1,0,0,0-.25-.34,1,1,0,0,0-.35-.22,1,1,0,0,0-.43-.08,1,1,0,0,0-.42.08,1,1,0,0,0-.35.22,1,1,0,0,0-.24.34,1.5,1.5,0,0,0-.12.44Z"/><path class="cls-5" d="M161.81,166.7a1.66,1.66,0,0,0-.81.22,1.11,1.11,0,0,0-.51.56v2.31h-.8V166h.74v.84a1.65,1.65,0,0,1,.51-.62,1.24,1.24,0,0,1,.67-.26h.2Z"/><path class="cls-5" d="M164,168.17v-.71h2.16v.71Z"/><path class="cls-5" d="M169.81,169.86a1.35,1.35,0,0,1-.5-.09,1.13,1.13,0,0,1-.41-.25,1.26,1.26,0,0,1-.27-.37,1.23,1.23,0,0,1-.09-.47,1.14,1.14,0,0,1,.11-.49,1.28,1.28,0,0,1,.33-.37,1.56,1.56,0,0,1,.5-.25,2.63,2.63,0,0,1,.65-.08,2.38,2.38,0,0,1,.53,0,2.8,2.8,0,0,1,.46.12v-.26a.86.86,0,0,0-.23-.65.93.93,0,0,0-.69-.23,1.51,1.51,0,0,0-.59.11,2.5,2.5,0,0,0-.6.32l-.25-.51a2.73,2.73,0,0,1,1.51-.49,1.73,1.73,0,0,1,1.21.4,1.45,1.45,0,0,1,.44,1.14v1.36c0,.17.07.25.21.26v.68l-.2,0h-.16a.53.53,0,0,1-.36-.11.49.49,0,0,1-.16-.3l0-.24a1.61,1.61,0,0,1-.62.51A1.8,1.8,0,0,1,169.81,169.86Zm.22-.58a1.41,1.41,0,0,0,.54-.11.94.94,0,0,0,.4-.29.38.38,0,0,0,.15-.28v-.49a1.86,1.86,0,0,0-.42-.12,2.38,2.38,0,0,0-.45-.05,1.15,1.15,0,0,0-.69.19.55.55,0,0,0-.27.48.59.59,0,0,0,.21.47A.74.74,0,0,0,170,169.28Z"/><path class="cls-5" d="M176.26,169.79h-.8v-2.11a1.33,1.33,0,0,0-.17-.78.57.57,0,0,0-.5-.24,1,1,0,0,0-.34.06,1.35,1.35,0,0,0-.33.19,1.44,1.44,0,0,0-.27.28,1.22,1.22,0,0,0-.18.36v2.24h-.79V166h.72v.75a1.56,1.56,0,0,1,.62-.6,2,2,0,0,1,.91-.22,1.06,1.06,0,0,1,.56.13,1,1,0,0,1,.34.33,1.78,1.78,0,0,1,.18.49,3.7,3.7,0,0,1,0,.59Z"/><path class="cls-5" d="M177.22,170.67l.21,0h.17a.31.31,0,0,0,.17,0,.46.46,0,0,0,.14-.14,1.79,1.79,0,0,0,.14-.28c0-.12.11-.28.18-.47L176.68,166h.82l1.16,3.07,1-3.07h.75l-1.71,4.64a1.07,1.07,0,0,1-.4.54,1.13,1.13,0,0,1-.73.22h-.18a1,1,0,0,1-.21,0Z"/><path class="cls-5" d="M183.13,169.59a3.46,3.46,0,0,1-.42.16,1.7,1.7,0,0,1-.57.09,1,1,0,0,1-.35-.05.73.73,0,0,1-.29-.15.59.59,0,0,1-.2-.26.94.94,0,0,1-.07-.39v-2.36h-.5V166h.5v-1.24H182V166h.82v.61H182v2.1a.39.39,0,0,0,.13.3.4.4,0,0,0,.27.09.83.83,0,0,0,.32-.06L183,169Z"/><path class="cls-5" d="M187.06,169.79h-.79v-2.11a1.23,1.23,0,0,0-.19-.77.61.61,0,0,0-.53-.25,1,1,0,0,0-.33.06,1.49,1.49,0,0,0-.58.47,1.49,1.49,0,0,0-.17.36v2.24h-.79v-5.26h.79v2.24a1.62,1.62,0,0,1,.59-.6,1.54,1.54,0,0,1,.81-.22,1.21,1.21,0,0,1,.58.13,1,1,0,0,1,.36.33,1.33,1.33,0,0,1,.2.49,3.7,3.7,0,0,1,.05.59Z"/><path class="cls-5" d="M188,165.4v-.87h.79v.87Zm0,4.39V166h.79v3.77Z"/><path class="cls-5" d="M193.1,169.79h-.79v-2.11a1.33,1.33,0,0,0-.17-.78.57.57,0,0,0-.5-.24,1,1,0,0,0-.34.06,1.35,1.35,0,0,0-.33.19,1.44,1.44,0,0,0-.27.28,1.22,1.22,0,0,0-.18.36v2.24h-.79V166h.72v.75a1.56,1.56,0,0,1,.62-.6A2,2,0,0,1,192,166a1.06,1.06,0,0,1,.56.13,1,1,0,0,1,.34.33,1.78,1.78,0,0,1,.18.49,3.73,3.73,0,0,1,0,.59Z"/><path class="cls-5" d="M195.52,169.82a1.63,1.63,0,0,1-.7-.15,1.87,1.87,0,0,1-.54-.42,2.24,2.24,0,0,1-.36-.62,2.18,2.18,0,0,1-.12-.72,2.09,2.09,0,0,1,.13-.76,1.66,1.66,0,0,1,.36-.62,1.66,1.66,0,0,1,1.26-.58,1.44,1.44,0,0,1,.8.22,1.87,1.87,0,0,1,.56.56V166h.7v3.66a1.7,1.7,0,0,1-.15.73,1.46,1.46,0,0,1-.42.53,2,2,0,0,1-.64.34,2.56,2.56,0,0,1-.79.11,2.34,2.34,0,0,1-1.05-.21,2.05,2.05,0,0,1-.69-.59l.45-.42a1.45,1.45,0,0,0,.55.46,1.7,1.7,0,0,0,.74.16,1.43,1.43,0,0,0,.46-.07,1,1,0,0,0,.39-.2,1,1,0,0,0,.26-.34,1.27,1.27,0,0,0,.1-.5v-.58a1.45,1.45,0,0,1-.56.54A1.59,1.59,0,0,1,195.52,169.82Zm.26-.64a1.07,1.07,0,0,0,.35-.06,1.11,1.11,0,0,0,.3-.17.88.88,0,0,0,.24-.23.89.89,0,0,0,.15-.29v-1a1.49,1.49,0,0,0-.45-.58,1.41,1.41,0,0,0-.32-.17,1,1,0,0,0-.33-.06,1,1,0,0,0-.46.11,1.14,1.14,0,0,0-.35.3,1.5,1.5,0,0,0-.23.41,1.56,1.56,0,0,0-.08.48,1.28,1.28,0,0,0,.09.48,1.24,1.24,0,0,0,.25.4,1.41,1.41,0,0,0,.37.27A1.07,1.07,0,0,0,195.78,169.18Z"/><path class="cls-5" d="M201.34,169.86a1.35,1.35,0,0,1-.5-.09,1.13,1.13,0,0,1-.41-.25,1.26,1.26,0,0,1-.27-.37,1.23,1.23,0,0,1-.09-.47,1.14,1.14,0,0,1,.11-.49,1.28,1.28,0,0,1,.33-.37,1.52,1.52,0,0,1,.51-.25,2.49,2.49,0,0,1,.64-.08,2.38,2.38,0,0,1,.53,0,2.56,2.56,0,0,1,.46.12v-.26a.86.86,0,0,0-.23-.65.93.93,0,0,0-.69-.23,1.51,1.51,0,0,0-.59.11,2.5,2.5,0,0,0-.6.32l-.25-.51a2.73,2.73,0,0,1,1.51-.49,1.77,1.77,0,0,1,1.22.4,1.48,1.48,0,0,1,.43,1.14v1.36c0,.17.07.25.21.26v.68l-.2,0h-.16a.53.53,0,0,1-.36-.11.49.49,0,0,1-.16-.3l0-.24a1.61,1.61,0,0,1-.62.51A1.8,1.8,0,0,1,201.34,169.86Zm.22-.58a1.41,1.41,0,0,0,.54-.11.94.94,0,0,0,.4-.29.38.38,0,0,0,.15-.28v-.49a1.86,1.86,0,0,0-.42-.12,2.38,2.38,0,0,0-.45-.05,1.15,1.15,0,0,0-.69.19.55.55,0,0,0-.27.48.59.59,0,0,0,.21.47A.74.74,0,0,0,201.56,169.28Z"/><path class="cls-5" d="M206.47,169.59a4,4,0,0,1-.41.16,1.79,1.79,0,0,1-.57.09,1,1,0,0,1-.36-.05.8.8,0,0,1-.29-.15.67.67,0,0,1-.2-.26,1.13,1.13,0,0,1-.07-.39v-2.36h-.5V166h.5v-1.24h.79V166h.82v.61h-.82v2.1a.42.42,0,0,0,.13.3.43.43,0,0,0,.28.09.81.81,0,0,0,.31-.06l.23-.09Z"/><path class="cls-5" d="M209.8,169.86a1.35,1.35,0,0,1-.5-.09,1.13,1.13,0,0,1-.41-.25,1.26,1.26,0,0,1-.27-.37,1.23,1.23,0,0,1-.09-.47,1.14,1.14,0,0,1,.11-.49,1.28,1.28,0,0,1,.33-.37,1.52,1.52,0,0,1,.51-.25,2.49,2.49,0,0,1,.64-.08,2.38,2.38,0,0,1,.53,0,2.56,2.56,0,0,1,.46.12v-.26a.86.86,0,0,0-.23-.65.93.93,0,0,0-.69-.23,1.51,1.51,0,0,0-.59.11,2.5,2.5,0,0,0-.6.32l-.25-.51a2.73,2.73,0,0,1,1.51-.49,1.77,1.77,0,0,1,1.22.4,1.48,1.48,0,0,1,.43,1.14v1.36c0,.17.07.25.21.26v.68l-.2,0h-.16a.53.53,0,0,1-.36-.11.49.49,0,0,1-.16-.3l0-.24a1.61,1.61,0,0,1-.62.51A1.8,1.8,0,0,1,209.8,169.86Zm.22-.58a1.41,1.41,0,0,0,.54-.11.94.94,0,0,0,.4-.29.38.38,0,0,0,.15-.28v-.49a1.86,1.86,0,0,0-.42-.12,2.38,2.38,0,0,0-.45-.05,1.15,1.15,0,0,0-.69.19.55.55,0,0,0-.27.48.59.59,0,0,0,.21.47A.74.74,0,0,0,210,169.28Z"/><path class="cls-5" d="M212.87,164.53h.8v4.17a.48.48,0,0,0,.1.33.41.41,0,0,0,.31.12l.18,0,.2-.07.11.62a1.8,1.8,0,0,1-.41.13,2.19,2.19,0,0,1-.42,0,.87.87,0,0,1-.64-.22.85.85,0,0,1-.23-.63Z"/><path class="cls-5" d="M215,164.53h.8v4.17a.48.48,0,0,0,.1.33.41.41,0,0,0,.31.12l.18,0,.2-.07.11.62a1.8,1.8,0,0,1-.41.13,2.27,2.27,0,0,1-.42,0A.78.78,0,0,1,215,169Z"/><path class="cls-5" d="M217.36,168v-3.34h.79V168Zm0,1.83v-1h.79v1Z"/></g></svg>